HTTP/1.1 200 OK
Date: Sat, 24 Nov 2018 08:02:44 GMT
Server: Apache
Last-Modified: Thu, 27 Sep 2018 14:03:43 GMT
ETag: "a0924033-6784-576dace800dc0"
Accept-Ranges: bytes
Content-Length: 26500
Vary: User-Agent
Content-Type: image/svg+xml

<?xml version="1.0" encoding="utf-8"?>
<!-- Generator: Adobe Illustrator 22.0.1, SVG Export Plug-In . SVG Version: 6.00 Build 0)  -->
<svg version="1.1" id="Layer_1" xmlns="http://www.w3.org/2000/svg" xmlns:xlink="http://www.w3.org/1999/xlink" x="0px" y="0px" viewBox="0 0 478.3 750.1"
	 style="enable-background:new 0 0 478.3 750.1;" xml:space="preserve">
<style type="text/css">
	.st0{fill:#FFFFFF;}
	.st1{fill:#B5121B;}
</style>
<path id="path2633" class="st0" d="M220.4,5.4c-0.6,0.1-0.9,0.7-1,2.6c6,4.8-1.5,3.1-4.8,3.5c-3-0.2-3.4-2.8-7.9-1.7
	c-5,5.2-10.7,6.2-17.2,5.2c-1.3-7.2-2.4,3.9-6.4-0.2c-1.8,3.4-4,0.5-5.6,3.4c-0.1,0.2-7.1-1.9-9,3.3c-0.9,4.2-4.8,6.4-1.8,0.6
	c7.5-5.1-9-12.7-6.6-5c-3.9,2.4-4.8,8.1-8.3,9c2.2-4.5,8.1-10.2,0.9-12c-2.3-5.2-0.4-0.2-3.2,0.9c-0.9-4.5-6-4.3-9.4-5.9
	c-0.9,2.1,0,4.6-1.1,6.7c-4.5,3.1-5.4,8.7,0.4,9.6c4.1,4-4.3-0.9-3.7,3.4c-1,0.5,6.8,4.7,0.5,2.4c-3.3-3.8-4.9,7.3-2.7,6.9
	c-2.5,3.8,9.8,6.8,8.6,6.8c0.7,3.3-0.8,0.2-3.6,0.1c-3.6-3.2-4.9,1.1-8.3,0.2c-3.9,3.7-7.6-2.1-9.6,0.5c2.9,3.1,3.6,8,7.8,9
	c-2,1.9-0.3,2.1-1.8,3.3c3.7,4.7-2.9,3-4.8,4.1c-1.7-5.3-7.2-2.1-2.9,1.5c2.4,2.7,6.9,7,11.6,9c-2.4,3.4,1.5,5.1,4.7,7.7
	c2.4,6.3,0,0.8-3-0.8c-2.5-4.2-7.5-1.2-9-5.1c-6-0.4,0.2,3.2,2.7,5.3c6.8,3.3-1.5,2.7-3.4-1.1c-5.7-5.5-3.4,7.6-9.1,1.8
	c0-4.4-5.2-7.1-5.5-1.5c1.3,2.4,5.1,7.8,2.3,8.9c-0.6,1.4-1.7,2.9-3.1-1.4c0-6-2.8-5.9-7.5-5.4c0.8,4.1-1.8,13,5.2,12.7
	c4.4,5.1-3.1,0.3-3.8,3.8c-4.2,4.6,3,4.9,3,9.5c2.4,1.7,2,3.5,7.4,2.7c7.4,2.9-5.9,0.3-3.4,3.3c-2.3,0.4-3-4.4-5.2-3
	c-4.7-7.7-6.9,4.1-5.7,9.2c3.7,0.1,2.5,3.3,2.5,5.4c-1.2,6.7,7.3,1.9,9.8-1.2c-3,6.5,5.5,3.4,7.8-1.2c1.8,2.4-6.4,7.4-10.5,7.1
	c-7.2,4.7,1.8,6.5,6.1,5.5c1.7,2.1,7.7,4.6,7.1,5.3c-4.7-0.3-6.6-6.7-11.5-2.7c0.4,3.1-0.6,5-2.6,8.3c2.9,1.5,7,2.4,8.4,5.1
	c6.7-1.9,1.3,1.8-2.2,0.3c-3.4-6.5-14.9,1.4-9.4,5.7c5.2-2.9,2,5.6,7.5,4c7.2-2.5,0.2,1.7-3,1.2c-2.7-2.6-8.5-5.8-9.2,0.4
	c-1.8,2.7-0.3,6.3-1.7,6.8c-6.3,2.2,4.5,1.2,7.4,1c-5.6,1.7,0.6,4.9,2.2,0.7c2.1,3.9-8.5,2.1-8.6,5.9c5.4,1.4,3.1,4.3-0.4,3.5
	c-0.7,0.1-1.5,4.1-4.4,0.2c-4.4,1.4-10.9,0.3-13.8,4h0c-0.7,6.9,9.8,3,13.4,4.4c4.5,2.6,7.8-2.6,11.9-2.3c2.4,3.2,12.4,0.2,4.3,2.7
	c-4.7-2.4-8.4-1.2-12.1,2.4c-8.5-3.1-6.7,5.8-1.1,9c5.4,1.1,6.1,1.3,9.8,4.2c6.5,0.5,9.8-11.2,14.9-12.7c1.9-4.6,6.2-4.6,7.7-8.5
	c0.1-1.5,7.3-9.2,5.8-5.6c-3.1,3.9-8.8,10.3-0.2,10.3c6.3-3.6,0.8,2.4-2.7,0c-6,0.3-5.2,4-8.2,6.5c-2.5,2.9-4.1,9.7,1.3,6.5
	c6.5-3.2,1.6,0.9-1.8,2.2c-3.8-3.6-6.6,6.7-3.5,1.8c0.9,1.7,2.4,3.9,5.3,3.3c8.6,1.3-3.6,0.5-5.6,0.5c-2.9,5.8-7.8,10-7.6,17.2
	c0.5,3.2,3.3,3.9,0.2,7.5c-3.2,7,0.9,2.8,3.2-0.9c1.7,1.6-4.1,7.1-0.4,9c-4.6-1.2-5.4,5.9-8.4,9.3c-0.6,7,1.5,0,3.5-2.5
	c4.5-6.8,2.1,2.1-2.1,5.7c-3,5.5,1.7,5,4.2,1.1c0.8,1.4-7.2,8.5-2.9,12.5c2.9,4.8,6.6-1.6,9.3-5c-0.4,4.6-7.7,8.6-9.6,14
	c-1.9,5.3-3.8,12.5-3,19.2c-1.5,4.7-6.8,8-5.1,14.2c5,2.9,17.1-1.2,14.3-8.4c-4-2.3-0.4-3.5,0.6-7.2c0.5-3.7,3.3-8,2.3-10.3
	c-2.1-5.9,3.4-12.7,7.9-16c-3.3-7.2-6.9-12.7-6.6-20.8c1.3,2.2,5.4-0.1,6.6-3.5c1.7-6.8,10.6-7.4,11.8-14.1c1-0.3,8.2-5.6,6.8-2.7
	c-6.3,1.7-5.6,8.3-11.1,10.2c-4.2,3.7-9.2,9.8-9.2,15.4c-1.3,5.4,1.6,10.5,7.2,11.4c-2.1-4.3-0.6-7.3,0.4-11.5
	c0.3,1.7,8.3,8.8,5.1,1c1.8-4.9,0.9,7.8,4.2,8.2c3.6-1.7,5-10.1,4.3-11.7c2.4-0.3,2.1-8.3,0.8-11.1c0.5-8.5,0.4,6.1,3.5-0.3
	c0.8,0.7-4.5,8.4-0.3,11.7c7.2,2.1,0.6-3.2,0.3-6.5c3.1,2.7,8.4,10.8,15.3,11c4.1,1.9-6.7-0.3-9.1-0.4c-7.6-6.1-11.1,5-9.1,11.5
	c5.5,4.5-4.8,9.4,2.4,11.8c1.2,4.6,10.2,3.9,9,10.5c0.3,1.1,4.5,5.5,1.5,9.2c-6.2,0.8-6.1,7.1-9.8,10.5c1.2,8.2-6.3,12.3-9,18.4
	c-3.7,6-1.3,12.1,1.7,17.3c-6.4,3-1.6-10.6-8-8.2c-5.9,6.5,2.3,16.2,6.7,21c4.5,2.8,0.2,9.7,6.7,11.2c1.2-1.1-0.3-5.8-2.1-8.5
	c-3.3-4.9-2-9.3,4.1-11.2c2.8,1.6,6.8,4.9,10.6,6.5c3.8,3.3,6.2,8.9,12.3,9c3.1-1.9-0.9-7.9,1.6-9.3c-1.6-3.1-6.5-6.2-2.6-9.9
	c1.1-0.1,2.8,6.4,7,5.5c3.9-5.3,1.2,2.2,4,3.7c4,4.5,4.3,0.5,6-3.5c-1.6,4.7,2.7,8.3,6.6,4.3c5.6-2.3,2.8-4.1,4.7-7.4
	c-0.2,0.9,2.1,2.8,5.7-0.4c4.9,0.9,8.4-0.7,6.9-6.2c-1.5-5.4,1.8-1.1,3-3.2c2.9-0.2,6.8,0.8,10.9,1.3c4.1,0.6,7.6-0.4,11.5-1
	c1.4-0.2,1.8-0.4,1.6-0.5c3.3,0.2-5.6,3.9-0.4,3c-0.8,5.8-9.5-3.1-12.3,3c2.9,1.3,1.1,5.3-2.1,2.7c-2.2-0.6-6.3,7.2-5.6,10.8
	c-6.5,5.3-5.8,14-9.3,20.4c1.6,7,12.2,12.8,11,21.1c1.2,3.4,6.9,10.4,8.2,4.8c1.5-9.3,2.8,3.9-0.1,4.5c-0.5,3.5,1.1,5.4,3.7,7.5
	c0.6,0.8,3.6-3.8,5.1-6.8c1.3-6.2,2.4-0.5,5.3,0.1c1-1.7,8.5-6.2,5.4-2.8c4.1,5.3,0.8,8.3-3,12.1c-0.1,4.5,3.8,2.3,2.4,5.9
	c1.7,2.5-5.1,2.6-8.4,3.3c-3.2,7.3-2.7,21.4,8.8,16c-3.2,2.8-10.7,7.8-12.7,14.7c3.4,5.6,3.8,13.6,9.9,17.3c2.3,4.7,10.2-1.7,7.7,3
	c-5.2,8-12.8-3.3-13.5-9.1c-10.6-1-5.9,11.1-4.4,13.8c1.1,1,1.1,1,1.1,1c-1.6-0.9-2.8-1.3-5.1-3.5c-7.5-10.8-16.4,2.6-25.5,0.2
	c-2.5-1.7-11.3-6.5-6.3-0.5c-3.7,1.9-11.1,5.9-16.5,6.1c-2.5,2.4-6.1,9.6-8.2,8.9c0,4.8-3.3,9.5-7.8,12.7c-6,3.1-11.2,7.2-13.6,13.8
	c1.7,1.5,2.9-1.5,5.4-0.9c3.3-4.1,5.8,3.3,7.9,1c-0.9-6.9,8.4-9.9,14.8-9.4c6.8,1.9-0.1,8.7,4.6,11.8c0.9,4.3,5,2.5,5.2,2.9
	c-5,2.5-9.2,11.5-2.2,14.9c5.1-2.4,5.2,0.9,0.3,1.7c-2.6,1.6-1.9,10.5-4.7,14.6c-3,7.6-10.7,9.8-16.1,14.1c-2,4.5-10.3,0.4-11.9,4.1
	c-2.2-0.1-3.4,4.9-7.1,5.6c0.8,4.9-4.4,0-5.5,3.3c-1.3-0.3-8-4.1-6.7,1.3c-1.9,3.6-8.3,4.2-10.7,6.8c-2.6,5.9,5.5,0.1,8.7,4.2
	c2.3,5-0.2,6.8-3.8,8.7c-4.2,0.6,0.9,2.1,1.5,4.6c0-5.5,7,0.1,10.9-2.1c8.1-1.3-3,2.7-4.6,1.9c-1.4,0.6-6.3,0-0.8,2.2
	c0,3.2,3.9,5.4,7.1,4.1c2.2-4.6,7.6-1.5,10.5-4.2c-0.3-7.4,8.2-5.5,13.5-6.5c-2.3-4.9,1.2,0.2,2.7-2.9c-0.2,1.7,5.5,5.9,0.7,4
	c-1.5,3,5,5.5,8.3,3.7c1.9,4,8.6-1.9,5.6,2.6c-4.6,3.8-7.6-1.2-10.4,3.1c-0.5,3.7,2.2,6.5,5.8,5.2c2.5-2.5,6.9-1.2,9.9-1.4
	c-4.1-4.1,5.7-5.9,7.1-3.9c4.5,2.4,3,11.6,8.4,10.7c5.5,8,16.7,9,24.6,5.4c-0.8-5.6,5.6-7.7,9-11.7c2.4,2.3,7.9,0.2,11.8-1.9
	c0.2-0.4,0.3-0.8,0.4-1.1c0,0.1,0,0.2,0,0.2c5.5-2.7,8.8-10.7,15.3-12.9c1.9-3.5,4.1,0,0.3,0.9c-6,4.7-9.8,12.5-14,18.9
	c-5.6,0.2-9.2,8.5-12.6,9.6c-0.3,4.4-3.2,3.6-2.4,7.6c2.2,4.9-1.5,8-6.6,6.5c-5.9,3-12.8,2.5-18-1.2c-4.9,0.7-10.3-1.4-15.5-0.4
	c-5.7,1.1-17.6-0.5-19.2,4.4c-4.2,2.6,2.9,7.2-2.3,10.6c-3.4,6.7-9.1,0.5-13.7,1.3c0,2.6,0.6,5.3-0.8,7.6c0,0,0,0,0,0
	c1.3,7.2-2.2,12.5-6.7,17c-5.5,0.9-2,9.6-9.1,8.7c-3.8-0.6-2.2,1.6-3.9,2.4c-4.4-1.1-4.3,5.4-5.5,10.2c-6.1-0.3-3.1,5.5-7.6,7.8
	c-2.5,4.7-8.7,5.4-10.9,9.7c-4-3.2-8,1.2-12.6,2.8c-1.7,2.4-2.6,7.4-0.2,9.2c7.7,3.2,5.5-9,11.6-5.8c7.5,0.4,9.1,7,12.1,11.9
	c1.1-0.9,3.1-4.4,5.8-4.4c5-3.6-4-5.7,0.2-7.4c2.8-2.7,0-4.4,2.7-7.6c0.5,0,1.2,4.8,1.1,5.5c1.9-3.2,3.9-4.2,6.5-6.1
	c4.9,0.3,4.9-3.3,5.8-6.7c0.8-4.4,4.4-0.1,5.7-1.2c6.9,1.8,11.8-4.3,18.7-1.8c2.3,5,7-0.1,2.3-1.2c5.9-2.2,5.7,7.7,11.9,4.7
	c4.8-2,6.3,7.4,10.3,6.3c4.1,2,7.2-0.3,7-5.2c3.4-2.1,2.7-5.5,5.5-3.9c3.9-4.4-0.7-3.8-1-8.1c5.5-0.5-0.6-5.6,4-8.8
	c3.5-2-2-12.7,1.9-6.5c2.5,7.6,7.2-3.2,11.6-3.2c7.7,1.1,14.5-6.3,21.9-1.2c5.6,3.9,16.2,7.6,14.8,15.1c0.8-0.6,0.8-2,1.8-2.6
	c-2.5-3-1.6-9.3,4.6-6.8c7-0.3,12,3.8,18.2,2.9c2.7-2.7,1.9-4.2,1.3-6.5c-3.9,0.2-4-2.2-6.2-1.1c-2.5-0.9,2.4-2.5,4.9-2.2
	c1.2,5.8,5.6-3.2,10.3,0.2c0.5-0.4,1-2.9,4.9-2.1c5,3.5,6.5-0.5,11-2.6c7.6,0.4,6.5-6.2,1.5-9c-7.2-3.9,2.2-0.9,4.2,2.3
	c3.2,1,8,8.8,10.1,4.1c-3.1-3.1-1.2-3.9,2.4-2.8c-4.3,3.1,1.7,7.3,1.8,0.9c4.5-4.3,0.1,5.1,1.5,3.9c4.7,2.3,1-8.7,3.8-3.6
	c-0.4,0.3,5.5-0.3,1.5,2.6c-2.9,1.5,8.5,8.1,7,2.7c1.9-1.6,12.5-2.6,17.8-3.7c11.1-5,21.9,2.9,32.3,5c4-7.5,12.8-7.6,20.3-10.2
	c3.6-6.2,9.5-4.8,15.3-3.4c-2-7.3,5-13.3,11.8-13.8c5.8-1.2,12.7-6.1,9.5-13.4c-3.9-5.4,3.7-5,2.6-10.4c-1.7-0.7-3.7,0.1-5.5,0.3
	c-9.3-0.8-17.8,5.7-26.7,2.2c3.2,0.9,11-1.6,3.7-4.9c-3.5-1.9-7.4-1.3-7.5,0.5c-1.2,0.1-1.3,4.2-5,2.2c-6,1.2-0.6-5.3,3.2-3.8
	c4.9-2.9-6.3-4.8-9-3.9c-1.2,0.6-7.4,5-4.8,2.1c1.7-5.4,8.4-3.2,11.5-5.8c4.6,0.9,10.2,0.5,13.4-4.3c4.7-3.6-1.5-2.1-2.4-1.7
	c-5.4-3.6,1.9,0.4,3.6-3.3c3.5-5.2-0.9-10-5.6-5.6c-1.8,0.9-4.8,1.2-4.8-1.4c6.5,1.5,7.3-5.6,13.2-5.7c3,5.4,10.7,1.9,13.7-2.7
	c3.3-5.4-1-0.2-3.3-2.8c2-2.3,7.3-6.6,0.3-5.4c-5.9,0.8-4-2.5,0.4-0.9c6.2,2-1-5.9,3.3-2.1c2.2,8,7.4-1.6,9.2-5.3
	c6.4-0.7,8.3-8.1,7.9-14.1c1.3-7.7,6.6-14.6,6.9-22.2c-1-10.2-1.7-22.5-12.7-27.6c-6-7.5-15.5-7.6-23.7-10.6
	c-5.2-1.4-0.5,0.7-1.9,1.2c-6.2-0.9-10.8-1-17.6-0.7c-6.2-2.2-9.3,4.3-10.1,10c-3,2.7-2.2,8.3-5.5,3c-7.2,3.1-7.9-11-15.6-6.4
	c0.9-3.4,6.2-7.9,9.4-12.1c6-3.6,9.7-9,7-16.1c-3.2-9.8-5.7-20-15.3-23.7c-3.1-5.6-8.9-5.8-12.7-11.3c-1.3-6.8-6.8-3.8-11.5-3.8
	c-3.5,3.7-6.3-0.9-9-0.6c-5.8,3-3.7-1.8,1.2-2c5.8,5.3,14.7-4.5,19.1,1.7c3.4,5,8.4,7.5,14,5.3c5.7-0.4,2,8.3,4.3,4.5
	c0.2-7.8-7.8-13.7-11.1-20.5c-5.1-6.5-11.3-20.8,0.3-23.9c-2-3.4-11.3-2.6-9.4-8c-6.2-2.3-7.2-7.4-9-13.1
	c-3.3-4.2-3.6-10.1-9.6-11.3c-5.6-6.4-14.4-6-20.9-10.5c-5-4.1-2.6,3.7-6.5,1.1c2.1-2.9-0.8-5.2,1.2-7.6c-8-3.8-8.3-14-9.4-21.5
	c-2.8-6-5.8-10.9-7.5-17.2c1.2-5-4-9-2.1-14.2c-2.3-3.9-1.7-7.9-1.5-12.5c-1.6-5.1-1.1-9.5-5.2-13.1c-4.4-1-2.9,0.1-4.3-3.4
	c-1.2,1-4,0.2-4.9-3.7c-3.3-2.9-6.8-6.8-9-10.7c-0.2-0.3-0.3-0.5-0.4-0.7c-1.5-4.7-2.8-7.3-5.9-9.1c-7.4,1.8-12.8-9.3-19.3-6.8
	c0.4-6.8-11.4-7.7-14.2-3.3c0.2,4.4-5.2,7.2-9.5,7.6c-3.9-2.7-8.8-2.7-13.2-3.3c-4.7-0.3-10.5-2.5-15.9-2.5
	c-7.6-1.4,2.3-6.4,5.7-2.1c6.1,4.9,10.6-2.7,17.1-1.8c1.2-5.6,6.8-9.7,11.6-13.3c6.1,3.2,12.7,0.1,17-5.1c1.9-6.3-9.5-4.5-11.1-8.9
	c-0.7-0.3,3.3-8.1-2.5-7.8c-5.7,1.6-11.3,5.9-17.3,8.4c-4.8,1.5-6.7-0.9-0.8-0.9c4.6-5.8,11.4-8.9,17.9-8.4c3.4-2.5,7.7,1.7,8.4-3.3
	c4-3.3,12.7-7.1,10.3-12.8c3.6-3.3,3.2-5.3,4.3-10.1c4-2.8,10.1-8.3,11.7-14.7c-2.2-7.5,7-12.9,5.8-19.6
	c-2.5-10.7,9.2-20.9,12.7-27.3c3.8-2.2-0.5-5,2.2-5.9c-3.3-2.6-1.9-8.7-3.8-10.7c-3.6-4.6-7-7-12.8-7c-3.2,3.1-7.5,1-10.8,1
	c-5.6,3.6-14.2-0.5-20.7-0.2c-4.7-2-8.9-2.2-12.8,1.1c-9.2,1.5-19.5-10.2-26.5-0.2c-5.3,1-10.7,1.5-14.5,6.4
	c-2.8,2.9-16.1-1.2-11.3,3.1c-2.9,2.7-5.9,8.6-10.5,6.5c4.7-3-3.3-5.9,2.3-4.6c1.5-2.3,4.8-2.3,5.3-5.4c2.7-3.3,6.9-9.1,0.1-5.2
	c-5-1.6-9.5,0.2-13.3,5.6c-4.9,6.1-4-0.4,0.6-2.8c1.7-5.9,7.9-3.1,11.3-7.2c3.2-3.5,6-1.9,5.1,2.4c4.5-3.1,8-9.1,11.4-14.1
	c1.3-6.3-2.1,1.3-4.4,1.4c-5.2,1.9-0.7,0-3.9-1.5c-3.7,2.3-10.1,1.8-12.2-2.1c3.6,1.3,9.6,1,10-3c-1-4.1,1-7.8,6-9.4
	c2.1-4,6-6.5,10-9.5c6.4-4,11-10.4,15.3-16.5c7.8-2.5,13.6-7.7,15.7-15.5c4.2-4.9-1.1-2.9-3.4-4.5c-1.6-5.6,5.5-9.5,5.4-14.8
	c-3-1.6-7.6,0.3-11-1.4C224.8,9.2,221.9,5.3,220.4,5.4z M162.8,671.3c0-0.2-0.1-0.5-0.1-0.7C161,663.2,161.4,673.4,162.8,671.3z
	 M283.3,269.5c-0.6,0.7-1.1,1.1-1.5,1.5C282.2,270.6,282.7,270.1,283.3,269.5z M298.3,276.9c-2-0.2,0,3.3,2.2,1.2l-0.2-0.4
	C299.4,277.2,298.7,277,298.3,276.9z M231.7,371c0.2,0,0.5,0.3,0.8,1.1C230.9,377.4,230.7,371.2,231.7,371z M241.4,386.8
	c0.1,0,0.3,0.1,0.7,0.3c3.7,2.1-1.5,15,0.3,6.2C244.3,391.7,240.6,386.8,241.4,386.8z M227.4,409c-2.7,0.3-0.2,5,0.4,6.6
	C234.2,420.3,224.8,413,227.4,409z M423.4,506.2c-4,0.4,4.5,1.6,0.4,0L423.4,506.2z M450.5,594.7c-0.7,0.1-0.3,1.9,0.6,0.3
	C450.9,594.8,450.7,594.7,450.5,594.7z M248.6,598.5c0.7,0.3,1.5,0.5,2.5,0.5c0.4,0,0.6,0.2,0.9,0.6
	C251.2,599.5,250,599.7,248.6,598.5z M437.2,601.9c-3.4-0.2-4,3.7,1,1.1c0.4,0,1.3-0.2,0.6-0.8C438.2,602,437.7,601.9,437.2,601.9z
	 M157.1,649.4C154.8,652.5,158.5,653.7,157.1,649.4z"/>
<path id="path3431" class="st0" d="M104.9,236.9c1,5.2-4.2,10.9-6.2,15.8c-1.4-2.3-10.9,3.3-7.5-3.3
	C93.9,243.7,101.2,239.3,104.9,236.9z"/>
<path id="path3433" class="st0" d="M110.5,230C111.2,234.8,107.7,230.2,110.5,230z"/>
<path id="path3435" class="st0" d="M108.1,226.3c2.2,2.3-1.7,10.2-1,2.8C107.6,228.5,106.2,224.6,108.1,226.3z"/>
<path id="path3437" class="st0" d="M110.4,221.7C109.9,231.2,103.9,219.6,110.4,221.7z"/>
<path id="path3439" class="st0" d="M114.8,213.2C112.2,219.8,107,213.9,114.8,213.2z"/>
<path id="path3441" class="st0" d="M105.6,232.7C106.6,239.4,98.3,233.7,105.6,232.7z"/>
<path id="path3443" class="st0" d="M105.1,230.6C105,233.6,103.3,229.7,105.1,230.6z"/>
<path id="path3445" class="st0" d="M102.4,227.9C100.6,230.3,100.9,226.6,102.4,227.9z"/>
<path id="path3447" class="st0" d="M83.1,239c-1.4,4.8-4.5,10.1-6.5,6.5C77.4,241.7,81.4,238.7,83.1,239z"/>
<path id="path3449" class="st0" d="M79.3,247.8C75.4,251.6,78,244.8,79.3,247.8z"/>
<path id="path3451" class="st0" d="M107.3,210.2c-1.3,1.4,0.1,6.9-3.2,4.3c-0.9-1.6-3.8,4.2,0.9,1.4c0.5,4.7-12.6,9.1-8,2.7
	c-5.6,3.8-12.1,6.1-19.5,6.1c-2.1,5.5-9.5-5.8-2.8-5.2c2,2.8,3.3,2.3,3.7,0.4c3,2.2,14.5-4.7,9.1-3.6c-3,2.1-11.6,2.6-5.8-2.1
	c0.2-5,9.5-4.1,7.7-8.2c-5.5,4.4-7-1.5-12-2.8c-6.4,1.2-2.5-3.7-2.1-4.7c-4-2,3.3-3.8,4.4-1.8c-2.4-6.4,8.6-5.4,9.6,0.8
	c1.9,4.2,4.1,7.2,8.6,6.8C100.5,204.2,105,208.3,107.3,210.2z"/>
<path id="path3453" class="st0" d="M118.1,201c-1,3-10.7,11-7.1,6.1C111.6,205.6,118.3,199,118.1,201z"/>
<path id="path3455" class="st0" d="M72.3,223.6C73.4,228.7,73.7,224,72.3,223.6z"/>
<path id="path3457" class="st0" d="M71,220.1C66.4,227.7,67.7,216.6,71,220.1z"/>
<path id="path3459" class="st0" d="M82.6,208.7c-4.9,2.1-6.7-5.2-1-1.3C82,207.8,83.4,208,82.6,208.7z"/>
<path id="path3461" class="st0" d="M76.8,206.4C72.7,208.8,76,203.8,76.8,206.4z"/>
<path id="path3463" class="st0" d="M66.3,209.4C64.2,212,66.5,206.8,66.3,209.4z"/>
<path id="path3465" class="st0" d="M69.1,206.3C68.3,210.2,67.7,204.5,69.1,206.3z"/>
<path id="path3467" class="st0" d="M54.2,202.2c-1.8,2.1-4.4,1-5,4.2c-5.1-1.6-3,6-7.8,3.2c-2.4-3.9,1.9-7.2,6.4-7.1
	C50.5,202.7,53,199.2,54.2,202.2z"/>
<path id="path3469" class="st0" d="M67.5,189.3c-1.2,6.4-7.5,9.3-11.8,9.7c-1.4,0.4,3.3-5.4,6-7C62.5,190.4,68.1,187.1,67.5,189.3z"
	/>
<path id="path3471" class="st0" d="M98.8,179.4C93.6,180.3,98,175.8,98.8,179.4z"/>
<path id="path3473" class="st0" d="M79.3,175.2C75.6,178,76.5,172.2,79.3,175.2z"/>
<path id="path3475" class="st0" d="M85.1,167c1.9,6.6-8.4,4.2-4,0.5C82.9,168,82.4,161.5,85.1,167z"/>
<path id="path3477" class="st0" d="M78,160.5c0,7.3-7.4,4.9-9.1,0.1c-4.4-1.1,5.6-8.8,7.5-4C79.2,157.3,77.6,159.3,78,160.5z"/>
<path id="path3479" class="st0" d="M65.9,154.9c-3.7,2.3-8.9,0.8-2.5-0.8C64.1,153.7,66.1,153.7,65.9,154.9z"/>
<path id="path3481" class="st0" d="M67,156.4C64,157.2,65.3,154.3,67,156.4z"/>
<path id="path3483" class="st0" d="M83.2,107.8c1.1,5.1-0.4,14.8-1.4,15.8c3.5,0.3,1.1,5,3.6,7c3.3,0.7,1.8,4.5,2.5,4.5
	c4.6-0.7,9.9,5.9,14.4,0.3c2,0.2,4.3,0.1,5.3,2.1c1.7,6-7.2,5.8-6.8,9.2c-1,3.5-5.4,6.7-7.4,9.9c-4.3,4.4-6-0.7-3.4-4.3
	c-2.1-5.4,8.9-7.3,7.7-8.7c-3.8,2.4-7.2,0.2-8.6-2.7c0.8,3.8-4.8,11.5-3.9,3.4c-1.7-3.3-9,3.1-10.4,0.5c5.5-3-7.9-1.6-2.4-5.3
	c-1.4,0-5.7-4-6.1-6.3c1.3-6.9,7.3,0.8,7.5-0.5c-3-3-2.8-5.8-6.2-4.5c-0.7-2.5-1.8-5.2-3.3-2.3c-0.4-6.1-2.4,1.3-2.5,4.1
	c-4.3-2.1-8.3-3.4-9.5-8.2c-3.9-1.9,1.1-3,1.4-3.2c-3.3-5.4,3.3-4.4,4,0.2c4.4,3.9,3.7,0.7,1.6-3.1c1.9-1.8,4.1-0.7,0.5-4.5
	c-3.3-3.8,0.9-9.2,1.9-2.1c1.8,3.4,7.5,4.9,7,5.3c-0.4,6.3,1.7-6.3,3.2,0.4c6.7,5-5.4-5.1,0.2-7.7c-4.4-2.6-1.5-6.6,1-9.7
	c-1.3-3.3,6.6,1.9,6.4,5.1C81.9,102.7,82.4,106.1,83.2,107.8z"/>
<path id="path3485" class="st0" d="M99.2,128.9C100.7,131.8,96.4,127.1,99.2,128.9z"/>
<path id="path3487" class="st0" d="M98.6,135C97.4,137.4,96.8,133.7,98.6,135z"/>
<path id="path3489" class="st0" d="M94.5,132.7C90.6,141.4,85.7,124.5,94.5,132.7z"/>
<path id="path3491" class="st0" d="M92.7,107.6C91.4,120.6,88,107.7,92.7,107.6z"/>
<path id="path3493" class="st0" d="M91.3,115.5c-3.1,4.4-1.5,9.2-0.9,13.2c-5.4,5-4.6-7.8-2.2-10.1
	C90.6,119.8,89.9,112.6,91.3,115.5z"/>
<path id="path3495" class="st0" d="M72.2,77.7C74.7,83,68.8,76.2,72.2,77.7z"/>
<path id="path3497" class="st0" d="M69,92.4C70.5,94.7,66.1,91.5,69,92.4z"/>
<path id="path3499" class="st0" d="M109.4,83.4C111.7,87.6,106,81.3,109.4,83.4z"/>
<path id="path3501" class="st0" d="M117,78.1C119,82.1,114.9,76.9,117,78.1z"/>
<path id="path3503" class="st0" d="M129.1,73.8C127.6,72,131.1,73.2,129.1,73.8z"/>
<path id="path3505" class="st0" d="M120.2,67.8C116,68,120.6,63.5,120.2,67.8z"/>
<path id="path3507" class="st0" d="M118.9,70.8C116.1,70.3,120.1,69.6,118.9,70.8z"/>
<path id="path3509" class="st0" d="M115.3,72.6C111.9,72.4,116.2,70.1,115.3,72.6z"/>
<path id="path3511" class="st0" d="M132.1,33.2C128.7,34.7,133.3,30.1,132.1,33.2z"/>
<path id="path3513" class="st0" d="M82.4,30.1c-4.2,2.6,0.5,6.9-0.7,7.5c-3.5,3.1-8.1,8-8.2,10.7c4.6,4.3,11.1-9.2,10.2-0.3
	c-2,4.1-5.7,3.7-9,2.5c-2,0.5-4.7-2.5-2.7,2.1c3.5,4.9-6.2,6.2-7.7,7.8c5.5-0.2,7.6-3.8,8,2.9c1.5,7.1-8.7,2.6-8.5,4.1
	c6.7,1.6,1.8,8.2-1,7.3c-0.8,4.8-5.1-5.2-3.5,1.2c-4.8-0.8-5.4-8.3-4.3-11c-4.3,3.6,0,10.7,1.2,13.3c-0.8,2.4-10.4-1.8-5.1,3.3
	c2.7,2.6-1.2,4-2,4.3c-3.1-0.5-4.4,5-6.9,7.6c-2.2-1.3-8.2-6.9-9.2-10.1c3.9,0.6,2.7,5,5.1,0.2c1.1-1.8,5.6-3.2,5.4-3.8
	c-4.6-3.3,3.3-2,5.2-2.3c-1.5-3.3-6.8-4.9-10.8-4.9c-4-2.5-4.4-5.4-0.3-6.4c4.4-1.9-1.8-1.4-0.1-2.8c-2.5-2.2-4.6-6.8-2-10.2
	c-0.1-2.4,7-0.3,2-3.4c0.1-5.5,4.8-0.8,5.7-2.2c3.5,2.6-2.5,3.3,3.3,5.1c0.8-4.9,8.4,1.9,8.3-1.3c-3.7-3-8-10.5-1.5-12.1
	c2.3-3.7,7.8-2.8,10.2-4.6c2.3-6.5,11.7-9,13.8-14C81.4,23.3,81.7,26.1,82.4,30.1z"/>
<path id="path3515" class="st0" d="M51.6,48.5c-0.4,5.2-8.6-7.5-2.5-2C49.5,47.2,50.7,47.4,51.6,48.5z"/>
<path id="path3517" class="st0" d="M48.3,49.6C46,48.7,48.6,47.8,48.3,49.6z"/>
<path id="path3519" class="st0" d="M34.6,67.5C27,68.5,35.3,61,34.6,67.5z"/>
<path id="path3521" class="st0" d="M41.4,78c-2.9,2.6-6.8,1.4-1.8-1.5C41,74.9,41.4,76.8,41.4,78z"/>
<path id="path3523" class="st0" d="M29.7,89.1C29.8,94,23.3,87.7,29.7,89.1z"/>
<path id="path3525" class="st0" d="M32.7,93.7C28.8,100.4,27.6,90.7,32.7,93.7z"/>
<path id="path3527" class="st0" d="M26.2,95.4C25.9,99.1,23.9,93.6,26.2,95.4z"/>
<path id="path3529" class="st0" d="M6.9,96.6C6.5,98.3,5.4,95.4,6.9,96.6z"/>
<path id="path3533" class="st0" d="M36.8,102.7c-0.4,4.1-8.2-3.1-5.2,1.4c-0.1,3.6,5.6,0.3,2.1,5.1c-4.8,0.8-8.8-1.9-7.8,2.2
	c-0.1,6.8-5.4-8-9.4-2.9c-5.5-2.2-1.3-5.7,0-8.4c2.9,0.4,5-1.3,3.1,1.9c2,1.2,5.2-8.4,4.3-1.9c2.9,6.7,3.6-6.5,7.9-1
	C27.8,103.8,37.8,98.9,36.8,102.7z"/>
<path id="path3535" class="st0" d="M19.1,108.9C21.2,112.4,16.7,108.3,19.1,108.9z"/>
<path id="path3537" class="st0" d="M8.4,113C3.8,113.2,10.8,111.7,8.4,113z"/>
<path id="path3539" class="st0" d="M10.6,112.3C10.2,115.5,8.5,111.7,10.6,112.3z"/>
<path id="path3541" class="st0" d="M22.9,112.2C22.9,121.2,17.4,105.9,22.9,112.2z"/>
<path id="path3543" class="st0" d="M29.3,120.4c-1,8.7-16.3-3.3-6.1-4.8C25.4,117.7,28.2,117.6,29.3,120.4z"/>
<path id="path3545" class="st0" d="M27.7,129.3c-3.4,0.1-11.1-6-4.5-4.9C26.7,125.9,26,127,27.7,129.3z"/>
<path id="path3547" class="st0" d="M30,133.4c-2.2,2.9-3.5,7.8-7.4,5.7c1.4,0.1,7.9,6.3,2.9,7.3c-6.5,0.3,2.5,0.9,3.1,3.3
	c0,2.6-8.9,1.9-9.2-2.3c-1.8-7-0.9-11.3,0.6-18.3c-1.9-6,0-1.8,3.1-0.4C26.1,130,29.2,132,30,133.4z"/>
<path id="path3549" class="st0" d="M26.6,152.7C24.9,159.8,22.6,149.5,26.6,152.7z"/>
<path id="path3551" class="st0" d="M21.3,156C18.1,157.1,20.9,153.3,21.3,156z"/>
<path id="path3553" class="st0" d="M18.8,156.4c-0.5,3.6,2.4,4.9,0,7.8c-3,2.1-9.1-0.1-4.2-3.4c-1.4-1.5,3.9-4.4,3.2-5.1
	C18.1,155.9,18.6,156,18.8,156.4z"/>
<path id="path3555" class="st0" d="M15.5,166.3c-0.4,2.6-5.3,1.4-2.6-1.2C13.2,165.8,16.9,165.7,15.5,166.3z"/>
<path id="path3557" class="st0" d="M15.3,170.5C10.6,172,15.6,167.3,15.3,170.5z"/>
<path id="path3559" class="st0" d="M12.1,174.1C7.2,174.6,12.6,171.9,12.1,174.1z"/>
<path id="path3561" class="st0" d="M9.1,176.4C7.5,184,5.1,175.2,9.1,176.4z"/>
<path id="path3563" class="st0" d="M23.3,158.9C25.2,161.2,20.3,158.2,23.3,158.9z"/>
<path id="path3565" class="st0" d="M30.5,124.5C27.1,127.5,30.5,119.4,30.5,124.5z"/>
<path id="path3567" class="st0" d="M29.6,116.1C29.4,119.3,25,113,29.6,116.1z"/>
<path id="path3569" class="st0" d="M31.8,115.3C31.5,121.1,28.6,112.8,31.8,115.3z"/>
<path id="path3571" class="st0" d="M29.9,110.8C29.6,118.2,23.7,110.2,29.9,110.8z"/>
<path id="path3573" class="st0" d="M33.3,110.5C33.5,117.5,26.1,111.5,33.3,110.5z"/>
<path id="path3603" class="st0" d="M28.5,106.1c-3.8,3.1-1.7-0.3-2-1.8C26.7,105.6,28.8,104.8,28.5,106.1z"/>
<path id="path3605" class="st0" d="M182.8,40.4c0.7,0,1.9,0.6,3.2,2.5l-0.5,0C181.8,42.2,181.6,40.5,182.8,40.4z"/>
<path id="path3607" class="st0" d="M174.4,46.4C168.6,53.6,171.3,47.4,174.4,46.4z"/>
<path id="path3609" class="st0" d="M154.7,52.7c5.9,3.3,11.8,7.4,15.4,13.2c-0.7,0.3-1.1-0.7-1.5-1.1
	C165.3,60.7,154.6,53,154.7,52.7z"/>
<path id="path3611" class="st0" d="M184.2,72.9c0.8-0.1,8.4,3.3,3.2,2.3C184.6,73.5,183.9,72.9,184.2,72.9z"/>
<path id="path3613" class="st0" d="M170.6,76.9c0.2,0,0.9,0.6,2,2.3c0.5,3.7,10,0.6,5.2,2.7C174.1,84.6,169.8,76.8,170.6,76.9z"/>
<path id="path3615" class="st0" d="M116.8,88.4c0.3-0.1,1,0.6,1.6,2.8c0.4,0.6,3.2,2.9,0.9,2.5C116.5,91.9,116.1,88.7,116.8,88.4z"
	/>
<path id="path3617" class="st0" d="M110,90.8c0.1,0,2.3,2.5,4.4,4c1.5,1.1,12.1,7.9,7.5,6.3c-3.4-3.9-9.9-1.7-10-7.7
	C110.5,91.5,109.9,90.8,110,90.8z"/>
<path id="path3619" class="st0" d="M138.1,100.5c0.6,0,1.4,0.1,2.6,0.3c0.9,0.7,5.6-1.3,4.2,0.5c-3.1,1.5-9.6-0.6-7.3-0.8
	C137.7,100.5,137.9,100.5,138.1,100.5z"/>
<path id="path3621" class="st0" d="M209.7,100.6c0.7,0,1.1,0.5,0.6,2.1C205.6,103.3,208.2,100.6,209.7,100.6z"/>
<path id="path3623" class="st0" d="M171.5,114c1.1,1.1,7.2-0.2,5.3,1.5C173,117.7,162.7,114.7,171.5,114z"/>
<path id="path3625" class="st0" d="M136.9,120.4c1.7-0.2,4.9,2.6,3,2.4c-2.7-2-10.8-0.3-3.6-2.1
	C136.4,120.5,136.6,120.4,136.9,120.4z"/>
<path id="path3627" class="st0" d="M172.8,124.6c0.7,0,0.3,1,0.4,1.4c-6,6.5-10.4,16.9-17.3,20.9C162,139.6,167,131.7,172.8,124.6z"
	/>
<path id="path3629" class="st0" d="M145.6,152.4c0.6,0,1.2,0.1,1.9,0.2c0.2,0.6-0.5,0.5-0.8,0.8
	C140.3,154.8,141.6,152.3,145.6,152.4z"/>
<path id="path3631" class="st0" d="M126.5,152.6c1.5-0.1,2.8,0.5,4,1.7c-2.4-0.8-9.4,2.3-8.7,0.8C123.4,153.5,125,152.7,126.5,152.6
	z"/>
<path id="path3633" class="st0" d="M147.9,158.8c0.2,0,0.2,0.3,0,1c-1.4,3.5-9.8,9.9-4.3,3.3C144,162.4,147.1,158.8,147.9,158.8z"/>
<path id="path3635" class="st0" d="M101.2,163.3c3.1,1.7,11.5,0,12.1,1.2l-0.3,0.2l-0.4,0.1C109.3,165.4,97.7,166,101.2,163.3z"/>
<path id="path3637" class="st0" d="M176.3,167.2c0.4,0-0.1,0.8-0.5,0.8c-3.8,4.4-7,12.4-8.8,15.7c0.5-5.5,5.4-11.7,8.9-16.3
	C176.1,167.2,176.3,167.2,176.3,167.2z"/>
<path id="path3639" class="st0" d="M264.2,185.8c1.3,0,4.3,1.4,1,1.9C263.2,186.3,263.4,185.8,264.2,185.8z"/>
<path id="path3641" class="st0" d="M155.7,186c0.8,0,1.2,0.1,0.7,0.7c-4.2,2-14.9-0.1-4.8,0.1C152.2,186.7,154.4,186,155.7,186z"/>
<path id="path3643" class="st0" d="M178.9,187.3c0.9,0,1.4,0.2,1,1c-4.4,0.8-15.8,0.9-5.6-0.2C175.1,188,177.5,187.3,178.9,187.3z"
	/>
<path id="path3645" class="st0" d="M189.7,198.2c-0.2,0.3-0.5,0.5-0.8,0.8c-4.9,2.4-7.4,9.1-13.3,8.9
	C181.5,206.6,184.5,198.4,189.7,198.2z"/>
<path id="path3647" class="st0" d="M149,199.4c0.5,0,1.2,0.2,2,0.6C147.9,204.6,146.1,199.4,149,199.4z"/>
<path id="path3649" class="st0" d="M136.5,200.5c0.1,0,0.2,0.1,0.2,0.3c-1.4,3.5-6.4,10.8-8.6,9.1
	C131.4,209,135.5,200.3,136.5,200.5z"/>
<path id="path3651" class="st0" d="M184.5,214.7c1.2,0,1.7,0.1-0.5,0.6c-4,1.7-11.1,0-3.1-0.2C181.4,215,183.3,214.8,184.5,214.7z"
	/>
<path id="path3653" class="st0" d="M137.2,215.1c0.4,0,0.7,0.2,0.7,0.7c-2.7,4.1-9,5.1-10.3,10.2c-0.6,2.9-6.9,8.8-7.5,7.1
	c7.3-3.8,6.7-13.6,15.2-15.8C135.1,216.4,136.3,215.2,137.2,215.1z"/>
<path id="path3655" class="st0" d="M159.5,223.9c2.1,3.2,7.9,2.1,8.6,4.9c-0.3,0-0.4-0.4-0.7-0.3
	C164.5,228.9,158.2,225.3,159.5,223.9z"/>
<path id="path3657" class="st0" d="M155.4,225.8c0.1-0.1,0.3,0.1,0.6,0.6c-1,7.5,4.9,13.2,8.1,17.4c-2.7,0.4-3.3,4.7-4,4.5
	c-2.7-4.3-1.6-11.5-4.7-16.7C155.9,230.8,155,226.1,155.4,225.8z"/>
<path id="path3659" class="st0" d="M143,273.4C141.5,278.6,141,270.6,143,273.4z"/>
<path id="path3661" class="st0" d="M132,256.6c4,3.8,8.8,8.6,7,14.2c1.4,6.2-1.9-1.2-4.8-2.2C135.5,263.9,126.2,260.2,132,256.6z"/>
<path id="path3663" class="st0" d="M132.3,266.8C134.9,272.2,129.6,266.4,132.3,266.8z"/>
<path id="path3665" class="st0" d="M137,290.6C139.7,295,134.6,290.3,137,290.6z"/>
<path id="path3667" class="st0" d="M126.9,274.2c6.9,0.7,5.7,9.2,7.5,12.3c2.3,2.9-1.3,4.7,1.4,6.8c1.3,4-1.4,6.7-6.3,5.9
	c-8.8-1.6-6.1-10-9.4-16.3C120.3,278.1,124.3,275,126.9,274.2z"/>
<path id="path3669" class="st0" d="M112.2,312.5C108.6,315.5,110.3,310.3,112.2,312.5z"/>
<path id="path3671" class="st0" d="M103.9,273.4c1.5,2.7-2.6,10.3-2.2,3.9C103.1,276,102.3,273.3,103.9,273.4z"/>
<path id="path3673" class="st0" d="M83.6,256.5c-1.2,7.7,5.2,14.1,5.3,21.2c-2.4,2.7-5.6,5.1-9.8,4.6c-0.7,8.2-10.4,0.9-3.1-2.2
	c2.7-3.6-7.2-7.6,0.6-9.6c-0.6-3.8-6.6,0.5-6.4,4.5c-4,6.4-9,1.9-4-2.9c2.3-2.6-0.6-4.5,0.9-7.9c0.1-2.2,6.5-4.6,6.2-3.5
	c-1,6,0.6,3.7,1.8-0.2C76.9,259.4,83.9,252.4,83.6,256.5z"/>
<path id="path3675" class="st0" d="M97.7,253c0.2,7.3-5,6.9-5.6,14.1c-9.9,3.4-8.7-17.3,2.8-13.6C95.6,253.4,97.5,252,97.7,253z"/>
<path id="path3677" class="st0" d="M145,268c1.5,6.1-5.7,2.9-0.3-0.6l0.2,0.2L145,268z"/>
<path id="path3679" class="st0" d="M171,311.9c0.4,0,1.3,0.6,1.3,1.2c-1.2,5.6-1.9,4.4-1.3-0.3C170.6,312.1,170.7,311.9,171,311.9z"
	/>
<path id="path4756" class="st0" d="M172.3,386.9c-2.5,4.2,0,8.2,1.8,10.3c-3.3,4.5-2.9,8.7-7.8,11.6c-0.7,2.8-6.9,5.5-7.3,7.4
	c-2.6-0.7-4.9-1.6-8.2,0.5c2-3.9,2.2-10.3,4.7-13.9c7.3-3.9,5.8-15.3,15.5-16.1C171.5,386,172.1,386.2,172.3,386.9z"/>
<path id="path4764" class="st0" d="M156.7,478c2.3-1.4,6.7,5.5,3.9,6.6C160,480.5,152.5,481.6,156.7,478z"/>
<path id="path4766" class="st0" d="M169.3,469.4c7.8-0.8,7.8,7.5,11.4,10.9c4.9-3.9,9.8,0.3,3.3,3.8c-4.8,2.2-7.3,8-10.8,10
	c-4,0.3-5.2-2.9-7.9-5.5c-3.3-4.9-4.6-11.8-2.9-17C165,471,166.5,469.9,169.3,469.4z"/>
<path id="line503" class="st0" d="M335.2,689.8c-5.7,1.1-4.4,10.1-11.8,7.3c-2.6-4-11.2-6.8-12.1-6.6c2.2-4.7,7.3-3,8.7-5.1
	c3.9-5.9,8.8,0.7,13.7,0.5C333.9,687.3,336.7,688.6,335.2,689.8z"/>
<g id="g6786" transform="matrix(0.496916,0,0,0.493415,-8385.902,-5007.009)">
	<g id="g6788" transform="translate(250.2893,-11.93883)">
	</g>
	<g id="g6790" transform="translate(-249.7107,-11.93883)">
	</g>
	<g id="g6792" transform="translate(250.2893,2224.366)">
	</g>
	<g id="g6794" transform="translate(-249.7107,2224.366)">
	</g>
	<g id="g6796" transform="translate(24.67765,-455.2513)">
	</g>
	<g id="g6798" transform="translate(24.67765,476.9432)">
	</g>
	<g id="g6800" transform="translate(24.67765,1299.573)">
	</g>
	<g id="g6802" transform="translate(-978.1,-455.2513)">
	</g>
	<g id="g6804" transform="translate(-978.1,476.9432)">
	</g>
	<g id="g6806" transform="translate(-978.1,1299.573)">
	</g>
	<g id="g6808" transform="translate(2.834646,-8.503938)">
		<g id="g6810">
		</g>
	</g>
</g>
<g id="g6812" transform="matrix(0.496916,0,0,0.493415,-8385.902,-5007.009)">
	<g id="g6814">
	</g>
</g>
<path class="st1" d="M254,337.5c-13.9,0-25.1,11.3-25.1,25.1c0,13.9,25.1,53.9,25.1,53.9s25.1-40.1,25.1-53.9
	C279.1,348.7,267.9,337.5,254,337.5z M254,375.5c-6.2,0-11.2-5-11.2-11.2c0-6.2,5-11.2,11.2-11.2c6.2,0,11.2,5,11.2,11.2
	C265.2,370.5,260.2,375.5,254,375.5z"/>
</svg>
