HTTP/1.1 200 OK
Date: Sat, 24 Nov 2018 07:53:56 GMT
Server: Apache
Last-Modified: Thu, 18 Jan 2018 11:02:44 GMT
ETag: "47f425a2-aea-5630ae73e5d00"
Accept-Ranges: bytes
Content-Length: 2794
Vary: User-Agent
Content-Type: image/svg+xml

<?xml version="1.0" encoding="utf-8"?>
<!-- Generator: Adobe Illustrator 22.0.1, SVG Export Plug-In . SVG Version: 6.00 Build 0)  -->
<svg version="1.1" id="Layer_1" xmlns="http://www.w3.org/2000/svg" xmlns:xlink="http://www.w3.org/1999/xlink" x="0px" y="0px"
	 viewBox="0 0 200 200" style="enable-background:new 0 0 200 200;" xml:space="preserve">
<style type="text/css">
	.st0{fill:#BC2A8D;}
	.st1{clip-path:url(#SVGID_2_);fill:#FFFFFF;}
	.st2{clip-path:url(#SVGID_4_);fill:#FFFFFF;}
	.st3{clip-path:url(#SVGID_6_);fill:#FFFFFF;}
</style>
<g>
	<g>
		<path class="st0" d="M0,0v200h200V0H0z"/>
	</g>
</g>
<g>
	<g>
		<defs>
			<rect id="SVGID_1_" x="39.5" y="37.5" width="125" height="125"/>
		</defs>
		<clipPath id="SVGID_2_">
			<use xlink:href="#SVGID_1_"  style="overflow:visible;"/>
		</clipPath>
		<path class="st1" d="M102,48.8c16.7,0,18.7,0.1,25.3,0.4c6.1,0.3,9.4,1.3,11.6,2.2c2.9,1.1,5,2.5,7.2,4.7s3.5,4.3,4.7,7.2
			c0.9,2.2,1.9,5.5,2.2,11.6c0.3,6.6,0.4,8.6,0.4,25.3s-0.1,18.7-0.4,25.3c-0.3,6.1-1.3,9.4-2.2,11.6c-1.1,2.9-2.5,5-4.7,7.2
			s-4.3,3.5-7.2,4.7c-2.2,0.9-5.5,1.9-11.6,2.2c-6.6,0.3-8.6,0.4-25.3,0.4s-18.7-0.1-25.3-0.4c-6.1-0.3-9.4-1.3-11.6-2.2
			c-2.9-1.1-5-2.5-7.2-4.7s-3.5-4.3-4.7-7.2c-0.9-2.2-1.9-5.5-2.2-11.6c-0.3-6.6-0.4-8.6-0.4-25.3s0.1-18.7,0.4-25.3
			c0.3-6.1,1.3-9.4,2.2-11.6c1.1-2.9,2.5-5,4.7-7.2s4.3-3.5,7.2-4.7c2.2-0.9,5.5-1.9,11.6-2.2C83.3,48.8,85.3,48.8,102,48.8
			 M102,37.5c-17,0-19.1,0.1-25.8,0.4C69.5,38.2,65,39.3,61,40.8c-4,1.6-7.5,3.7-11,7.2s-5.6,7-7.2,11.1c-1.5,4-2.6,8.5-2.9,15.2
			c-0.3,6.7-0.4,8.8-0.4,25.8s0.1,19.1,0.4,25.8c0.3,6.7,1.4,11.2,2.9,15.2c1.6,4.1,3.7,7.6,7.2,11.1s7,5.6,11.1,7.2
			c4,1.5,8.5,2.6,15.2,2.9c6.7,0.3,8.8,0.4,25.8,0.4s19.1-0.1,25.8-0.4c6.7-0.3,11.2-1.4,15.2-2.9c4.1-1.6,7.6-3.7,11.1-7.2
			s5.6-7,7.2-11.1c1.5-4,2.6-8.5,2.9-15.2c0.3-6.7,0.4-8.8,0.4-25.8s-0.1-19.1-0.4-25.8c-0.3-6.7-1.4-11.2-2.9-15.2
			c-1.6-4.1-3.7-7.6-7.2-11.1c-3.5-3.5-7-5.6-11.1-7.2c-4-1.5-8.5-2.6-15.2-2.9C121.1,37.6,119,37.5,102,37.5"/>
	</g>
	<g>
		<defs>
			<rect id="SVGID_3_" x="39.5" y="37.5" width="125" height="125"/>
		</defs>
		<clipPath id="SVGID_4_">
			<use xlink:href="#SVGID_3_"  style="overflow:visible;"/>
		</clipPath>
		<path class="st2" d="M102,67.9c-17.7,0-32.1,14.4-32.1,32.1s14.4,32.1,32.1,32.1s32.1-14.4,32.1-32.1S119.7,67.9,102,67.9
			 M102,120.8c-11.5,0-20.8-9.3-20.8-20.8s9.3-20.8,20.8-20.8s20.8,9.3,20.8,20.8S113.5,120.8,102,120.8"/>
	</g>
	<g>
		<defs>
			<rect id="SVGID_5_" x="39.5" y="37.5" width="125" height="125"/>
		</defs>
		<clipPath id="SVGID_6_">
			<use xlink:href="#SVGID_5_"  style="overflow:visible;"/>
		</clipPath>
		<path class="st3" d="M142.9,66.6c0,4.1-3.4,7.5-7.5,7.5s-7.5-3.4-7.5-7.5s3.4-7.5,7.5-7.5S142.9,62.5,142.9,66.6"/>
	</g>
</g>
</svg>
