HTTP/1.1 200 OK
Date: Sat, 24 Nov 2018 07:45:34 GMT
Server: Apache
Last-Modified: Fri, 29 Jun 2018 12:38:49 GMT
ETag: "8091922c-416-56fc721280840"
Accept-Ranges: bytes
Content-Length: 1046
Vary: User-Agent
Content-Type: image/svg+xml

<?xml version="1.0" encoding="utf-8"?>
<!-- Generator: Adobe Illustrator 22.0.1, SVG Export Plug-In . SVG Version: 6.00 Build 0)  -->
<svg version="1.1" id="Layer_1" xmlns="http://www.w3.org/2000/svg" xmlns:xlink="http://www.w3.org/1999/xlink" x="0px" y="0px"
	 viewBox="0 0 215.5 179" style="enable-background:new 0 0 215.5 179;" xml:space="preserve">
<style type="text/css">
	.st0{fill:#2AA9E0;}
</style>
<g>
	<path class="st0" d="M210.8,27.9c-7.4,3.3-15.4,5.5-23.8,6.5c8.6-5.1,15.1-13.3,18.2-23c-8,4.8-16.9,8.2-26.3,10.1
		c-7.6-8.1-18.4-13.1-30.3-13.1c-22.9,0-41.5,18.6-41.5,41.5c0,3.3,0.4,6.4,1.1,9.5C73.7,57.7,43.1,41.1,22.7,16
		C19.1,22.2,17,29.3,17,36.9c0,14.4,7.3,27.1,18.5,34.5c-6.8-0.2-13.2-2.1-18.8-5.2c0,0.2,0,0.3,0,0.5c0,20.1,14.3,36.9,33.3,40.7
		c-3.5,0.9-7.1,1.5-10.9,1.5c-2.7,0-5.3-0.3-7.8-0.7c5.3,16.5,20.6,28.5,38.8,28.8c-14.2,11.1-32.1,17.8-51.5,17.8
		c-3.3,0-6.7-0.2-9.9-0.6C27,166,48.8,172.8,72.2,172.8c76.3,0,118.1-63.2,118.1-118.1c0-1.8,0-3.6-0.1-5.4
		C198.2,43.5,205.3,36.2,210.8,27.9z"/>
</g>
</svg>
