HTTP/1.1 200 OK
Date: Sat, 24 Nov 2018 07:54:09 GMT
Server: Apache
Last-Modified: Mon, 23 Apr 2018 08:54:29 GMT
ETag: "4d6d3f45-489f-56a802f829b40"
Accept-Ranges: bytes
Content-Length: 18591
Vary: User-Agent
Content-Type: image/svg+xml

<svg xmlns="http://www.w3.org/2000/svg" xmlns:xlink="http://www.w3.org/1999/xlink" version="1.1" x="0px" y="0px" width="100px" height="100px" viewBox="0 0 100 100" enable-background="new 0 0 100 100" xml:space="preserve">

<symbol id="facebook" viewBox="0 0 200 200">
<g>
	<path class="st0" d="M186.3,2.2H13.9C8,2.2,3.2,7,3.2,12.9v172.4c0,5.9,4.8,10.7,10.7,10.7h92.8v-75.1H81.4V91.7h25.3V70.1
		c0-25,15.3-38.7,37.6-38.7c10.7,0,19.9,0.8,22.6,1.2v26.2l-15.5,0c-12.1,0-14.5,5.8-14.5,14.2v18.7h29l-3.8,29.3h-25.2V196h49.4
		c5.9,0,10.7-4.8,10.7-10.7V12.9C197,7,192.2,2.2,186.3,2.2z"/>
</g>
</symbol>

<symbol id="facebook-sq" viewBox="0 0 200 200">
<g>
	<path class="st0" d="M0,0v200h200V0H0z M132.4,58.4l-11.8,0c-9.2,0-11,4.4-11,10.8v14.2h22l-2.9,22.2h-19.1v57H86.7v-57H67.5V83.4
		h19.2V67c0-19,11.6-29.4,28.6-29.4c8.1,0,15.1,0.6,17.1,0.9V58.4z"/>
</g>
</symbol>

<symbol id="instagram" viewBox="0 0 200 200">
<path d="M101.14,20.12c26.12,0,29.22.1,39.53.57,9.54.44,14.72,2,18.17,3.37a30.31,30.31,0,0,1,11.25,7.32,30.31,30.31,0,0,1,7.32,11.25c1.34,3.45,2.93,8.63,3.37,18.17.47,10.32.57,13.41.57,39.53s-.1,29.22-.57,39.53c-.44,9.54-2,14.72-3.37,18.17a32.4,32.4,0,0,1-18.57,18.57c-3.45,1.34-8.63,2.93-18.17,3.37-10.31.47-13.41.57-39.53.57s-29.22-.1-39.53-.57c-9.54-.44-14.72-2-18.17-3.37a30.31,30.31,0,0,1-11.25-7.32A30.31,30.31,0,0,1,24.87,158c-1.34-3.45-2.93-8.63-3.37-18.17-.47-10.32-.57-13.41-.57-39.53s.1-29.22.57-39.53c.44-9.54,2-14.72,3.37-18.17a30.31,30.31,0,0,1,7.32-11.25,30.31,30.31,0,0,1,11.25-7.32c3.45-1.34,8.63-2.93,18.17-3.37,10.32-.47,13.41-.57,39.53-.57m0-17.63c-26.57,0-29.9.11-40.34.59S43.28,5.21,37.06,7.63A48,48,0,0,0,19.73,18.92,48,48,0,0,0,8.44,36.24C6,42.47,4.37,49.58,3.9,60s-.59,13.77-.59,40.34.11,29.9.59,40.34S6,158.19,8.44,164.41a48,48,0,0,0,11.28,17.33A48,48,0,0,0,37.06,193c6.22,2.42,13.33,4.07,23.75,4.55s13.77.59,40.34.59,29.9-.11,40.34-.59S159,195.44,165.22,193a50,50,0,0,0,28.61-28.61c2.42-6.22,4.07-13.33,4.55-23.75s.59-13.77.59-40.34-.11-29.9-.59-40.34-2.13-17.52-4.55-23.75a48,48,0,0,0-11.28-17.33A48,48,0,0,0,165.22,7.63C159,5.21,151.89,3.56,141.47,3.09s-13.77-.59-40.34-.59Z" transform="translate(-3.31 -2.5)"/><path d="M101.14,50.09a50.24,50.24,0,1,0,50.24,50.24A50.24,50.24,0,0,0,101.14,50.09Zm0,82.85a32.61,32.61,0,1,1,32.61-32.61A32.61,32.61,0,0,1,101.14,132.94Z" transform="translate(-3.31 -2.5)"/><circle cx="150.05" cy="45.61" r="11.74"/>
</symbol>

<symbol id="instagram-sq" viewBox="0 0 200 200">
<g>
	<g>
		<path class="st0" d="M0,0v200h200V0H0z M164.1,125.8c-0.3,6.7-1.4,11.2-2.9,15.2c-1.6,4.1-3.7,7.6-7.2,11.1s-7,5.6-11.1,7.2
			c-4,1.5-8.5,2.6-15.2,2.9c-6.7,0.3-8.8,0.4-25.8,0.4c-17,0-19.1-0.1-25.8-0.4c-6.7-0.3-11.2-1.4-15.2-2.9
			c-4.1-1.6-7.6-3.7-11.1-7.2s-5.6-7-7.2-11.1c-1.5-4-2.6-8.5-2.9-15.2c-0.3-6.7-0.4-8.8-0.4-25.8c0-17,0.1-19.1,0.4-25.8
			c0.3-6.7,1.4-11.2,2.9-15.2c1.6-4.1,3.7-7.6,7.2-11.1s7-5.6,11.1-7.2c4-1.5,8.5-2.6,15.2-2.9c6.7-0.3,8.8-0.4,25.8-0.4
			c17,0,19.1,0.1,25.8,0.4c6.7,0.3,11.2,1.4,15.2,2.9c4.1,1.6,7.6,3.7,11.1,7.2s5.6,7,7.2,11.1c1.5,4,2.6,8.5,2.9,15.2
			c0.3,6.7,0.4,8.8,0.4,25.8C164.5,117,164.4,119.1,164.1,125.8z"/>
	</g>
	<g>
		<path class="st0" d="M150.7,63.1c-1.1-2.9-2.5-5-4.7-7.2c-2.2-2.2-4.3-3.5-7.2-4.7c-2.2-0.9-5.5-1.9-11.6-2.2
			c-6.6-0.3-8.6-0.4-25.3-0.4s-18.7,0.1-25.3,0.4c-6.1,0.3-9.4,1.3-11.6,2.2c-2.9,1.1-5,2.5-7.2,4.7c-2.2,2.2-3.5,4.3-4.7,7.2
			c-0.9,2.2-1.9,5.5-2.2,11.6c-0.3,6.6-0.4,8.6-0.4,25.3c0,16.7,0.1,18.7,0.4,25.3c0.3,6.1,1.3,9.4,2.2,11.6c1.1,2.9,2.5,5,4.7,7.2
			c2.2,2.2,4.3,3.5,7.2,4.7c2.2,0.9,5.5,1.9,11.6,2.2c6.6,0.3,8.6,0.4,25.3,0.4s18.7-0.1,25.3-0.4c6.1-0.3,9.4-1.3,11.6-2.2
			c2.9-1.1,5-2.5,7.2-4.7c2.2-2.2,3.5-4.3,4.7-7.2c0.9-2.2,1.9-5.5,2.2-11.6c0.3-6.6,0.4-8.6,0.4-25.3c0-16.7-0.1-18.7-0.4-25.3
			C152.6,68.6,151.6,65.3,150.7,63.1z M102,132.1c-17.7,0-32.1-14.4-32.1-32.1c0-17.7,14.4-32.1,32.1-32.1
			c17.7,0,32.1,14.4,32.1,32.1C134.1,117.7,119.7,132.1,102,132.1z M135.4,74.1c-4.1,0-7.5-3.4-7.5-7.5c0-4.1,3.4-7.5,7.5-7.5
			c4.1,0,7.5,3.4,7.5,7.5C142.9,70.8,139.5,74.1,135.4,74.1z"/>
	</g>
	<g>
		<circle class="st0" cx="102" cy="100" r="20.8"/>
	</g>
</g>
</symbol>

<symbol id="linkedin" viewBox="0 0 200 200">
<g>
	<g>
		<path class="st0" d="M170.7,9H17.3C10,9,4,14.8,4,22v154.1c0,7.2,6,13,13.3,13h153.4c7.3,0,13.3-5.8,13.3-13V22
			C184,14.8,178.1,9,170.7,9z M57.4,162.4H30.7V76.5h26.7V162.4z M44.1,64.8c-8.6,0-15.5-6.9-15.5-15.5c0-8.5,6.9-15.5,15.5-15.5
			c8.5,0,15.5,6.9,15.5,15.5C59.5,57.8,52.6,64.8,44.1,64.8z M157.4,162.4h-26.7v-41.8c0-10-0.2-22.8-13.9-22.8
			c-13.9,0-16,10.9-16,22.1v42.5H74.1V76.5h25.6v11.7h0.4c3.6-6.8,12.3-13.9,25.3-13.9c27,0,32,17.8,32,40.9V162.4z"/>
	</g>
	<g>
		<path class="st0" d="M194,159c0.9-0.1,1.3-0.6,1.3-1.4c0-1-0.6-1.4-1.8-1.4h-1.9v5.1h0.7v-2.2h0.9l0,0l1.4,2.2h0.8L194,159
			L194,159z M193.1,158.5h-0.8v-1.7h1.1c0.6,0,1.2,0.1,1.2,0.8C194.5,158.5,193.9,158.5,193.1,158.5z"/>
		<path class="st0" d="M193.2,154c-2.7,0-4.8,2.1-4.8,4.8c0,2.7,2.1,4.8,4.8,4.8c2.7,0,4.8-2.1,4.8-4.8
			C198,156.1,195.9,154,193.2,154z M193.2,162.9c-2.3,0-4.1-1.8-4.1-4.2c0-2.3,1.8-4.2,4.1-4.2c2.3,0,4.1,1.8,4.1,4.2
			C197.3,161.1,195.5,162.9,193.2,162.9z"/>
	</g>
</g>
</symbol>

<symbol id="linkedin-sq" viewBox="0 0 200 200">
<g>
	<g>
		<rect x="60.3" y="86.4" class="st0" width="17.9" height="54"/>
	</g>
	<g>
		<path class="st0" d="M69.4,60.4c-6.1,0-10.1,4-10.1,9.3c0,5.2,3.9,9.3,9.9,9.3h0.1h0c6.3,0,10.1-4.1,10.1-9.3
			C79.3,64.4,75.5,60.4,69.4,60.4z"/>
	</g>
	<g>
		<path class="st0" d="M0,0v200h200V0H0z M161,151.2c0,4.7-3.9,8.6-8.8,8.6H51c-4.8,0-8.8-3.8-8.8-8.6V48.9c0-4.7,3.9-8.6,8.8-8.6
			h101.2c4.8,0,8.8,3.8,8.8,8.6V151.2z"/>
	</g>
	<g>
		<path class="st0" d="M122.3,85.1c-9.5,0-13.8,5.2-16.2,8.9v-7.6H88.2c0.2,5.1,0,54,0,54h17.9v-30.1c0-1.6,0.1-3.2,0.6-4.4
			c1.3-3.2,4.2-6.6,9.2-6.6c6.5,0,9.1,4.9,9.1,12.2v28.9h17.9v-30.9C142.9,92.8,134.1,85.1,122.3,85.1z"/>
	</g>
</g>
</symbol>

<symbol id="tsr" viewBox="0 0 200 200">
<g>
	<g>
		<path class="st0" d="M66.8,121.3c-0.9-0.7-2.1-0.5-3.2-0.4c-1,0.5-2,1.3-2.4,2.3l0,0c-0.3,1-0.4,2,0,2.9c0.7,2,3.2,3.2,5.2,2.3
			c1.9-0.8,2.9-3,2.3-4.9C68.2,122.7,67.7,121.8,66.8,121.3z"/>
	</g>
	<g>
		<path class="st0" d="M41.5,113.3c-1.9,0-3.9,0-5.8,0c-0.1,1.4,0,2.7,0,4.1c0,0.5,0,1,0,1.5c1.4,0,2.7,0,4.1,0
			c0.8,0.1,1.7,0.1,2.5-0.1c1.5-0.3,2.6-2,2.1-3.5C44,114,42.7,113.3,41.5,113.3z"/>
	</g>
	<g>
		<path class="st0" d="M130.3,85.9c-0.3-1.2-1.4-2.1-2.6-2.3c-1.7-0.3-3.4,0.7-3.9,2.3C125.9,86,128.1,85.9,130.3,85.9z"/>
	</g>
	<g>
		<path class="st0" d="M90.6,49.5c-0.2-1.1-1.1-2-2.1-2.2c-1.7-0.6-3.9,0.4-4.3,2.2C86.3,49.5,88.4,49.5,90.6,49.5z"/>
	</g>
	<g>
		<path class="st0" d="M108.1,87.8c-0.1-1.8-1.5-3.4-3.2-3.8c-1.9-0.3-4,0.9-4.5,2.8c-0.8,2.1,0.6,4.7,2.9,5.2
			C105.7,92.7,108.3,90.4,108.1,87.8z"/>
	</g>
	<g>
		<path class="st0" d="M85,123L85,123c-0.4,1.1-0.6,2.2-0.2,3.3c0.8,2.1,3.4,3.2,5.4,2.1c2.4-1,2.9-4.5,1.1-6.3
			C89.7,120.1,86,120.6,85,123z"/>
	</g>
	<g>
		<path class="st0" d="M198.8,81.9c-0.6-5.2-1.9-10.5-4.1-15.3c-3.5-7.8-9.5-14.4-16.7-19.1c-9.3-6.1-20.2-9.2-31.2-10.8
			C140,36,133.3,35,126.5,35h-0.1c-2.5-5.3-6.2-10.3-10.9-13.9c-5.3-4-11.3-7-17.5-9.2c-8.9-3.2-18.3-4.8-27.7-5.5
			c-6.2-0.3-12.5-0.2-18.7,1C41,9.3,30.6,14,22.8,21.7c-6.3,6-10.8,13.7-13.7,21.9c-1.5,4.3-2.6,8.8-3.6,13.3
			c-1,5.1-1.7,10.3-1.6,15.5c-0.1,5.8,1.5,11.5,4,16.7c2.7,5.6,6.1,10.8,10.5,15.2c0,0.5,0,1-0.1,1.6c-0.9,5-1.2,10.2-0.9,15.3
			c0.5,7,2.2,14.1,6.2,20c2.6,3.7,5.6,7.2,9.1,10.2c8,7,18.3,11.1,28.8,12.4c5.4,0.7,10.9,1.4,15.9,3.7c2.5,1.2,5.1,3.1,5.8,6
			c0.4,2,0.2,4.2-1.1,5.9c-1.7,2.1-4.3,3.3-6.9,4.1c2.7,0.2,5.4-0.2,8-0.6c10.8-1.7,21.3-5.1,31.3-9.6c5.7-2.7,11.3-5.8,16.3-9.7
			c6.8-5.4,13.2-11.6,17.4-19.2c4.8-0.7,9.6-1.4,14.3-2.8c3.8-1.1,7.5-2.7,10.9-4.7c4.7-2.6,9.1-5.7,12.8-9.6
			c5.9-6,9.7-13.9,11.3-22.2C199.1,97.4,199.2,89.6,198.8,81.9z M118.3,82.7c2.5-4.3,8.4-6,12.9-4.1c4,1.6,6.4,6.2,5.8,10.4
			c-0.1,0.3-0.4,0.5-0.6,0.7c-4.2,0-8.4,0-12.7,0c0.2,2.6,3.5,3.9,5.6,2.6c1.2-0.5,1.6-2.1,2.9-2.3c1.5,1.1,3.4,1.8,4.6,3.2
			c-0.5,1-1,2.1-1.9,2.8c-2.3,2.1-5.6,2.8-8.7,2.6c-2.1-0.2-4.3-0.9-5.9-2.3C116.3,93.3,115.6,87,118.3,82.7z M79.2,45.2
			c2.9-3.9,8.7-5,13-2.8c3.5,1.8,5.5,5.9,5.1,9.8c0,0.5-0.4,1-1,0.9c-4.1,0-8.3,0-12.4,0c0.2,1.8,1.8,3.3,3.7,3.1
			c1.9,0.1,3.2-1.4,4.2-2.7c1.2,0,2,0.8,3,1.4c0.7,0.5,1.5,0.8,2,1.4c0.3,0.8-0.4,1.6-0.8,2.3c-1.5,1.9-3.9,3-6.3,3.4
			c-2.2,0.4-4.5,0.2-6.6-0.7c-2-0.8-3.8-2.4-4.8-4.3c-0.5-1-0.8-2-1.1-3.1C76.7,51,77.3,47.7,79.2,45.2z M53.9,33.9
			c0.9-0.2,1.9-0.1,2.8-0.1c1,0,2.1-0.1,3.1,0.1c0.5,0.2,0.5,0.8,0.5,1.2c0,2.7,0,5.5,0,8.2c2.9-2.3,7.2-2.7,10.5-0.9
			c2.4,1.3,3.6,4,3.9,6.6c0.2,2.6,0,5.2,0.1,7.9c0,0.1,0,0.3,0,0.3c0,1.1,0,2.3,0,3.4c0,0.4-0.1,0.7-0.4,0.9c-1.8,0.1-3.6,0.1-5.3,0
			c-0.5,0-0.8-0.2-1.2-0.5c0-1.1,0-2.2,0-3.3c0-2,0-4,0-5.9c0-0.9-0.1-1.9-0.7-2.6c-1.3-2.2-5.1-2.1-6.3,0.2c-0.5,0.9-0.6,2-0.6,3
			c0,2.3,0,4.5,0,6.8c0,0.6,0,1.3-0.1,1.9c-0.3,0.5-0.9,0.4-1.4,0.4c-1.4,0-2.8,0-4.2,0c-0.4,0-0.8-0.2-1.2-0.4
			c-0.1-8.6,0-17.3,0-25.9C53.5,34.9,53.4,34.2,53.9,33.9z M25.8,40c0.2-2-0.3-4.1,0.3-6c0.5-0.1,0.9-0.2,1.4-0.2
			c7.6,0,15.1,0,22.7,0c0.6-0.1,1.3,0.4,1.2,1.1c0,1.6,0,3.2,0,4.8c0,0.5-0.4,1-0.9,0.9c-2.7,0-5.4,0-8,0c-0.1,6.6,0,13.2,0,19.9
			c0,0.5-0.3,1.3-0.9,1.2c-1.9,0-3.9,0.1-5.8,0c-0.5,0-0.8-0.5-0.7-1c0-6.3,0-12.7,0-19c0-0.4-0.1-0.8-0.2-1.1c-2.7,0-5.4,0-8.1,0
			C26.3,40.6,26.1,40.2,25.8,40z M28.8,91.3c1-0.7,1.9-1.7,3-2.3c1.1-0.4,1.7,0.7,2.4,1.3c1.6,1.6,4,2.4,6.2,1.7
			c0.7-0.4,1.3-1,1.2-1.9c-0.1-0.8-0.7-1.3-1.4-1.6c-1.7-0.8-3.6-1.2-5.4-1.8c-2-0.7-3.9-1.8-5.1-3.5c-0.9-1.3-1.3-2.8-1.4-4.4
			c-0.1-2.2,0.6-4.4,2.1-6c1.9-2,4.6-3,7.2-3.1c3.6-0.3,7.5,0.7,10,3.5c0.6,0.6,1.1,1.6,0.4,2.3c-1,1-2.1,2-3.2,2.9
			c-0.5,0.5-1.5,0.7-2,0.1c-0.9-0.9-1.9-1.9-3.3-2.1c-1.1-0.1-2.4-0.2-3.2,0.7c-0.7,0.7-0.4,1.9,0.4,2.4c1.9,1.2,4.1,1.6,6.1,2.3
			c1.9,0.6,3.8,1.6,5,3.3c2.1,2.8,2,7-0.1,9.8c-1.3,1.8-3.3,2.9-5.4,3.5c-3.8,1-7.9,0.6-11.4-1.1c-1.5-0.8-3.1-2-3.7-3.7
			C27.2,92.5,28.2,91.8,28.8,91.3z M53.3,134.7c-2.4,0-4.7,0-7.1,0c-0.8,0-1.1-0.7-1.4-1.3c-1.2-2.8-2.5-5.6-3.8-8.5
			c-1.8,0-3.6,0-5.4,0c-0.1,2.9,0,5.7,0,8.6c0,0.5-0.2,1.2-0.8,1.2c-1.8,0.1-3.7,0-5.5,0c-0.6,0.1-1-0.6-0.9-1.2
			c0-6.5,0-12.9,0-19.4c0-1.9,0-3.8,0-5.7c0-0.5-0.1-1,0.3-1.4c0.4-0.3,0.9-0.2,1.4-0.2c4.2,0,8.4,0,12.7,0c3,0,6.1,1.3,7.8,3.9
			c2.2,3.2,1.9,8-1.1,10.7c-0.5,0.5-1.1,0.8-1.7,1.2c1.3,3,3,5.9,4.5,8.8C52.7,132.5,53.7,133.4,53.3,134.7z M53.4,84.4
			c-1.1-0.2-2.5,0.4-3.4-0.6c0-1.6,0-3.3,0-4.9c0.9-0.9,2.3-0.4,3.4-0.5c0-1.7-0.1-3.4,0-5c0-0.5,0.5-0.7,0.9-0.7c1.6,0,3.2,0,4.8,0
			c0.4,0,0.8,0.2,1.2,0.5c0,1.8,0,3.5,0,5.3c1.8,0,3.6,0,5.4,0c0.5,0,1,0.2,1.1,0.8c0.1,1.5,0,3,0,4.4c-0.1,0.3-0.3,0.5-0.5,0.8
			c-2,0-4-0.1-6,0c0,2,0,4.1,0,6.1c0,0.8,0.6,1.6,1.4,1.5c0.9,0.1,1.6-0.6,2.4-0.8c0.7-0.2,1.1,0.5,1.5,1c0.6,1,1.5,1.9,2,3
			c0.2,1.1-1.1,1.8-1.9,2.3c-2.8,1.2-6.1,1.5-8.9,0.2c-2.2-1.1-3.4-3.5-3.5-5.9C53.4,89.3,53.4,86.9,53.4,84.4z M75.1,128.5
			c-1.1,2.7-3.4,5-6.1,6c-1.8,0.7-3.7,0.9-5.6,0.7c-3.8-0.4-7.3-3-8.7-6.5c-0.8-2-0.9-4.2-0.5-6.2c0.8-3.2,3.2-6,6.3-7.2
			c2.6-1.1,5.6-1.1,8.2-0.2c3.7,1.3,6.7,4.8,7,8.8C75.7,125.4,75.7,127,75.1,128.5z M71.7,96.7c-1.8-1.7-2.5-4.3-2.5-6.7
			c0-3.5,0-7.1,0-10.6c0-0.5,0.3-0.9,0.8-0.9c1.7-0.1,3.3,0,5,0c0.4,0,0.8,0.2,1.1,0.4c0,3.4,0,6.9,0,10.3c0,1.2,0.4,2.5,1.5,3.2
			c0.8,0.5,1.9,0.4,2.8,0.4c1.6-0.2,2.9-1.7,2.8-3.3c0-3.3,0-6.7,0-10c-0.1-0.7,0.6-1,1.2-1c1.7,0,3.3-0.1,5,0
			c0.6,0,0.8,0.7,0.7,1.2c0,5.9,0,11.8,0,17.7c0,0.4-0.3,0.6-0.6,0.9c-1.7-0.1-3.4,0-5.2,0c-0.4,0-0.7-0.2-1.1-0.3
			c0-0.4-0.1-0.7-0.1-1.1c-1.3,1.2-2.9,1.9-4.6,2C76.2,99,73.5,98.4,71.7,96.7z M98.9,127.9c-0.9,3-3.4,5.5-6.3,6.6
			c-1.9,0.8-4,0.9-6.1,0.6c-3.6-0.6-6.9-3.1-8.3-6.5c-0.6-1.6-0.9-3.3-0.7-4.9c0.3-2.7,1.7-5.3,3.8-7c2.5-2,5.9-2.8,9.1-2.2
			c3.3,0.6,6.2,2.7,7.7,5.6C99.5,122.5,99.7,125.4,98.9,127.9z M94.2,92.9c-2-4.4-1.1-10.3,2.9-13.3c3.1-2.4,8.1-3,11.1-0.2
			c0.1-2.9,0-5.9,0-8.8c0.3-1.1,1.7-0.6,2.5-0.7c1.4,0.2,3-0.4,4.3,0.4c0,9.1,0,18.1,0,27.2c-0.3,0.2-0.5,0.5-0.9,0.5
			c-1.8,0-3.6,0-5.4,0c-0.6-0.2-0.6-0.9-0.6-1.4c-1.7,1.9-4.4,2.3-6.7,1.9C98.2,97.9,95.5,95.7,94.2,92.9z M137.7,132.9
			c0,0.6,0,1.8-0.9,1.7c-2,0-3.9,0-5.9,0c-0.4-1.2-0.2-2.4-0.3-3.6c0-2.2,0-4.4,0-6.6c0-1.3-0.7-2.6-1.8-3.3
			c-1.5-0.9-3.6-0.5-4.7,0.7c-0.7,0.7-0.9,1.8-1,2.8c0,3,0,6,0,9c0,0.5-0.3,1-0.8,0.9c-1.7,0-3.5,0-5.2,0c-0.5,0-1-0.4-0.9-0.9
			c0-3,0-6,0-9c0-1.2-0.5-2.5-1.4-3.2c-1.5-1.1-3.8-1-5.1,0.3c-0.9,0.9-1.1,2.2-1.1,3.4c0,2.8,0,5.6,0,8.4c0,0.4-0.1,0.9-0.5,0.9
			c-1.8,0.1-3.6,0-5.5,0c-0.7,0.1-1-0.6-0.9-1.2c0-6,0-12,0-18c0.4-0.7,1.3-0.5,2-0.5c1.6,0.1,3.2-0.2,4.8,0.2
			c0,0.4,0.1,0.8,0.1,1.2c3.6-2.9,9.7-2.7,12.4,1.2c1.2-1.3,2.7-2.4,4.4-2.8c2.7-0.7,5.8-0.5,8.3,1c2.3,1.5,3.6,4.2,3.8,6.9
			C137.9,126.1,137.7,129.5,137.7,132.9z M160.9,97.1c0.1,0.5-0.3,1-0.8,1.1c-1.6,0.1-3.2,0-4.8,0c-0.5,0-1.4-0.1-1.3-0.8
			c-0.1-3.1,0-6.2-0.1-9.3c0-1-0.3-2-1-2.7c-1.4-1.6-4.4-1.5-5.7,0.2c-0.8,1-0.9,2.3-0.9,3.6c0,2.4,0,4.8,0,7.2
			c0,0.5-0.1,1.1-0.2,1.6c-1.9,0.4-3.8,0.1-5.7,0.2c-0.8,0.1-1.2-0.7-1.1-1.4c0-4.1,0-8.2,0-12.3c0.1-2-0.2-4.1,0.3-6
			c1.6-0.2,3.2-0.1,4.8-0.1c0.5,0,1.1,0,1.6,0.2c0.2,0.4,0.3,0.8,0.4,1.2c2.2-2,5.3-2.3,8.1-1.8c1.8,0.4,3.4,1.4,4.5,2.9
			c1.4,2,1.8,4.5,1.9,6.9C160.9,90.9,161,94,160.9,97.1z M176.7,98.1c-2.4,0.7-5,0.8-7.3-0.2c-1.9-0.8-3.2-2.7-3.5-4.7
			c-0.5-2.9-0.1-5.9-0.3-8.8c-0.9,0-1.9,0.1-2.8-0.1c-0.5-0.4-0.4-1.1-0.4-1.7c0-1.1,0-2.3,0-3.4c0-0.4,0.3-0.7,0.7-0.7
			c0.8-0.1,1.7,0,2.6-0.1c0.1-1.8-0.2-3.7,0.2-5.5c1.5-0.6,3.1-0.1,4.6-0.3c0.7,0.1,1.9-0.3,2.2,0.6c0.2,1.7,0,3.4,0.1,5.1
			c1.7,0,3.4,0,5.2,0c0.4,0,0.8,0.2,1.2,0.4c0,1.7,0.1,3.4,0,5.1c-0.3,0.6-0.9,0.4-1.4,0.5c-1.6,0-3.2,0-4.9,0c-0.1,2,0,4.1,0,6.1
			c-0.1,0.8,0.6,1.7,1.5,1.5c1.1,0.2,1.8-1.1,2.9-0.8c0.4,0.3,0.7,0.7,1,1.2c0.7,1,1.5,2,2.1,3.1C179.5,96.9,178,97.6,176.7,98.1z"
			/>
	</g>
</g>
</symbol>

<symbol id="twitter"  viewBox="0 0 200 200">
<g>
	<path class="st0" d="M199,38c-7.2,3.2-15.1,5.4-23.3,6.4c8.4-5,14.8-13,17.8-22.5c-7.8,4.7-16.5,8-25.7,9.9
		c-7.4-7.9-18-12.8-29.7-12.8c-22.4,0-40.6,18.2-40.6,40.6c0,3.2,0.4,6.3,1.1,9.3c-33.8-1.7-63.7-17.9-83.7-42.5
		c-3.5,6.1-5.6,13-5.6,20.5c0,14.1,7.1,26.5,18.1,33.8c-6.7-0.2-12.9-2.1-18.4-5.1c0,0.2,0,0.3,0,0.5c0,19.7,14,36.1,32.6,39.8
		c-3.4,0.9-6.9,1.5-10.7,1.5c-2.6,0-5.2-0.3-7.6-0.7c5.2,16.1,20.2,27.9,38,28.2c-13.9,10.9-31.4,17.4-50.4,17.4
		c-3.2,0-6.6-0.2-9.7-0.6c17.9,11.5,39.2,18.2,62.1,18.2c74.7,0,115.6-61.9,115.6-115.6c0-1.8,0-3.5-0.1-5.3
		C186.6,53.3,193.6,46.1,199,38z"/>
</g>
</symbol>

<symbol id="twitter-sq"  viewBox="0 0 200 200">
<g>
	<path class="st0" d="M0,0v200h200V0H0z M151.8,73.5c0.1,1.1,0.1,2.2,0.1,3.3c0,34-25.9,73-73,73c-14.5,0-28-4.2-39.3-11.5
		c2,0.2,4.1,0.4,6.1,0.4c12,0,23.1-4.1,31.9-11c-11.3-0.2-20.7-7.6-24-17.8c1.5,0.2,3.2,0.4,4.8,0.4c2.4,0,4.6-0.4,6.7-0.9
		C53.3,107,44.5,96.6,44.5,84.2c0-0.1,0-0.2,0-0.3c3.5,1.9,7.4,3.1,11.6,3.2c-6.9-4.6-11.4-12.4-11.4-21.3c0-4.7,1.3-9.1,3.5-12.9
		c12.6,15.5,31.5,25.8,52.9,26.8c-0.4-1.9-0.7-3.8-0.7-5.9c0-14.2,11.5-25.7,25.7-25.7c7.4,0,14,3.1,18.7,8.1
		c5.8-1.2,11.3-3.3,16.3-6.2c-1.9,6-5.9,11.1-11.3,14.2c5.2-0.6,10.1-2,14.7-4C161.1,65.4,156.7,69.9,151.8,73.5z"/>
</g>
</symbol>

<symbol id="wechat"  viewBox="0 0 200 200">
<g id="XMLID_442_">
	<path id="XMLID_447_" class="st0" d="M159.6,117.1c-4.4,0-8-3.6-8-8c0-4.4,3.6-8,8-8c4.4,0,8,3.6,8,8
		C167.6,113.6,164,117.1,159.6,117.1 M119.6,117.1c-4.4,0-8-3.6-8-8c0-4.4,3.6-8,8-8c4.4,0,8,3.6,8,8
		C127.6,113.6,124,117.1,119.6,117.1 M178.8,162.9c12.6-9.2,20.7-22.7,20.7-37.8c0-27.6-26.8-50-59.9-50c-33.1,0-59.9,22.4-59.9,50
		c0,27.6,26.8,50,59.9,50c6.8,0,13.4-1,19.6-2.7c0.6-0.2,1.1-0.3,1.8-0.3c1.1,0,2.2,0.3,3.2,0.9l13.1,7.6c0.4,0.2,0.7,0.4,1.2,0.4
		c1.1,0,2-0.9,2-2c0-0.5-0.2-1-0.3-1.5c-0.1-0.3-1.7-6.3-2.7-10.1c-0.1-0.4-0.2-0.8-0.2-1.3C177.1,164.8,177.8,163.6,178.8,162.9"/>
	<path id="XMLID_443_" class="st0" d="M96.4,70.4c-5.3,0-9.6-4.3-9.6-9.6s4.3-9.6,9.6-9.6s9.6,4.3,9.6,9.6S101.7,70.4,96.4,70.4
		 M48.5,70.4c-5.3,0-9.6-4.3-9.6-9.6s4.3-9.6,9.6-9.6c5.3,0,9.6,4.3,9.6,9.6S53.8,70.4,48.5,70.4 M72.5,20C32.7,20,0.5,46.9,0.5,80
		c0,18.1,9.7,34.3,24.9,45.3c1.2,0.9,2,2.3,2,3.9c0,0.5-0.1,1-0.3,1.5c-1.2,4.5-3.1,11.8-3.2,12.1c-0.2,0.6-0.4,1.2-0.4,1.8
		c0,1.3,1.1,2.4,2.4,2.4c0.5,0,0.9-0.2,1.4-0.4l15.8-9.1c1.2-0.7,2.4-1.1,3.8-1.1c0.7,0,1.4,0.1,2.1,0.3c7.3,2.1,15.3,3.3,23.5,3.3
		c1.3,0,2.6,0,4-0.1c-1.6-4.7-2.4-9.6-2.4-14.7c0-30.2,29.4-54.7,65.6-54.7c1.3,0,2.6,0,3.9,0.1C138.1,41.9,108.3,20,72.5,20"/>
</g>
</symbol>

<symbol id="weibo"  viewBox="0 0 200 200">
<path class="st0" d="M198.8,63.5c0.8,11-1,24.2-8.3,24.9c-11.9,1.1-5.7-12-5.5-19.9c0.4-22.8-19.1-38.7-38.2-38.7
	c-5.4,0-18,3.7-16-7.7c0.9-5,5.1-5,9.4-5.5C172.3,12.2,196.6,34.3,198.8,63.5z"/>
<path class="st0" d="M146.3,90.1c13.8,7.6,30.4,11.3,27.7,33.7c-0.7,5.4-3.9,12.6-7.2,17.1C143.4,173.6,73,187.4,29,162.5
	C14.2,154.2-1,142,1.3,117.7c2-20.9,16.1-37.1,29.9-50.9c13.2-13.2,27-23.5,45.9-28.2c20.5-5.2,26.5,11.9,21,28.8
	c11.9-0.8,37-14,48.1-1.1C151.2,72,149.3,82.2,146.3,90.1z M131.3,143.2c4.4-5,8.9-12.7,8.8-21.6c-0.1-27.5-34.7-37.6-61.9-35.4
	c-14.9,1.2-24.9,4.4-35.4,10.5c-8.5,5-18.5,13.2-21,25.4c-5.6,27.6,24.4,40.6,46.5,42C93.7,165.9,119.2,156.9,131.3,143.2z"/>
<path class="st0" d="M171.7,63.5c1.2,8.4-1.3,15.7-6.1,16c-8.1,0.5-5-5.5-5.5-12.7c-0.3-4.4-4-9.6-7.2-11.1c-6.3-2.9-16,2.1-16-6.6
	c0-6.5,5.7-5.8,8.9-6.1C159.7,42,170.1,51.7,171.7,63.5z"/>
<path class="st0" d="M107,118.8c11.8,35.6-49.6,52.2-60.8,21.6c-7.5-20.5,10.5-36.7,29.3-38.7C91.5,100,103.5,108.2,107,118.8z
	 M78.8,124.9c2.5,4.3,8.2,1.2,7.7-2.2C85.9,118.8,78.7,119.3,78.8,124.9z M68.8,143.7c10.3-2.5,11.7-21.9-3.9-18.3
	C51.9,128.5,54.4,147.2,68.8,143.7z"/>
</symbol>

<symbol id="youtube"  viewBox="0 0 200 200">
<path class="st0" d="M193.9,48.2c-2.2-8.4-8.9-15-17.3-17.3c-15.3-4.1-76.5-4.1-76.5-4.1s-61.2,0-76.5,4.1
	c-8.4,2.2-15,8.9-17.3,17.3C2.2,63.5,2.2,95.4,2.2,95.4s0,31.9,4.1,47.1c2.2,8.4,8.9,15,17.3,17.3c15.3,4.1,76.5,4.1,76.5,4.1
	s61.2,0,76.5-4.1c8.4-2.2,15-8.9,17.3-17.3c4.1-15.3,4.1-47.1,4.1-47.1S198,63.5,193.9,48.2z M80.6,124.7V66l50.9,29.4L80.6,124.7z"
	/>
</symbol>

<symbol id="youtube-sq"  viewBox="0 0 200 200">
<g>
	<g>
		<polygon class="st0" points="89.8,116.7 121.9,98.2 89.8,79.6 		"/>
	</g>
	<g>
		<path class="st0" d="M0,0v200h200V0H0z M161.4,127.9c-1.4,5.3-5.6,9.5-10.9,10.9c-9.6,2.6-48.4,2.6-48.4,2.6s-38.7,0-48.4-2.6
			c-5.3-1.4-9.5-5.6-10.9-10.9c-2.6-9.6-2.6-29.8-2.6-29.8s0-20.1,2.6-29.8c1.4-5.3,5.6-9.5,10.9-10.9c9.7-2.6,48.4-2.6,48.4-2.6
			s38.7,0,48.4,2.6c5.3,1.4,9.5,5.6,10.9,10.9C164,78,164,98.2,164,98.2S164,118.3,161.4,127.9z"/>
	</g>
</g>
</symbol>

</svg>