HTTP/1.1 200 OK
Date: Sat, 24 Nov 2018 07:52:49 GMT
Server: Apache
Last-Modified: Mon, 02 Oct 2017 16:27:58 GMT
ETag: "47f4258a-74ae-55a92db81df80"
Accept-Ranges: bytes
Content-Length: 29870
Vary: User-Agent
Content-Type: image/svg+xml

<svg xmlns="http://www.w3.org/2000/svg" viewBox="0 0 152.19 200"><defs><style>.cls-1{fill:#b0b7bc;}.cls-2{fill:#b5121b;}.cls-3{fill:#fff;}</style></defs><title>Asset 1</title><g id="Layer_2" data-name="Layer 2"><g id="Layer_1-2" data-name="Layer 1"><path class="cls-1" d="M152.19,65.83V80.45c0,27.25-12.9,87.45-76.06,119.55C12.9,168,0,107.7,0,80.45V65.83Z"/><path class="cls-2" d="M76.13,0S125.8-.76,152.19,10.1V65.83H0V10.1C26.46-.68,76.13,0,76.13,0"/><path class="cls-3" d="M16.53,16.33a3.11,3.11,0,0,0-.37.08,1.29,1.29,0,0,1,.44-.46,1.8,1.8,0,0,1,1.33-.54,2.72,2.72,0,0,1,1.7.69c-.07.08-.22.15-.3.23a1.77,1.77,0,0,0-.52.54,2.17,2.17,0,0,0-1.56-.54A1.21,1.21,0,0,0,16.53,16.33Zm1.56,4.77a2.61,2.61,0,0,0-1-.15,1.84,1.84,0,0,0-1.63.85,2.64,2.64,0,0,0-.44.92c.07-.08.22-.15.3-.23A2.72,2.72,0,0,1,16.83,22c.3,0,.52.08.67.08a6.13,6.13,0,0,1,.59-1Zm.52-2.69a.24.24,0,0,0-.07.15h0v.08c0,.08-.07.15-.07.31a.76.76,0,0,0,.44.69c.44.23,1.26.85,1.93,1.31a4.44,4.44,0,0,1,1.11-1.77l-1-2.08h0V17l-.07-.15a.56.56,0,0,0-.37-.15,1,1,0,0,0-.52.23A7.35,7.35,0,0,0,18.61,18.41Zm3.78,35.72a3.35,3.35,0,0,0-.3,1.39v.08c0-.08.07-.15.15-.23A3.13,3.13,0,0,1,23.72,54c-.07-.31-.15-.69-.22-1A2.73,2.73,0,0,0,22.39,54.13Zm2-24.94c1,.85,1.56,1.08,1.85,1.08a.56.56,0,0,0,.52-.31c.07-.15.22-.31.37-.54a1.18,1.18,0,0,0,.15-.69,2.7,2.7,0,0,0-.3-1.23h0c-.07-.23-2.3-5.47-2.89-7.54a6.88,6.88,0,0,0-.15-.77l-.07-.08h-.15a1.16,1.16,0,0,0-.59.23,3.86,3.86,0,0,0-1.85,3.46A10.12,10.12,0,0,0,24.39,29.19Zm-3.85-6.93V22c0-.15-.82-.46-.89-.46a.94.94,0,0,0-1,.23A3.19,3.19,0,0,0,18,23.34a.89.89,0,0,0,.22.62,2.13,2.13,0,0,0,.74.46c.67.23,1.33.38,1.93.62a8.34,8.34,0,0,1-.37-2.31ZM24,13.71h.22a2.51,2.51,0,0,1,.89.23A2.58,2.58,0,0,0,24.24,12a2.06,2.06,0,0,0-1.41-.46h-.3c.07.08.22.15.3.23A3.35,3.35,0,0,1,24,13.71Zm-1.93,2.85a5.12,5.12,0,0,0,.3,1,7.36,7.36,0,0,1,.3,1c.07,0,.07-.08.15-.08h0a2.35,2.35,0,0,1,1-.31.91.91,0,0,1,.44.08,8.83,8.83,0,0,1,.37-1,5,5,0,0,0,.3-1.08v-.54a1.07,1.07,0,0,0-.15-.69.58.58,0,0,0-.59-.31.91.91,0,0,0-.44.08c-.52.15-1.26.31-1.56.85a1.17,1.17,0,0,0-.07,1Zm9,1a3,3,0,0,0,.67-1.77,2.26,2.26,0,0,0-.52-1.39,2.49,2.49,0,0,0-.44-.46,3.45,3.45,0,0,1,.07.38,2.21,2.21,0,0,1,.07.69,2.82,2.82,0,0,1-.52,1.62ZM48.18,14h0a2,2,0,0,1,.37-.92c.22-.31.59-.69.44-1.08-.07-.23-.37-.38-.37-.69a.43.43,0,0,1,.22-.38,1.47,1.47,0,0,1,.59-.31c.67-.23,2.74-1,2.74-1,.22-.23.3-.38.52-.62a2.81,2.81,0,0,1,1.56-.62c2.15-.46,8.08-.85,8.6-.92a1.18,1.18,0,0,1,.67.31,7.56,7.56,0,0,1,1,1.15c.15.15.3.38.37.46a1,1,0,0,0,.15.23l.07.15.07-.08a.32.32,0,0,1,.22-.08c.15,0,.3-.08.44-.08a1.39,1.39,0,0,1,.74.23,1.73,1.73,0,0,1,.59,1,2.72,2.72,0,0,1,.07.77,6.25,6.25,0,0,1-1.63,3.69l-.07.08.07.08a14.83,14.83,0,0,1,2.59,7.47,9.94,9.94,0,0,1-.67-1.08,1,1,0,0,1-.15-.23,1.63,1.63,0,0,0-.37-.31h-.15a.29.29,0,0,0-.3.15.59.59,0,0,0-.15.31,1,1,0,0,0,.07.46,25.64,25.64,0,0,1,1.11,7.7V30l-1-1.62a.7.7,0,0,0-.59-.46.38.38,0,0,0-.3.15.48.48,0,0,0-.07.31.29.29,0,0,0,.07.23,10.83,10.83,0,0,1,.67,3.85,11.25,11.25,0,0,1-.67,3.93,9.17,9.17,0,0,1-.44,1.15c0,.08-.07.15-.07.23a4.46,4.46,0,0,0-.3-.54A10.9,10.9,0,0,1,64.34,36l-.22-.46a.55.55,0,0,0-.3-.15.38.38,0,0,0-.3.15.6.6,0,0,0-.07.38v1a8.52,8.52,0,0,1-2.08,5.77A6.7,6.7,0,0,1,60,44a1.55,1.55,0,0,1-.44.31V40.43a1.12,1.12,0,0,0-.15-.46c-.07-.08-.15-.23-.3-.23a.27.27,0,0,0-.22.08c-.07.08-.15.15-.15.23a9.41,9.41,0,0,1-2.15,3.39,2.56,2.56,0,0,1-1.63.69c-.22,0-.37,0-.44-.08s.22-.38.37-.69a4.78,4.78,0,0,0,.44-1.77,1.6,1.6,0,0,0-.44-1.15A2.2,2.2,0,0,0,53.22,40a2.68,2.68,0,0,0-.74.08,22.45,22.45,0,0,0-6.3,2.46c-1.7.92-3.19,1.85-3.56,2.08A5.44,5.44,0,0,1,42,42.12a4.87,4.87,0,0,1,.67-2.54,2.7,2.7,0,0,1,.44-.69c.07-.08.07-.15.15-.15l.07-.08.15-.15a.6.6,0,0,0,.15-.38.59.59,0,0,0-.15-.31.54.54,0,0,0-.37-.08,4.74,4.74,0,0,0-2.89,1.46,9.25,9.25,0,0,1,2.22-6,6.62,6.62,0,0,1,2.59-1.85.68.68,0,0,0,.44-.31.59.59,0,0,0,.15-.31v-.15c0-.08-.07-.15-.15-.23a.71.71,0,0,0-.44-.15l-1.26-.31c-.3-.08-.67-.15-.89-.23s-.15-.08-.22-.08a7.44,7.44,0,0,1,5.93-2.77H50a1,1,0,0,0,.52-.15.43.43,0,0,0,.22-.38c0-.15-.07-.31-.15-.31a.23.23,0,0,0-.15-.08h-.07a10.63,10.63,0,0,0-1-.62,4.38,4.38,0,0,1-.44-.31.24.24,0,0,1-.07-.15v-.08a3,3,0,0,1,.74.08,3.49,3.49,0,0,1,1.11.15,5.68,5.68,0,0,0,1.78.38,2.72,2.72,0,0,0,2.15-.92,5.19,5.19,0,0,0,.89-1.31,1.27,1.27,0,0,0,.22-.69.77.77,0,0,0-.59-.85,2.81,2.81,0,0,0-1-.15,1.83,1.83,0,0,0-1.41.54,1,1,0,0,1-.67.38.27.27,0,0,1-.22-.08h-.07l-.89-.85a2.44,2.44,0,0,1-.74-.31C50,21,50,20.95,50,20.95l.07-.08a.26.26,0,0,1,.15-.08,2,2,0,0,1,1.19-.38c.44,0,1,.08,2.08.08H54a1.8,1.8,0,0,0,1.56-.69A2,2,0,0,0,56,18.56a2.82,2.82,0,0,0-.15-.92,16.75,16.75,0,0,0-1.63-3.39,1.23,1.23,0,0,0-1.11-.69,3.13,3.13,0,0,0-1.63.69,3.7,3.7,0,0,0-.74.69,1.42,1.42,0,0,1-1.11.46,1.44,1.44,0,0,1-1-.46A2.12,2.12,0,0,1,48.18,14Zm5.71-3.16a8,8,0,0,1,.82.46l.07.08.07-.08s.3-.31.67-.62c.15-.15.74-.54.67-.77-.07-.38-1.7.08-1.93.15a1.74,1.74,0,0,0-.52.23.26.26,0,0,0-.15.08l-.07.08C53.23,10.79,53.82,10.87,53.89,10.87ZM25,19.72a64.89,64.89,0,0,0,2.45,6.54c.22.54.37.85.37.85a4.22,4.22,0,0,1,.37,1.62,2.51,2.51,0,0,1-.3,1.23c-.3.54-.59.85-.59.92h0V31a.27.27,0,0,0-.07.15,1.49,1.49,0,0,0-.15.62,2.13,2.13,0,0,0,.3,1s.3.46.59,1a17.07,17.07,0,0,0,.89,1.46c.07.08.15.23.22.31l.15.15v-.08a2.83,2.83,0,0,0,.07-.54v-.23a5.27,5.27,0,0,1,.07-1.08.44.44,0,0,1,.44-.46.55.55,0,0,1,.44.38c.07.23.15.69.3,1.15h0a.24.24,0,0,0,.07.15,1.33,1.33,0,0,0,.15.38,11.34,11.34,0,0,0,.67,1.23A6,6,0,0,0,34,39V37c0-.08.15-.15.22-.15h0c.07,0,.15.08.22.08s.15.08.15.15.07.15.15.15h0l.07.08a1,1,0,0,1,.15.23c.07.15.3.38.44.69A16.87,16.87,0,0,0,37,40.43c1.26,1.46,2.82,2.85,4.23,3.16a7,7,0,0,1-.15-1.23A6.48,6.48,0,0,1,41.51,40a1.55,1.55,0,0,1-.44.31l-2,1.77.07-2.69a10.73,10.73,0,0,1,2.52-6.77,9.26,9.26,0,0,1,1.63-1.39c-.22-.08-.44-.08-.59-.15s-.22-.08-.3-.08l-.59-.15A23.71,23.71,0,0,1,28.54,24a3.55,3.55,0,0,1-1.19-2.54,2.44,2.44,0,0,1,.59-1.62,3.73,3.73,0,0,1,2-1.31H30l.15-.08c.07-.08.15-.15.15-.23s-.15-.54-.74-1c-.74-.62-1.33-1.08-1.7-1.39a3.62,3.62,0,0,0-.52-.38h0c-.07,0-.22,0-.44.31-.44.46-1.93,1.69-1.93,3.31C24.91,19.18,24.91,19.41,25,19.72Zm5.34,27.4h0V47a.81.81,0,0,0-.37-.62,7.94,7.94,0,0,1-.82-.69c-.22-.15-.3-.31-.37-.31h-.15a.71.71,0,0,0-.44.15c-.07,0-.07.08-.22.08a1.61,1.61,0,0,1-.37.23,5.94,5.94,0,0,0-1,.69l.22.23a7,7,0,0,0,2.08,1.69,7.09,7.09,0,0,0,1.19.38c0-.15-.07-.38-.07-.54a8.84,8.84,0,0,1,.37-1.15Zm-6.15-.31a2.47,2.47,0,0,0-1.63.62A3.5,3.5,0,0,0,22,48c.07,0,.15-.08.22-.08a2.88,2.88,0,0,1,1.11-.23,2.58,2.58,0,0,1,.82.15,2.39,2.39,0,0,1,.67-.85A2.1,2.1,0,0,0,24.17,46.81Zm4.82-4a3.15,3.15,0,0,0-1.26-.46c.07.08.15.08.22.15a2.53,2.53,0,0,1,1.11,1.92c.07,0,.07,0,.15.08h.07l.07.08h0l.89.77A3.16,3.16,0,0,0,29,42.81Zm92.81,6.85h0c.22-.08.37-.31.59-.54a1,1,0,0,1,.3-.23,2.74,2.74,0,0,0-1.26-.31,2.83,2.83,0,0,0-1.63.62,3.26,3.26,0,0,0-.52.46c.07,0,.15-.08.22-.08a2.82,2.82,0,0,1,1-.23,3.35,3.35,0,0,1,1.26.31Zm-.15,2a2.88,2.88,0,0,0,.67,1.54,1.45,1.45,0,0,0,1,.46,5.52,5.52,0,0,0,1.11.15c.3,0,1.11-.15.82-.62a5.41,5.41,0,0,1-.52-.69,4.81,4.81,0,0,1-.37-.92,9.25,9.25,0,0,1-.3-1.39,1.12,1.12,0,0,0-.15-.46.41.41,0,0,0-.37-.23c-.07,0-.22.08-.44.31A11,11,0,0,0,121.94,51,.57.57,0,0,0,121.65,51.66ZM118.31,56a3.33,3.33,0,0,0-.37,1.54v.08c.07-.08.07-.15.15-.23a2.66,2.66,0,0,1,1.7-1.46c0-.15-.07-.31-.07-.46a1.76,1.76,0,0,1,.07-.62v-.08A3.12,3.12,0,0,0,118.31,56ZM78.8,48H80a3.34,3.34,0,0,0-1.19-1.69,3,3,0,0,0-1.48-.46h-.37c.07,0,.15.08.22.08a2.63,2.63,0,0,1,1.56,1.69h0Zm45.89,10.08a1.06,1.06,0,0,1-.22-.31,3.2,3.2,0,0,0-.52,1.69,2.94,2.94,0,0,0,.89,2c0-.08-.07-.15-.07-.23a3.58,3.58,0,0,1-.07-.85,2.08,2.08,0,0,1,.44-1.46h0l.15-.23-.07-.08A1.19,1.19,0,0,0,124.69,58.13Zm6.3.23h0l-.07-.23H129.8A3.27,3.27,0,0,0,131,59.9a3.09,3.09,0,0,0,1.56.38h.07c-.07,0-.15-.08-.22-.15A2.82,2.82,0,0,1,131,58.36Zm-103-1.85a2.62,2.62,0,0,0-.82,2c0,.31.07.62.07.85,0-.08.07-.15.07-.23a3.28,3.28,0,0,1,1.11-1.69A2.34,2.34,0,0,0,28,56.9C28,56.74,27.95,56.67,27.95,56.51ZM71,49a3.22,3.22,0,0,0-1.7.62h.59a4.22,4.22,0,0,1,1,.15,5.77,5.77,0,0,1,.67-.69A1.78,1.78,0,0,0,71,49Zm1,3.54v.15c0,.15,0,.15.15.23a1.67,1.67,0,0,0,.82.15h.59a1.23,1.23,0,0,0,.59-.08c.07-.15.07-.31.15-.46a4.19,4.19,0,0,0,.22-.92,3,3,0,0,0,.07-.77v-.54a9.86,9.86,0,0,0-1-.92,1.09,1.09,0,0,0-.52-.23,1.16,1.16,0,0,0-.59.23,4.1,4.1,0,0,0-.67.54,1,1,0,0,0-.3.54.51.51,0,0,0,.15.38A2.08,2.08,0,0,1,72.05,52,2.11,2.11,0,0,0,72,52.51Zm60.79,1.54a1.27,1.27,0,0,1-.22-.69,2.88,2.88,0,0,1,.67-1.54c.07-.08.07-.15.15-.15A2.93,2.93,0,0,0,133.8,50a4.31,4.31,0,0,0-1.26-2.85,1.14,1.14,0,0,1-.22-.77,5.18,5.18,0,0,1,.44-1.92,6.31,6.31,0,0,0,.59-2.16,2.17,2.17,0,0,0-.3-1.08c-.15.62-.3,1.92-1.11,1.85-.59,0-.52-.77-.52-1.23a.87.87,0,0,1,.07-.38,6.48,6.48,0,0,0,.07-1.31,7.38,7.38,0,0,0-.37-2.46,2.8,2.8,0,0,1-.44,1.15.55.55,0,0,1-.3.15.41.41,0,0,1-.37-.23c-.07-.15-.15-.23-.22-.38-.07-.31-.07-.54-.15-.54a7.89,7.89,0,0,0-.3-1.39,14.56,14.56,0,0,0-.52-1.85,4.11,4.11,0,0,1-.15.85c-.07.38-.15.92-.59,1.08s-.44-.23-.44-.54-.15-.69-.22-1a14.77,14.77,0,0,0-.52-1.69,1.09,1.09,0,0,0-.3-.54c0,.08-.07.15-.07.23a2.91,2.91,0,0,1-.44.77,7.36,7.36,0,0,1-1.56,1.92,4.8,4.8,0,0,1-3.34,1.15,11.1,11.1,0,0,1-5.63-1.77c-1.11-.77-3-1.92-4.3-2.85L111,32h1.78a12.57,12.57,0,0,0,5.34-.92A9,9,0,0,0,121.5,28a9.89,9.89,0,0,1,3-3.08,5.2,5.2,0,0,1,2.74-.69,6.67,6.67,0,0,1,2.3.38A3.94,3.94,0,0,0,125.72,22a5.66,5.66,0,0,0-4.3,2.23l-.22.23V24c0-.15-.07-.38-.07-.62a6.82,6.82,0,0,0-.82-1.92c-1-1.39-2.82-2.77-6.6-2.77h-1c-3.11.15-8.9,2.08-14.23,3.16a98,98,0,0,1-16.16,1.54A17.42,17.42,0,0,1,78.8,23a5,5,0,0,1-2.52-1.31,2.34,2.34,0,0,1-.59-1.54,2.51,2.51,0,0,1,1.48-2.39,6.38,6.38,0,0,1,2.59-.46c2.52,0,6,1.62,8.82,2.69a13.66,13.66,0,0,0,5,.77c2.89,0,6.6-1.62,8.45-2.39A11.3,11.3,0,0,1,107,17.25a13.2,13.2,0,0,1,1.7.08,6.44,6.44,0,0,0-4.74-1.85,9.62,9.62,0,0,0-4.82,1.39l-.15.08-.07-.15a1.14,1.14,0,0,1-.15-.54,2.53,2.53,0,0,1,.67-1.54A3.39,3.39,0,0,1,101,13.64a6.6,6.6,0,0,0-2.08-.69A19.11,19.11,0,0,0,95,12.48h-.52a15.35,15.35,0,0,0-5.63,1.31A14.18,14.18,0,0,1,83.32,15h-2a13.88,13.88,0,0,0-5.71,1,3.93,3.93,0,0,0-2.37,3.69,4.54,4.54,0,0,0,2.52,3.85A14.26,14.26,0,0,0,82.65,25h.15c7.26-.08,16-1.85,21.35-2.77,1.78-.31,5.49-1.39,8.67-1.39a7.1,7.1,0,0,1,3.78.85A3.49,3.49,0,0,1,118.24,25a3.84,3.84,0,0,1-.82,2.54,4.52,4.52,0,0,1-3.63,1.39,56.47,56.47,0,0,1-7.56-1.08H106c-.59-.08-1.26-.15-2-.31a123.86,123.86,0,0,0-13-.92h-.82a100.33,100.33,0,0,0-11.34,1.08c-4.52.77-8.67,1.77-10,2.08v.15l-.07,4.31-1.19-1.92v.23a15.29,15.29,0,0,1-.67,4.31A11.27,11.27,0,0,1,66.42,38a.29.29,0,0,0-.07.23l-1,1.92-.89-1.54a9.67,9.67,0,0,1-2.22,4.85,15.88,15.88,0,0,1-1.48,1.39l-.15.15c-.22.15-.37.31-.52.38l-1.78,1.08V43.27a8.89,8.89,0,0,1-1.11,1.23,3.43,3.43,0,0,1-2.37,1,3,3,0,0,1-.82-.15l-1.48-.46.82-1.31a1.49,1.49,0,0,0,.3-.62A3,3,0,0,0,54,41.73.29.29,0,0,0,54,41.5a1.46,1.46,0,0,0-.82-.15,1.58,1.58,0,0,0-.59.08c-.89.08-2.67.62-5.93,2.39-1.7.92-3.34,1.92-5,2.93a26.59,26.59,0,0,1-3.19,1.85,14.62,14.62,0,0,1-4.89,1.85,8.76,8.76,0,0,1-1.41.15,2.25,2.25,0,0,1-1.78-.69,5.52,5.52,0,0,1-2-.54,11.3,11.3,0,0,1-1.7-1.23,8.34,8.34,0,0,1-.82-.92,5,5,0,0,0-1.7,3.08v1.39h.44a24.16,24.16,0,0,0,5.34-.54h.15a.5.5,0,0,1,.44.31v.15a.52.52,0,0,1-.3.46,20.75,20.75,0,0,1-5.56.62h-.37a6,6,0,0,0,.74,2.54,2.07,2.07,0,0,0,1.56,1.08h.07a17.49,17.49,0,0,1,4.6-2.62h.15a.5.5,0,0,1,.44.31v.15a.63.63,0,0,1-.3.46H31.5c-.07,0-.15.08-.37.15s-.74.31-1.26.62-.74.46-1.19.69v.08c0,.08,0,.15.15.38.37.62.82,1.39,1.11,1.85a1.44,1.44,0,0,0,1.11.69c.44,0,1-.31,1.7-1.31a2.36,2.36,0,0,1,2-1l2.45-.15h.22a2.53,2.53,0,0,1,.44-.08,2.07,2.07,0,0,0,1-.69,1.75,1.75,0,0,1,.52-.54,1.07,1.07,0,0,1,.67-.15,9.36,9.36,0,0,1,1.63.31,9.22,9.22,0,0,0,2.45.46.91.91,0,0,0,.44-.08l-.3-.31a6.18,6.18,0,0,1-.67-.77.85.85,0,0,1-.22-.54.48.48,0,0,1,.07-.31.63.63,0,0,1,.44-.23.56.56,0,0,1,.37.15c.07.08.22.15.22.23A8.51,8.51,0,0,0,49,55.36a3,3,0,0,0,1.19-.15,2.57,2.57,0,0,1-.89-.69.71.71,0,0,1-.22-.54.59.59,0,0,1,.15-.31.61.61,0,0,1,.52-.15,7.78,7.78,0,0,1,1.11.15,1.13,1.13,0,0,1,.3.08,4.13,4.13,0,0,1,.74.15,16.85,16.85,0,0,0,2.15.23,3.7,3.7,0,0,0,2-.46c-.82-.77-1.33-1.31-1.33-1.31a.58.58,0,0,1-.22-.46.51.51,0,0,1,.15-.38c.07-.15.3-.15.37-.15a1.13,1.13,0,0,1,.67.23,3.05,3.05,0,0,0,.37.15c.22.08.52.15.89.31a9.2,9.2,0,0,0,2.59.38,3.41,3.41,0,0,0,2-.54,2.94,2.94,0,0,1-1-.62.61.61,0,0,1-.07-.69.4.4,0,0,1,.3-.23.65.65,0,0,1,.37-.08h.15c.3,0,.52.08.82.08a5.14,5.14,0,0,0,2.59-.62l-1.48-1.92a4.59,4.59,0,0,1,.67-.31,3.73,3.73,0,0,1,.74-.31c.59-.15,1.41-.38,2.37-.69a38.57,38.57,0,0,0,7.26-3.23c5.26-3,10.45-6.77,15.64-8.08a15.74,15.74,0,0,1,3.71-.46,16,16,0,0,1,3.63.38,7.53,7.53,0,0,1,3.19,2.23c1.19,1.15,2.37,2.54,3.41,3.69a25.43,25.43,0,0,0,2.67,2.69l.22.23a1.84,1.84,0,0,0,.44.31c.3.15.67.46,1,.69A9.74,9.74,0,0,0,111,46.2c-.07-.31-.44-2.31.37-1.92.37.15.52.54.82.85s.67.62,1.11.92a3.42,3.42,0,0,0,1.93.77,1.69,1.69,0,0,0,.59-.15l-.67-.85a.54.54,0,0,1-.15-.31c0-.15.07-.23.22-.31a1.44,1.44,0,0,1,.67-.15h1.56a22.78,22.78,0,0,0,3.11-.23,14,14,0,0,0,3.26-.92.72.72,0,0,1,.3-.08,2.37,2.37,0,0,1,.82-.15,1.3,1.3,0,0,1,1.33,1.08c.15.38.3.77.37.92A9.74,9.74,0,0,1,127.95,50a3.89,3.89,0,0,1-.07.92,6.82,6.82,0,0,1-.74,2.54c-1,1.39-1.93,1.46-2.08,1.46h-.52a1.78,1.78,0,0,1-.59-.08,10.68,10.68,0,0,0-1.85-.46.91.91,0,0,0-.44.08,1.3,1.3,0,0,0-.74,1.15,2.66,2.66,0,0,0,.3,1.08h0a.24.24,0,0,0,.07.15,1.7,1.7,0,0,1,.22.38,1.37,1.37,0,0,0,1.19.54h.22a2.08,2.08,0,0,0,1.26-.69,3.34,3.34,0,0,0,.74-.85l.07-.08.89-1.31a.27.27,0,0,0,.07-.15.38.38,0,0,1,.3-.15.27.27,0,0,1,.22.08.43.43,0,0,1,.22.38.29.29,0,0,1-.07.23.27.27,0,0,1-.07.15.57.57,0,0,1-.22.23,2,2,0,0,1-.37.46c-.3.38-.52.69-.52.69v.23a.42.42,0,0,0,.22.38c.22.23.44.54.67.77a1,1,0,0,0,.59.54c.59.15,1.19-.54,1.48-.92a2.37,2.37,0,0,0,.67-1.08,5.06,5.06,0,0,0,.22-1.77V53.74a.6.6,0,0,1,.07-.31,1,1,0,0,1,.3-.23h.07c.22,0,.37.15.37.23a.39.39,0,0,1,.07.23v1.85a4.32,4.32,0,0,1-.15,1.15v.15c0,.08,0,.15.07.15a.26.26,0,0,0,.15.08.54.54,0,0,0,.3.08l2.15-.08h0a1.09,1.09,0,0,0,.59-.15,1.39,1.39,0,0,0,.52-1v-.31a1.33,1.33,0,0,0-.3-.92A1.62,1.62,0,0,1,132.77,54.05Zm-31.65-5.47A4.68,4.68,0,0,1,99.56,48a3.69,3.69,0,0,1-1.7-2.85,5.72,5.72,0,0,1,1.48-3.39,12,12,0,0,1,1.93-1.69l-2.67-2.77a7.58,7.58,0,0,0-2.67-1.69,4.39,4.39,0,0,0-3.11.54c-.59.31-1.26.62-1.85,1A11.29,11.29,0,0,0,87,42.58c.07-.08.22-.15.37-.31a3.64,3.64,0,0,1,1.11-.69c.07,0,.22-.08.3-.08a.44.44,0,0,1,.44.23.87.87,0,0,1,.07.38,1,1,0,0,1-.07.38,1,1,0,0,0-.07.38,8.24,8.24,0,0,0-.22.92,9.41,9.41,0,0,0-.3,2.16c.44-.69,1-1.23,1-1.31l.07-.08c.07-.08.15-.08.3-.08a.27.27,0,0,1,.22.08c.07.08.07.15.15.23v.31a5,5,0,0,0,.3,2.77,2.22,2.22,0,0,1,.3,2.23,5.23,5.23,0,0,1-1.63,1.77,2.58,2.58,0,0,1-1.41.46,9.94,9.94,0,0,0-2,.23c-.89.31-1.63,1-2.52,1.23a2.93,2.93,0,0,1-.82.08,4.1,4.1,0,0,1-3-1.15A2.12,2.12,0,0,1,79,51.43a3.67,3.67,0,0,1,1-2.23l.07-.08c0-.08.07-.15.07-.23v-.08a.32.32,0,0,0-.22-.08H77.24a1.48,1.48,0,0,0-1,.38l-.07.08-.15.15c-.07.15-.22.38-.37.69a9.7,9.7,0,0,0-.15,1.77c-.15.69-.52,1.54-.59,2.08v.31A2.92,2.92,0,0,0,75.54,56a8.16,8.16,0,0,0,4.15,2.62,24.93,24.93,0,0,0,3.63.77h.22c.22-.08,2.67-.77,3.48-.92s2.89-.38,3.78-.54l-1.33-.69-.15-.15a.6.6,0,0,1-.15-.38.29.29,0,0,1,.07-.23q.11-.23.22-.23a.43.43,0,0,1,.3-.08H90a5.69,5.69,0,0,0,.82.08c.52,0,1.19.08,1.85.08a9.11,9.11,0,0,0,1.48-.08,2.83,2.83,0,0,0,1.93-.92.27.27,0,0,1-.22-.08,2.22,2.22,0,0,0-.59-.15,1.93,1.93,0,0,1-.67-.38c-.07-.08-.15-.08-.22-.15a.6.6,0,0,1-.15-.38v-.08c0-.08.07-.15.15-.23s.15-.08.22-.15a.72.72,0,0,1,.3-.08l1-.15a7,7,0,0,0,1.7-.46,13.35,13.35,0,0,0,1.93-1.15L99,51.59a3.4,3.4,0,0,1-1.11-.69l-.15-.15a.6.6,0,0,1-.15-.38V50.2c.07-.08.07-.15.15-.15A.27.27,0,0,1,98,50a.72.72,0,0,1,.3-.08.72.72,0,0,0,.3-.08c.22-.08.44-.08.74-.15a9.75,9.75,0,0,0,1.78-.62,1.08,1.08,0,0,0,.52-.46h-.07C101.56,48.66,101.34,48.66,101.11,48.58ZM69.68,55.05a2.91,2.91,0,0,0-.44.77c.07-.08.15-.08.22-.15A2.93,2.93,0,0,1,70.87,55c0-.15.07-.38.07-.46v-.08h0c.07-.15.07-.31.15-.38A2.22,2.22,0,0,0,69.68,55.05Zm5,2.31a1.63,1.63,0,0,0-.37.31l-.22.23c-.07.08-.07.15-.15.23a3.45,3.45,0,0,0-.07.38,1.27,1.27,0,0,0,.22.69,2.31,2.31,0,0,0,.89.69,2.48,2.48,0,0,0,1,.23,1.18,1.18,0,0,0,1-.54,3.65,3.65,0,0,0,.37-.77A7.31,7.31,0,0,1,75,57.21Zm-.3-1a3.8,3.8,0,0,1-.59-2.08V53.9h0c-.3,0-.67-.08-1-.08h-.44c-.15,0-.22,0-.3.15a2.18,2.18,0,0,0-.37.77,3.42,3.42,0,0,0-.15.92.72.72,0,0,0,.37.69,4.24,4.24,0,0,0,1.63.38h.07c.07,0,.3,0,.37-.08C74.35,56.59,74.43,56.44,74.43,56.36Zm-1.11,2.46a3.18,3.18,0,0,0-.59,1.92v.08c0-.08.07-.15.15-.23a1.86,1.86,0,0,1,.59-.85,2.35,2.35,0,0,1-.15-.77C73.24,59,73.31,58.9,73.31,58.82ZM38.62,17.18a6.53,6.53,0,0,0,2.15,1.15,7.72,7.72,0,0,0,2.22.31,23.58,23.58,0,0,0,4.15-.54,23.63,23.63,0,0,1,4-.46A6.07,6.07,0,0,1,55,18.87a7,7,0,0,0-3.78-1.77A18.8,18.8,0,0,0,47.07,17a23.17,23.17,0,0,1-4,0,5,5,0,0,1-3.19-1.46l-.07-.08a.94.94,0,0,0-1.41.15,1.22,1.22,0,0,0,.22,1.54Z"/><path class="cls-3" d="M42.33,164.9c.22-1.23.44-2.54.74-3.69h0c2.3,1.31,6.08,2,10.45,2.77,5.71,1.08,12.45,2.31,17.2,5.23-1.19-.46-2.67-1-4.45-1.54a34.71,34.71,0,0,0-12.16-1.46A35.15,35.15,0,0,1,42.33,164.9Zm67.9,1.69a43,43,0,0,1-12.45,1.15A38.12,38.12,0,0,0,85.4,169a33.82,33.82,0,0,0-5.26,1.54,47.78,47.78,0,0,1,5.93-1,43.17,43.17,0,0,1,12.75.23,40.4,40.4,0,0,0,12,.31C110.6,168.82,110.38,167.75,110.23,166.59Zm-28.69,2.54c1.19-.46,2.67-1,4.45-1.54a34.71,34.71,0,0,1,12.16-1.46,33,33,0,0,0,11.71-1.31c-.22-1.23-.44-2.54-.74-3.69h0c-2.3,1.31-6.08,2-10.45,2.77C93,165,86.29,166.21,81.54,169.13Zm-27.06-1.39A43,43,0,0,1,42,166.59c-.22,1.15-.37,2.23-.52,3.39a40.4,40.4,0,0,0,12-.31,43,43,0,0,1,12.75-.23,47.78,47.78,0,0,1,5.93,1c-1.33-.46-3-1-5.26-1.54A40.53,40.53,0,0,0,54.49,167.75ZM49.74,139.8l-6.3,19.63c5.26,3.54,24.69,2.69,32,11.62V150.2C73.54,141.27,55,143.34,49.74,139.8Zm52.71,0c-5.26,3.54-23.8,1.46-25.72,10.39v20.86c7.26-9,26.69-8.08,32-11.62Z"/><path class="cls-3" d="M16.16,87.46,17,89a2,2,0,0,0,1.7,1h.07a8.49,8.49,0,0,0-.74,3.16v.77A6.16,6.16,0,0,1,17.87,96c-.07.15-.3.38-.44.62a2.2,2.2,0,0,0-.74,2.31h0a2.14,2.14,0,0,0,1.93,1.39c.22.08.52.08.67.23a5.39,5.39,0,0,1,1.33,1.54,4.26,4.26,0,0,0,.44.62A6.51,6.51,0,0,0,23.87,105a2,2,0,0,0-1,2.23l.37,1.77a2,2,0,0,0,1.93,1.62.91.91,0,0,0,.44-.08l1.7-.38a2,2,0,0,0,1.48-1.39,7.74,7.74,0,0,0,2.67,1.69l.67.23a6,6,0,0,1,1.85.85,1.69,1.69,0,0,1,.37.62,2.27,2.27,0,0,0,1.93,1.46h0a2.27,2.27,0,0,0,1.93-1.46,4.32,4.32,0,0,1,.37-.62,4.2,4.2,0,0,1,1.85-.85,8.28,8.28,0,0,0,3.63-2.23,4.81,4.81,0,0,0,.37.92,2.16,2.16,0,0,0,1.33.77l1.7.15h.22a1.92,1.92,0,0,0,1.93-1.85l.15-1.77a1.74,1.74,0,0,0-.44-1.46c-.15-.15-.22-.31-.37-.38a7.68,7.68,0,0,0,2.37-2.16,4.26,4.26,0,0,0,.44-.62,5.39,5.39,0,0,1,1.33-1.54l.67-.23a2.29,2.29,0,0,0,1.93-1.46h0A2.51,2.51,0,0,0,55,96.54c-.15-.23-.37-.38-.44-.62a5.94,5.94,0,0,1-.22-2.08v-.77a6.88,6.88,0,0,0-1-3.54h.22a1.93,1.93,0,0,0,1.78-1.23L56,86.69a1.86,1.86,0,0,0,0-1.54A2,2,0,0,0,55,84l-1.56-.69a2.58,2.58,0,0,0-.82-.15,2.18,2.18,0,0,0-1.19.38,7.7,7.7,0,0,0-1.19-3c-.15-.23-.3-.38-.44-.62a4.71,4.71,0,0,1-1-1.77v-.77A2.59,2.59,0,0,0,48.18,75l-.15.15h0l.15-.15a1.73,1.73,0,0,0-1-.38,2.7,2.7,0,0,0-1.33.38,2.3,2.3,0,0,1-.67.23h-.22a5.52,5.52,0,0,1-1.78-.46l-.67-.23a8.4,8.4,0,0,0-2.22-.38,8.84,8.84,0,0,0-1.33.15,2.2,2.2,0,0,0,.22-1,1.77,1.77,0,0,0-.67-1.39l-1.26-1.23a2.09,2.09,0,0,0-1.33-.54,1.94,1.94,0,0,0-1.48.69l-1.19,1.31a2,2,0,0,0-.37,2,4.39,4.39,0,0,0-1-.08,8.4,8.4,0,0,0-2.22.38l-.67.23a5.52,5.52,0,0,1-1.78.46H27l-.67-.23A3.43,3.43,0,0,0,25,74.53a1.73,1.73,0,0,0-1,.38h0a2.6,2.6,0,0,0-.74,2.39c0,.23.07.54.07.77a5.23,5.23,0,0,1-1,1.77c-.15.23-.3.38-.44.62a7.11,7.11,0,0,0-1.26,3.46,1.75,1.75,0,0,0-1.33-.54,1.45,1.45,0,0,0-1,.31l-1.48.92a2.12,2.12,0,0,0-.89,1.23,2.87,2.87,0,0,0,.22,1.62"/><path class="cls-3" d="M36,83.53A4.09,4.09,0,0,1,40,86.84h.52a4,4,0,0,1,3.78,2.85,4.29,4.29,0,0,1-1.85,4.93,4.67,4.67,0,0,1,.37,2.46,4,4,0,0,1-1.63,2.69,3.93,3.93,0,0,1-5-.31,4.06,4.06,0,0,1-2.74,1.15A4.57,4.57,0,0,1,31,99.85a4.19,4.19,0,0,1-1.26-5.08A3.72,3.72,0,0,1,28.1,93a3.9,3.9,0,0,1-.22-3.16A4,4,0,0,1,31.65,87h.44a3.75,3.75,0,0,1,1.11-2.16A3.52,3.52,0,0,1,36,83.53"/><path class="cls-2" d="M36.55,83.53A4.08,4.08,0,0,1,40,86.84h.52a4,4,0,0,1,3.63,2.39,17.86,17.86,0,0,0,3.26-1.39c3.19-1.62,3.41-3.77,1.7-6.39a8,8,0,0,1-1.7-3.16c-.07-.85.22-1.77-.07-2h0c-.3-.23-1,.38-1.85.54-1.11.23-2.52-.46-3.41-.69-2.89-.85-4.74.08-5.26,3.69a24.34,24.34,0,0,0-.22,3.69m-.82-7.62a.44.44,0,0,0,.59,0L37.44,74a.48.48,0,0,0,0-.62l-1.26-1.23a.44.44,0,0,0-.59,0L34.4,73.45a.48.48,0,0,0,0,.62ZM24.91,87.84a13.24,13.24,0,0,0,3.19,1.31,4,4,0,0,1,3.56-2.31h.44a4.23,4.23,0,0,1,1.11-2.23,4,4,0,0,1,2.52-1.23,23.25,23.25,0,0,0-.22-3.62c-.52-3.62-2.45-4.54-5.26-3.69-.89.23-2.3.92-3.41.69C26,76.6,25.28,76,25,76.22s0,1.15-.07,2a8.51,8.51,0,0,1-1.7,3.16c-1.63,2.69-1.41,4.85,1.7,6.47m-7.41-1.15.89,1.54a.39.39,0,0,0,.59.15l2-.77a.42.42,0,0,0,.15-.62L19.72,85.3a.39.39,0,0,0-.59-.15l-1.48.92a.41.41,0,0,0-.15.62m33.88.77,2.08.54a.49.49,0,0,0,.59-.23l.67-1.62a.53.53,0,0,0-.22-.62l-1.56-.69a.49.49,0,0,0-.59.23l-1.19,1.85c-.15.15,0,.46.22.54m-24.24,18.4a.56.56,0,0,0-.52-.38l-1.93.92a.58.58,0,0,0-.37.54l.37,1.77a.56.56,0,0,0,.52.38l1.7-.38a.58.58,0,0,0,.37-.54ZM52.78,93.23c-.15-3.08-1.56-4.7-5-4.08A23.35,23.35,0,0,0,44.4,90a4.1,4.1,0,0,1-1.93,4.54A4.67,4.67,0,0,1,42.85,97a4.52,4.52,0,0,1-1.19,2.39A22.16,22.16,0,0,0,43.81,102c2.45,2.62,4.52,2.16,6.38-.23.52-.69,1.33-2.16,2.37-2.62.82-.38,1.7-.31,1.78-.69h0c.15-.38-.67-.92-1.11-1.62a7.86,7.86,0,0,1-.44-3.62m-23,1.46a3.72,3.72,0,0,1-1.63-1.77,4,4,0,0,1-.3-2.93,20.1,20.1,0,0,0-3.26-.85c-3.48-.62-4.89,1-5,4.08,0,.92.15,2.54-.44,3.54-.44.77-1.19,1.31-1.11,1.62h0c.15.38,1,.31,1.78.69,1,.46,1.78,1.92,2.37,2.62,1.85,2.46,3.93,2.85,6.38.23a20.41,20.41,0,0,0,2.15-2.54,4,4,0,0,1-1-4.7M47.89,106l-2.08-.62a.56.56,0,0,0-.52.38l.15,2.23a.58.58,0,0,0,.37.54l1.7.15a.42.42,0,0,0,.44-.38l.15-1.77a.34.34,0,0,0-.22-.54m-5.19-3.16c1.63,3.23.59,5.16-2.22,6.24-.82.31-2.37.62-3.11,1.54-.59.69-.82,1.62-1.19,1.62s-.59-.92-1.19-1.62c-.74-.85-2.3-1.23-3.11-1.54-2.82-1.08-3.85-2.93-2.22-6.24A27.17,27.17,0,0,1,31.28,100a3.88,3.88,0,0,0,2.08.62,3.73,3.73,0,0,0,2.74-1.15,3.94,3.94,0,0,0,2.67,1.08,3.88,3.88,0,0,0,2.08-.62,11.77,11.77,0,0,1,1.85,2.93"/><path class="cls-2" d="M30.91,93.54c.22.08.44.08.67.15h0a.38.38,0,0,1,.3.15.48.48,0,0,1-.07.62h0l-.44.46a2.65,2.65,0,0,0,.52,3.62A2.43,2.43,0,0,0,35.36,98a1.57,1.57,0,0,0,.3-.62h0c.07-.15.15-.23.3-.23a.38.38,0,0,1,.52.23h0a2,2,0,0,0,.3.54,2.43,2.43,0,0,0,3.48.54,2.65,2.65,0,0,0,.52-3.62c-.15-.15-.3-.38-.44-.54h0a.6.6,0,0,1-.15-.38.43.43,0,0,1,.37-.46h0a1.69,1.69,0,0,0,.59-.15,2.65,2.65,0,0,0,1.63-3.23,2.52,2.52,0,0,0-3.11-1.69,1.47,1.47,0,0,0-.59.31h0a.54.54,0,0,1-.37.08.44.44,0,0,1-.3-.54h0a1.76,1.76,0,0,0,.07-.62,2.52,2.52,0,1,0-5,0,2.21,2.21,0,0,0,.07.69h0a.72.72,0,0,1-.07.38.45.45,0,0,1-.59.15h0a1.54,1.54,0,0,0-.52-.23,2.4,2.4,0,0,0-3.11,1.69,2.7,2.7,0,0,0,1.7,3.23"/><path class="cls-3" d="M34,92.46a1.93,1.93,0,1,1,1.93,2,2,2,0,0,1-1.93-2"/><path class="cls-3" d="M136,87.46,135.14,89a2,2,0,0,1-1.7,1h-.07a8.49,8.49,0,0,1,.74,3.16v.77a6.16,6.16,0,0,0,.22,2.08c.07.15.3.38.44.62a2.2,2.2,0,0,1,.74,2.31h0a2.14,2.14,0,0,1-1.93,1.39c-.22.08-.52.08-.67.23a5.39,5.39,0,0,0-1.33,1.54,4.26,4.26,0,0,1-.44.62,6.51,6.51,0,0,1-2.82,2.31,2,2,0,0,1,1,2.23l-.37,1.77a2,2,0,0,1-1.93,1.62.91.91,0,0,1-.44-.08l-1.7-.38a2,2,0,0,1-1.48-1.39,7.74,7.74,0,0,1-2.67,1.69l-.67.23a6,6,0,0,0-1.85.85,1.69,1.69,0,0,0-.37.62,2.27,2.27,0,0,1-1.93,1.46h0a2.27,2.27,0,0,1-1.93-1.46,4.32,4.32,0,0,0-.37-.62,4.2,4.2,0,0,0-1.85-.85,8.28,8.28,0,0,1-3.63-2.23,4.81,4.81,0,0,1-.37.92,2.16,2.16,0,0,1-1.33.77l-1.7.15h-.22a1.92,1.92,0,0,1-1.93-1.85l-.15-1.77a1.74,1.74,0,0,1,.44-1.46c.15-.15.22-.31.37-.38a7.68,7.68,0,0,1-2.37-2.16,4.26,4.26,0,0,1-.44-.62A5.39,5.39,0,0,0,99,100.54l-.67-.23a2.29,2.29,0,0,1-1.93-1.46h0a2.51,2.51,0,0,1,.74-2.31c.15-.23.37-.38.44-.62a5.94,5.94,0,0,0,.22-2.08v-.77a6.88,6.88,0,0,1,1-3.54h-.22a1.93,1.93,0,0,1-1.78-1.23l-.67-1.62a1.86,1.86,0,0,1,0-1.54,2,2,0,0,1,1-1.15l1.56-.69a2.58,2.58,0,0,1,.82-.15,2.18,2.18,0,0,1,1.19.38,7.7,7.7,0,0,1,1.19-3c.15-.23.3-.38.44-.62a4.71,4.71,0,0,0,1-1.77v-.77A2.59,2.59,0,0,1,104,75l.15.15h0L104,75a1.73,1.73,0,0,1,1-.38,2.7,2.7,0,0,1,1.33.38,2.3,2.3,0,0,0,.67.23h.22a5.52,5.52,0,0,0,1.78-.46l.67-.23a8.4,8.4,0,0,1,2.22-.38,8.84,8.84,0,0,1,1.33.15,2.2,2.2,0,0,1-.22-1,1.77,1.77,0,0,1,.67-1.39L115,70.68a2.09,2.09,0,0,1,1.33-.54,1.94,1.94,0,0,1,1.48.69L119,72.14a2,2,0,0,1,.37,2,4.39,4.39,0,0,1,1-.08,8.4,8.4,0,0,1,2.22.38l.67.23a5.52,5.52,0,0,0,1.78.46h.22l.67-.23a3.43,3.43,0,0,1,1.33-.38,1.73,1.73,0,0,1,1,.38h0A2.6,2.6,0,0,1,129,77.3c0,.23-.07.54-.07.77a5.23,5.23,0,0,0,1,1.77c.15.23.3.38.44.62a7.11,7.11,0,0,1,1.26,3.46,1.75,1.75,0,0,1,1.33-.54,1.45,1.45,0,0,1,1,.31l1.48.92a2.12,2.12,0,0,1,.89,1.23,2.87,2.87,0,0,1-.22,1.62"/><path class="cls-3" d="M116.16,83.53a4.09,4.09,0,0,0-3.93,3.31h-.52a4,4,0,0,0-3.78,2.85,4.29,4.29,0,0,0,1.85,4.93,4.67,4.67,0,0,0-.37,2.46A4,4,0,0,0,111,99.78a3.93,3.93,0,0,0,5-.31,4.06,4.06,0,0,0,2.74,1.15,4.57,4.57,0,0,0,2.37-.77,4.19,4.19,0,0,0,1.26-5.08A3.72,3.72,0,0,0,124.09,93a3.9,3.9,0,0,0,.22-3.16A4,4,0,0,0,120.53,87h-.44A3.75,3.75,0,0,0,119,84.84a3.52,3.52,0,0,0-2.82-1.31"/><path class="cls-2" d="M115.64,83.53a24.36,24.36,0,0,0-.22-3.69c-.52-3.62-2.45-4.54-5.26-3.69-.89.23-2.3.92-3.41.69-.82-.15-1.56-.77-1.85-.54h0c-.3.23,0,1.15-.07,2a8.51,8.51,0,0,1-1.7,3.16c-1.63,2.54-1.41,4.7,1.7,6.39a17.86,17.86,0,0,0,3.26,1.39,4,4,0,0,1,3.63-2.39h.52a4.09,4.09,0,0,1,3.41-3.31m2.08-9.39a.41.41,0,0,0,0-.62l-1.19-1.31a.38.38,0,0,0-.59,0l-1.26,1.23a.41.41,0,0,0,0,.62L115.79,76a.38.38,0,0,0,.59,0Zm9.56,13.7c3.19-1.62,3.41-3.77,1.7-6.39a8,8,0,0,1-1.7-3.16c-.07-.85.22-1.77-.07-2s-1,.38-1.85.54c-1.11.23-2.52-.46-3.41-.69-2.89-.85-4.74.08-5.26,3.69a16.65,16.65,0,0,0-.22,3.62A3.63,3.63,0,0,1,119,84.69a4.23,4.23,0,0,1,1.11,2.23h.44a4,4,0,0,1,3.56,2.31,16.84,16.84,0,0,0,3.19-1.39m7.41-1.15a.42.42,0,0,0-.15-.62l-1.48-.92a.39.39,0,0,0-.59.15L131.06,87a.42.42,0,0,0,.15.62l2,.77a.39.39,0,0,0,.59-.15l.89-1.54m-33.88.77a.49.49,0,0,0,.22-.62L99.85,85a.46.46,0,0,0-.59-.23l-1.56.69a.49.49,0,0,0-.22.62l.67,1.62a.46.46,0,0,0,.59.23l2.08-.46m24.09,20.63a.43.43,0,0,0,.37.54l1.7.38c.22.08.44-.08.52-.38l.37-1.77a.43.43,0,0,0-.37-.54l-2-.85c-.22-.08-.44.08-.52.38ZM99.41,93.23c0,.92.15,2.54-.44,3.54-.44.77-1.19,1.31-1.11,1.62h0c.15.38,1,.31,1.78.69,1,.46,1.78,1.92,2.37,2.62,1.85,2.46,3.93,2.85,6.38.23a17.17,17.17,0,0,0,2.15-2.62,4.29,4.29,0,0,1-.82-4.85,4.25,4.25,0,0,1-1.93-4.54,12.58,12.58,0,0,0-3.41-.85c-3.48-.54-4.89,1.08-5,4.16m23,1.46a4.24,4.24,0,0,1-.89,4.77,15.55,15.55,0,0,0,2.15,2.54c2.45,2.62,4.52,2.16,6.38-.23.52-.69,1.33-2.16,2.37-2.62.82-.38,1.7-.31,1.78-.69h0c.15-.38-.67-.92-1.11-1.62-.59-1-.37-2.62-.44-3.54-.15-3.08-1.56-4.7-5-4.08a15.4,15.4,0,0,0-3.26.85,4.42,4.42,0,0,1-.3,2.93,4.1,4.1,0,0,1-1.7,1.69M104.3,106a.38.38,0,0,0-.37.46l.15,1.77c0,.23.22.46.44.38l1.7-.15a.42.42,0,0,0,.37-.54l.15-2.23a.41.41,0,0,0-.52-.38l-1.93.69m5.19-3.16a19.8,19.8,0,0,1,1.7-2.93,4.08,4.08,0,0,0,2.08.62,3.68,3.68,0,0,0,2.67-1.08,3.82,3.82,0,0,0,4.82.54,18.18,18.18,0,0,1,1.63,2.85c1.63,3.23.59,5.16-2.22,6.24-.82.31-2.37.62-3.11,1.54-.59.69-.82,1.62-1.19,1.62s-.59-.92-1.19-1.62c-.74-.85-2.3-1.23-3.11-1.54-2.67-1.15-3.71-3-2.08-6.24"/><path class="cls-2" d="M121.28,93.54c-.22.08-.44.08-.67.15h0a.38.38,0,0,0-.3.15.48.48,0,0,0,.07.62h0l.44.46a2.65,2.65,0,0,1-.52,3.62,2.43,2.43,0,0,1-3.48-.54,1.57,1.57,0,0,1-.3-.62h0c-.07-.15-.15-.23-.3-.23a.38.38,0,0,0-.52.23h0a2,2,0,0,1-.3.54,2.43,2.43,0,0,1-3.48.54,2.65,2.65,0,0,1-.52-3.62c.15-.15.3-.38.44-.54h0a.6.6,0,0,0,.15-.38.43.43,0,0,0-.37-.46h0a1.69,1.69,0,0,1-.59-.15,2.65,2.65,0,0,1-1.63-3.23,2.52,2.52,0,0,1,3.11-1.69,1.47,1.47,0,0,1,.59.31h0a.54.54,0,0,0,.37.08.44.44,0,0,0,.3-.54h0a1.76,1.76,0,0,1-.07-.62,2.52,2.52,0,1,1,5,0,2.21,2.21,0,0,1-.07.69h0a.72.72,0,0,0,.07.38.45.45,0,0,0,.59.15h0a1.54,1.54,0,0,1,.52-.23A2.4,2.4,0,0,1,123,90.31a2.77,2.77,0,0,1-1.7,3.23"/><path class="cls-3" d="M118.16,92.46a1.93,1.93,0,1,0-1.93,2,1.91,1.91,0,0,0,1.93-2"/><path class="cls-3" d="M136,133.18A49,49,0,0,1,121.65,135a52.63,52.63,0,0,1-13-1.46,47.82,47.82,0,0,1-6.82-2.31,93.21,93.21,0,0,0-10.3-3.93,54.2,54.2,0,0,0-15.34-1.92,57,57,0,0,0-14,1.54,46,46,0,0,0-7.34,2.54,94.67,94.67,0,0,1-9.86,3.85A49,49,0,0,1,30.62,135a52.63,52.63,0,0,1-13-1.46,58.48,58.48,0,0,1-6.45-2.16c.74,1.77,1.56,3.46,2.37,5.23.59.15,1.19.38,1.78.54a54.2,54.2,0,0,0,15.34,1.92,57,57,0,0,0,14-1.54A46,46,0,0,0,52,135a79.88,79.88,0,0,1,9.86-3.77,49,49,0,0,1,14.31-1.77,52.63,52.63,0,0,1,13,1.46A47.82,47.82,0,0,1,96,133.26a93.21,93.21,0,0,0,10.3,3.93,54.2,54.2,0,0,0,15.34,1.92,57,57,0,0,0,14-1.54c1.11-.31,2.08-.62,3.11-.92.82-1.77,1.63-3.46,2.37-5.23C139.44,132,137.81,132.64,136,133.18Z"/><path class="cls-3" d="M121.65,126.79a52.63,52.63,0,0,1-13-1.46,47.82,47.82,0,0,1-6.82-2.31,93.21,93.21,0,0,0-10.3-3.93,54.2,54.2,0,0,0-15.34-1.92,57,57,0,0,0-14,1.54,46,46,0,0,0-7.34,2.54A79.88,79.88,0,0,1,44.92,125a49,49,0,0,1-14.31,1.77,52.63,52.63,0,0,1-13-1.46A47.82,47.82,0,0,1,10.75,123c-1.11-.46-2.22-.92-3.41-1.46.59,1.69,1.26,3.46,1.93,5.23a50.21,50.21,0,0,0,6,2.16,54.2,54.2,0,0,0,15.34,1.92,57,57,0,0,0,14-1.54A46,46,0,0,0,52,126.79,79.88,79.88,0,0,1,61.82,123a49,49,0,0,1,14.31-1.77,52.63,52.63,0,0,1,13,1.46A47.82,47.82,0,0,1,96,125a93.21,93.21,0,0,0,10.3,3.93,54.2,54.2,0,0,0,15.34,1.92,57,57,0,0,0,14-1.54,64.16,64.16,0,0,0,7.34-2.46c.67-1.77,1.33-3.54,1.93-5.23a73.18,73.18,0,0,1-9,3.39A52.62,52.62,0,0,1,121.65,126.79Z"/><path class="cls-3" d="M6.08,117.56a84.26,84.26,0,0,0,9.19,3.54A54.2,54.2,0,0,0,30.62,123a57,57,0,0,0,14-1.54A46,46,0,0,0,52,118.94a79.88,79.88,0,0,1,9.86-3.77,49,49,0,0,1,14.31-1.77,52.63,52.63,0,0,1,13,1.46A47.82,47.82,0,0,1,96,117.17a93.21,93.21,0,0,0,10.3,3.93A54.2,54.2,0,0,0,121.65,123a57,57,0,0,0,14-1.54,46,46,0,0,0,7.34-2.54c1.11-.46,2.15-.92,3.19-1.31.52-1.69,1-3.31,1.41-5l-1.78.69a79.88,79.88,0,0,1-9.86,3.77,49,49,0,0,1-14.31,1.77,52.63,52.63,0,0,1-13-1.46,47.82,47.82,0,0,1-6.82-2.31,93.21,93.21,0,0,0-10.3-3.93,54.2,54.2,0,0,0-15.34-1.92,57,57,0,0,0-14,1.54,46,46,0,0,0-7.34,2.54,79.88,79.88,0,0,1-9.86,3.77,49,49,0,0,1-14.31,1.77,52.63,52.63,0,0,1-13-1.46,47.82,47.82,0,0,1-6.82-2.31c-2-.85-3.93-1.69-6.15-2.54C5,114.17,5.49,115.86,6.08,117.56Z"/><rect class="cls-3" y="64.75" width="152.19" height="2.08"/></g></g></svg>