HTTP/1.1 200 OK
Date: Sat, 24 Nov 2018 08:04:01 GMT
Server: Apache
Last-Modified: Tue, 06 Mar 2018 15:51:47 GMT
ETag: "6c27ccf4-10c44-566c06b822ac0"
Accept-Ranges: bytes
Content-Length: 68676
Vary: User-Agent
Content-Type: image/svg+xml

<?xml version="1.0" encoding="UTF-8"?>
<svg enable-background="new 0 0 111.8 143.4" version="1.1" viewBox="0 0 111.8 143.4" xml:space="preserve" xmlns="http://www.w3.org/2000/svg">
<style type="text/css">
	.st0{fill:#003869;}
	.st1{fill:#FFFFFF;}
	.st2{fill:#E6007E;}
	.st3{fill:#FFFFFF;stroke:#FFFFFF;stroke-width:1.5;}
	.st4{fill-rule:evenodd;clip-rule:evenodd;fill:#FFFFFF;}
	.st5{fill:none;}
</style>
	<path class="st0" d="M13,140.7c-5.4,0-9.8-4.4-9.8-9.8V12.8C3.2,7.4,7.6,3,13,3h84.7c5.4,0,9.8,4.4,9.8,9.8v118.1   c0,5.4-4.4,9.8-9.8,9.8H13z"/>
	<path class="st1" d="m97.7 4.1c4.8 0 8.7 3.9 8.7 8.7v118.1c0 4.8-3.9 8.7-8.7 8.7h-84.7c-4.8 0-8.7-3.9-8.7-8.7v-118.1c0-4.8 4-8.7 8.7-8.7h84.7m0-2.2h-84.7c-6 0-10.9 4.9-10.9 10.9v118.1c0 6 4.9 10.9 10.9 10.9h84.7c6 0 10.9-4.9 10.9-10.9v-118.1c0.1-6-4.8-10.9-10.9-10.9z"/>
	<path class="st1" d="m9.2 43.2c0-3 2.2-5 4.9-5 2.8 0 4.4 1.5 4.6 4l-2.3 0.1c-0.1-1.2-0.9-2-2.3-2-1.6 0-2.6 1.2-2.6 2.9 0 1.8 1 3 2.7 3 1.1 0 2-0.5 2.3-1.5h-2.3v-1.7h4.5v5h-2v-1.2c-0.5 1-1.6 1.4-2.9 1.4-2.6 0-4.6-2-4.6-5z"/>
	<path class="st1" d="m24.5 48.2c-2.8 0-4.9-2-4.9-5s2.1-5 4.9-5 4.9 2 4.9 5-2.1 5-4.9 5zm0-8c-1.6 0-2.5 1.2-2.5 3s1 3 2.5 3c1.6 0 2.6-1.2 2.6-3-0.1-1.8-1.1-3-2.6-3z"/>
	<path class="st1" d="m34.8 48.2c-2.8 0-4.9-2-4.9-5s2.1-5 4.9-5 4.9 2 4.9 5c0.1 3-2.1 5-4.9 5zm0-8c-1.6 0-2.5 1.2-2.5 3s1 3 2.5 3c1.6 0 2.6-1.2 2.6-3s-1-3-2.6-3z"/>
	<path class="st1" d="m40.6 38.4h3.7c3.2 0 5.1 1.8 5.1 4.8s-2 4.8-5.1 4.8h-3.7v-9.6zm3.6 7.8c1.8 0 2.9-1.1 2.9-3s-1.1-3-2.9-3h-1.2v6h1.2z"/>
	<path class="st1" d="m9.5 57.4v-5.8h2.3v5.5c0 1.5 0.5 2.4 2 2.4 1.4 0 2-0.8 2-2.3v-5.5h2.3v5.8c0 2.8-1.9 4-4.3 4-2.4-0.1-4.3-1.3-4.3-4.1z"/>
	<path class="st1" d="m25.3 57.4v-5.8h2.1v9.6h-1.8l-4.5-6.1v6.1h-2.1v-9.6h2.2l4.1 5.8z"/>
	<path class="st1" d="m30.7 51.6v9.6h-2.3v-9.6h2.3z"/>
	<path class="st1" d="m34.7 61.2l-3.7-9.6h2.4l2.6 6.8 2.5-6.8h2.3l-3.7 9.6h-2.4z"/>
	<path class="st1" d="m48.5 61.2h-7.4v-9.6h7.3v1.9h-5v1.9h3.9v1.9h-3.9v2h5.1v1.9z"/>
	<path class="st1" d="m55.3 61.2c-0.2-0.3-0.3-0.9-0.4-1.9-0.1-1.1-0.6-1.4-1.5-1.4h-1.9v3.3h-2.3v-9.6h4.6c2.5 0 3.7 1.2 3.7 3 0 1.4-0.9 2.3-2.1 2.5 1 0.2 1.6 0.8 1.7 1.9 0.1 1.4 0.2 1.9 0.5 2.2h-2.3zm-1.9-5.1c1.2 0 1.8-0.4 1.8-1.3s-0.6-1.3-1.8-1.3h-2v2.6h2z"/>
	<path class="st1" d="m59.8 57.7c0.1 1.3 1.1 1.9 2.3 1.9 1 0 1.7-0.4 1.7-1s-0.6-0.8-1.4-1l-1.8-0.3c-1.5-0.3-2.6-1.1-2.6-2.8 0-1.9 1.5-3.1 3.8-3.1 2.6 0 4 1.3 4.1 3.4l-2.1 0.1c-0.1-1.1-0.8-1.7-2-1.7-1 0-1.5 0.4-1.5 1.1 0 0.5 0.4 0.7 1.1 0.9l1.8 0.3c2 0.4 2.9 1.3 2.9 2.9 0 2-1.7 3-3.9 3-2.6 0-4.4-1.3-4.4-3.6l2-0.1z"/>
	<path class="st1" d="M69.3,51.6v9.6H67v-9.6H69.3z"/>
	<path class="st1" d="m73.2 61.2v-7.7h-3.3v-1.9h9v1.9h-3.4v7.7h-2.3z"/>
	<path class="st1" d="m86.3 51.6h2.5l-3.7 5.9v3.7h-2.2v-3.7l-3.7-5.9h2.6l2.3 3.7 2.2-3.7z"/>
	<path class="st1" d="m9.2 69.6c0-3 2.2-5 4.9-5 2.8 0 4.4 1.5 4.6 4l-2.3 0.1c-0.1-1.2-0.9-2-2.3-2-1.6 0-2.6 1.2-2.6 2.9 0 1.8 1 3 2.7 3 1.1 0 2-0.5 2.3-1.5h-2.3v-1.7h4.5v4.9h-2v-1.2c-0.5 1-1.6 1.4-2.9 1.4-2.6 0.1-4.6-1.9-4.6-4.9z"/>
	<path class="st1" d="m19.6 70.7v-5.8h2.3v5.5c0 1.5 0.5 2.3 2 2.3 1.4 0 2-0.8 2-2.3v-5.5h2.3v5.8c0 2.8-1.9 4-4.3 4-2.4-0.1-4.3-1.2-4.3-4z"/>
	<path class="st1" d="M31.3,64.8v9.6H29v-9.6H31.3z"/>
	<path class="st1" d="m32.3 64.8h3.7c3.2 0 5.1 1.8 5.1 4.8s-2 4.8-5.1 4.8h-3.7v-9.6zm3.6 7.8c1.8 0 2.9-1.1 2.9-3s-1.1-3-2.9-3h-1.3v6h1.3z"/>
	<path class="st1" d="m49.1 74.4h-7.4v-9.6h7.3v1.9h-5v1.9h3.9v1.9h-3.9v2h5.1v1.9z"/>
	<path class="st2" d="m16.6 85.7v1.9h-7.4v-1.6l2.7-2.2c1.5-1.2 2.1-1.8 2.1-2.8 0-0.7-0.4-1.3-1.2-1.3-0.9 0-1.3 0.7-1.3 1.6 0 0.4 0 0.6 0.1 0.8l-2.3-0.1c-0.1-0.3-0.1-0.6-0.1-0.9 0-2 1.5-3.4 3.7-3.4 2.3 0 3.6 1.3 3.6 3.1 0 1.7-1 2.6-2.5 3.8l-1.3 1.1h3.9z"/>
	<path class="st2" d="m21.1 87.8c-2.6 0-4.3-1.8-4.3-5s1.7-5 4.3-5 4.3 1.8 4.3 5-1.7 5-4.3 5zm0-8.1c-1.3 0-1.8 1-1.8 3.1s0.5 3.1 1.8 3.1 1.8-1 1.8-3.1-0.5-3.1-1.8-3.1z"/>
	<path class="st2" d="M25.8,79.5c1.3,0,2-0.5,2.3-1.5H30v9.6h-2.3V81h-1.8V79.5z"/>
	<path class="st2" d="m30.6 85.1c0-1.2 0.8-2.1 1.8-2.3-1-0.4-1.5-1.1-1.5-2.2 0-1.7 1.5-2.7 3.6-2.7s3.6 1 3.6 2.7c0 1.1-0.5 1.8-1.5 2.2 1.1 0.3 1.8 1.1 1.8 2.3 0 1.7-1.4 2.8-3.9 2.8s-3.9-1.1-3.9-2.8zm2.3-0.3c0 0.8 0.6 1.3 1.6 1.3s1.6-0.5 1.6-1.3-0.6-1.3-1.6-1.3-1.6 0.5-1.6 1.3zm0.3-4c0 0.8 0.5 1.2 1.3 1.2s1.4-0.4 1.4-1.2-0.5-1.2-1.4-1.2c-0.8-0.1-1.3 0.4-1.3 1.2z"/>
	<path class="st1" d="m9 105v-5h2v4.7c0 1.3 0.5 2 1.7 2s1.7-0.7 1.7-2v-4.7h2v5c0 2.4-1.6 3.4-3.6 3.4-2.2 0-3.8-1-3.8-3.4z"/>
	<path class="st1" d="m22.6 105v-4.9h1.8v8.2h-1.6l-3.8-5.2v5.2h-1.8v-8.2h1.9l3.5 4.9z"/>
	<path class="st1" d="m27.5 100.1v8.2h-2v-8.2h2z"/>
	<path class="st1" d="M31.1,108.2l-3.2-8.2H30l2.2,5.8h0.1l2.2-5.8h2l-3.2,8.2H31.1z"/>
	<path class="st1" d="m43.1 108.2h-6.3v-8.2h6.2v1.6h-4.3v1.6h3.3v1.6h-3.3v1.7h4.4v1.7z"/>
	<path class="st1" d="m49.1 108.2c-0.2-0.2-0.3-0.8-0.3-1.6-0.1-0.9-0.5-1.2-1.3-1.2h-1.7v2.8h-1.9v-8.2h4c2.1 0 3.2 1 3.2 2.6 0 1.2-0.8 2-1.8 2.1 0.9 0.2 1.4 0.7 1.5 1.6 0.1 1.2 0.2 1.6 0.4 1.9h-2.1zm-1.5-4.3c1 0 1.5-0.3 1.5-1.1 0-0.7-0.5-1.1-1.5-1.1h-1.7v2.2h1.7z"/>
	<path class="st1" d="m53.2 105.3c0.1 1.1 0.9 1.6 1.9 1.6 0.9 0 1.4-0.3 1.4-0.9s-0.5-0.7-1.2-0.8l-1.5-0.3c-1.3-0.2-2.2-1-2.2-2.4 0-1.6 1.3-2.6 3.3-2.6 2.2 0 3.4 1.1 3.5 2.9l-1.8 0.1c-0.1-1-0.7-1.4-1.7-1.4-0.8 0-1.3 0.3-1.3 0.9 0 0.5 0.4 0.6 1 0.8l1.5 0.3c1.7 0.3 2.4 1.1 2.4 2.5 0 1.7-1.5 2.6-3.3 2.6-2.2 0-3.7-1.1-3.7-3.1l1.7-0.2z"/>
	<path class="st1" d="m61.3 100.1v8.2h-2v-8.2h2z"/>
	<path class="st1" d="M64.9,108.2v-6.6H62v-1.6h7.7v1.6h-2.9v6.6H64.9z"/>
	<path class="st1" d="m75.9 100.1h2.1l-3.2 5.1v3.1h-1.9v-3.1l-3.1-5.1h2.2l2 3.2 1.9-3.2z"/>
	<path class="st1" d="m12.9 119.4c-2.4 0-4.2-1.7-4.2-4.3 0-2.5 1.8-4.3 4.2-4.3s4.2 1.7 4.2 4.3-1.8 4.3-4.2 4.3zm0-6.8c-1.3 0-2.2 1-2.2 2.5s0.8 2.5 2.2 2.5c1.3 0 2.2-1 2.2-2.5s-0.9-2.5-2.2-2.5z"/>
	<path class="st1" d="m17.8 119.2v-8.2h6.1v1.6h-4.1v1.8h3.1v1.6h-3.1v3.1h-2z"/>
	<path class="st1" d="M29.2,119.2v-6.6h-2.8v-1.6H34v1.6h-2.9v6.6H29.2z"/>
	<path class="st1" d="m34.7 119.2v-8.2h2v3.2h3.6v-3.2h2v8.2h-2v-3.4h-3.6v3.4h-2z"/>
	<path class="st1" d="m49.7 119.2h-6.3v-8.2h6.2v1.6h-4.3v1.6h3.3v1.6h-3.3v1.7h4.4v1.7z"/>
	<path class="st1" d="m14.5 122.1h2.1l-3.2 5.1v3.1h-1.9v-3.1l-3.1-5.1h2.2l2 3.2 1.9-3.2z"/>
	<path class="st1" d="M23.4,130.2h-6.3v-8.2h6.2v1.6H19v1.6h3.3v1.6H19v1.7h4.4V130.2z"/>
	<path class="st1" d="m29.1 122.1l3.3 8.2h-2.1l-0.7-1.8h-3.3l-0.7 1.8h-2l3.3-8.2h2.2zm-2.3 4.9h2.2l-1.1-2.7h-0.1l-1 2.7z"/>
	<path class="st1" d="m38 130.2c-0.2-0.2-0.3-0.8-0.3-1.6-0.1-0.9-0.5-1.2-1.3-1.2h-1.7v2.8h-1.9v-8.2h4c2.1 0 3.2 1 3.2 2.6 0 1.2-0.8 2-1.8 2.1 0.9 0.2 1.4 0.7 1.5 1.6 0.1 1.2 0.2 1.6 0.4 1.9h-2.1zm-1.6-4.3c1 0 1.5-0.3 1.5-1.1 0-0.7-0.5-1.1-1.5-1.1h-1.7v2.2h1.7z"/>
<line class="st3" x1="8.9" x2="101.4" y1="93.8" y2="93.8"/>
			<path class="st4" d="m55.5 17.9s0.1-0.4 0.1-0.5v-0.4h0.2l0.1 0.2c0 0.1 0.1 0.2 0.1 0.2l0.3-0.3h0.2v-0.1-0.1s-0.2 0-0.2-0.1-0.1-0.2-0.1-0.2-0.1-0.1-0.1-0.1h-0.2-0.2s0 0.1-0.2 0.1-0.3-0.1-0.3-0.1-0.2 0.2-0.2 0.3v0.2s-0.1 0.2-0.3 0.2h-0.4s-0.1 0-0.1 0.1 0.1 0.1 0 0.1-0.2 0.1-0.2 0.1 0.1-0.1 0-0.2c0-0.1-0.1-0.3 0-0.4s0.4-0.1 0.4-0.2-0.1-0.3-0.1-0.3c-0.1-0.1 0-0.2 0-0.2 0.1 0-0.1 0-0.1-0.1s0.2-0.3 0.2-0.3h0.3s0.1-0.2 0.3-0.2 0.2 0 0.3 0.1 0.2 0 0.3 0-0.1-0.1-0.1-0.2v-0.2s0.1 0.1 0.3 0.1c0.2 0.1 0.2 0 0.1-0.1 0.1-0.3 0.1-0.3 0.1-0.4s0.1 0 0.2 0h0.3s0-0.1-0.1-0.1-0.1-0.1-0.2-0.1l-0.1-0.1s0 0-0.1-0.1-0.1-0.2-0.1-0.2 0 0-0.1 0-0.1-0.1-0.2-0.2c-0.1 0-0.1 0-0.1-0.1v-0.1c-0.1 0-0.2 0-0.2-0.1s-0.1-0.2-0.1-0.2 0 0-0.1 0-0.2-0.2-0.2-0.3 0.1 0 0.2 0 0.1 0.1 0.1 0.1 0.1 0 0.1 0l0.1 0.1s0.1 0 0.1 0.1c0.1 0 0.1 0.1 0.1 0.1s0.1 0 0.2 0l0.1 0.1s0.1 0 0.1 0c0.1 0 0.2 0.1 0.2 0.1s0.2 0 0.3 0.1 0.1 0.2 0.1 0.2h0.2c0 0.1 0.1 0.2 0.1 0.2h0.1s0.1-0.1 0.1-0.2 0.1-0.3 0.1-0.3h0.2s-0.1 0.1-0.1 0.2 0.1 0.2 0.1 0.3-0.1 0.1 0 0.2l0.2 0.2s0-0.2 0-0.3 0.4-0.5 0.4-0.5h0.2s-0.1 0.2 0 0.4c0 0.1 0.2 0.3 0.2 0.4s0.1 0.2 0.1 0.2 0.4-0.2 0.6-0.2 0.4 0.1 0.4 0.1c0-0.1-0.1-0.2 0-0.3 0.1 0 0.5-0.1 0.5-0.1l0.1 0.1s-0.3 0.1-0.3 0.1c0 0.1 0.1 0.3 0.1 0.3-0.1 0.1-0.2 0.2-0.3 0.2h-0.3l-0.2 0.1s0.3 0 0.4 0 0.3 0 0.4-0.1 0.1-0.2 0.2-0.2h0.3v0.1s-0.3 0-0.4 0.1-0.2 0.3-0.3 0.3h-0.5c-0.1 0-0.5 0.1-0.5 0.1s0.7-0.1 0.8-0.1 0.3 0 0.5-0.1 0.4-0.1 0.5-0.1h0.1v0.1s-0.4 0.1-0.5 0.2c-0.3 0.4-0.4 0.4-0.5 0.4s-0.7-0.1-0.8 0h-0.1l-0.3-0.3s0.5-0.4 0.7-0.4 0.3 0 0.4-0.1c0-0.1 0-0.3 0.1-0.3 0-0.1 0 0.1-0.1 0.2 0 0.1 0 0.2-0.1 0.2h-0.4l-0.5 0.3-0.1-0.1s0.5-0.3 0.6-0.3c0 0-0.1-0.1-0.1 0l-0.4 0.2s-0.1 0.3-0.2 0.3c0 0 0.4 0.4 0.6 1 0.3 1-0.1 1.6-0.1 1.6l0.1 0.1v0.1l-0.1 0.3 0.4-0.1 0.1 0.1s0.3-0.1 0.5-0.1c0.2-0.1 0.3-0.1 0.3-0.1s0.1 0.1 0.2 0.1 0.4 0.2 0.5 0.2v0.1l0.3 0.1s0-0.3-0.1-0.4c0-0.1-0.1-0.3-0.1-0.3h0.1l0.2 0.1c0.1 0.1 0.2 0.1 0.2 0.1s0.1-0.2 0.1-0.3v-0.4h0.2s0.1 0.1 0.1 0.2 0.1 0.2 0.1 0.2 0.2-0.2 0.3-0.2 0.3-0.1 0.3-0.1h0.1l-0.2 0.2c-0.1 0.1-0.2 0.4-0.2 0.4l0.1-0.1h0.1v0.1l0.1-0.1h0.1v0.1l0.1-0.1 0.1 0.1-0.1 0.1 0.1-0.1h0.1v0.1s0.1 0 0.1-0.1-0.1-0.5-0.1-0.5l0.1-0.1s0.1 0.1 0.1 0.2l0.1 0.1s0.1-0.1 0.1-0.3c0-0.1 0.1-0.3 0.1-0.3h0.1l0.1 0.2v0.2s0.2-0.2 0.2-0.3 0.2-0.2 0.2-0.2h0.1s-0.1 0.3-0.1 0.4v0.3s0.3-0.1 0.4-0.1h0.4l0.1 0.1s-0.3 0.1-0.4 0.1l-0.2 0.2s0.2 0 0.4 0h0.2v0.1s-0.3 0.1-0.4 0.2l-0.5 0.3s0.2 0.1 0.2 0.2l0.2 0.2-0.1 0.1s-0.4 0-0.5-0.1c-0.1 0-0.7 0.1-0.7 0.1h0.3l-0.3 0.1 0.4-0.1v0.1s-0.1 0.2-0.2 0.2c0 0.1-0.1 0.1-0.1 0.1l0.5-0.3h0.1v0.2c0 0.1-0.1 0.3-0.1 0.3s0.2 0 0.4-0.1 0.3-0.1 0.3-0.1v0.1s0 0.1-0.1 0.2-0.2 0.1-0.2 0.1 0.3 0 0.4 0h0.3l-0.1 0.5s-0.5 0.2-0.6 0.3c-0.1 0-0.5 0.3-0.5 0.3s0.4 0.1 0.5 0.1c0.4 0.1 0.4 0.1 0.7 0.2l-0.3 0.4s-2.2 0.4-4.5 0.2c-2.5-0.2-5.1-1.2-5.6-1.2-0.3 0-1 0.2-1.2 0.4s-0.2 0.3 0 0.2c0.1-0.1 0.7-0.5 1.2-0.4 0.5 0 1.1 0.3 1.1 0.3l-0.2 0.2-0.8-0.2c-0.3 0-0.7 0.1-0.9 0.2s-0.3 0.5-0.6 0.4c-0.2 0-0.4-0.2-0.5-0.3 0-0.1 0-0.4 0.1-0.5s0-0.2 0-0.2l-0.3 0.2s0.1 0.2 0.1 0.3c-0.1 0.1-0.3 0-0.3 0l-0.8 0.4-0.1 0.1s0.1 0.1 0 0.2-0.3 0.1-0.7 0.1-0.9-0.2-0.9-0.2l-0.1 0.1h0.1l-0.3 0.3h-0.1l-0.6-0.1-0.2-0.3v-0.6l0.1-0.1-0.5-0.4s-0.1 0.2-0.1 0.3c0.1 0.2 0.1 0.4 0 0.6-0.2 0.2-0.4 0.2-0.5 0.1s-0.4-0.5-0.8-0.7c-0.3-0.2-1.4 0.3-1.4 0.3l-0.2-0.4s0.8-0.2 1.3-0.3c0.5 0 0.9 0.3 1 0.4s0.2 0 0.1-0.1-0.2-0.3-0.5-0.4-0.9-0.1-1.1 0c-0.2 0-2.9 0.9-4 1-0.7 0.1-1.8 0.1-1.8 0.1s-1 0-1.5 0-2.5-0.2-2.5-0.2-0.1-0.1-0.1-0.2-0.2-0.3-0.2-0.3 0.3-0.1 0.4-0.1 0.6-0.1 0.6-0.1-0.3-0.1-0.4-0.2c-0.1 0-0.6-0.3-0.6-0.3s-0.1-0.2-0.1-0.3-0.1-0.3-0.1-0.3 0.1 0 0.4 0c0.2 0 0.4 0.1 0.4 0.1s0 0 0 0h0.2s-0.1 0-0.1 0 0-0.1 0-0.1 0.1 0.1 0.2 0.1 0.3 0.1 0.3 0.1h-0.1-0.2-0.1 0.1s-0.2 0-0.3 0.1c-0.1 0 0 0 0 0h0.2l0.4-0.2s-0.2 0-0.2 0c-0.1 0-0.2-0.1-0.2-0.1s0-0.1 0-0.1h0.1 0.2s-0.1-0.1-0.1-0.1h0.1s0 0 0 0h0.1s0-0.1-0.1-0.1h-0.3c-0.1 0 0-0.2 0-0.2l0.1-0.1 0.1-0.1h-0.2-0.1-0.1s-0.1-0.1-0.1-0.1v-0.1h-0.1-0.1 0.1-0.1-0.1 0.1-0.1l-0.1-0.1h-0.1l-0.1-0.1h-0.1l-0.1-0.1s0 0 0.1 0h0.1 0.1s-0.1 0-0.1 0h-0.1s0.1 0 0.1 0h0.1 0.1 0.1 0.1s0 0 0 0h0.2-0.1 0.2 0.1v-0.1-0.1s0 0-0.1 0h-0.1v-0.1l-0.1 0.1h-0.1-0.2-0.1 0.1-0.1-0.1 0.1-0.1-0.1 0.1l-0.1-0.1-0.1-0.1h0.1s-0.1 0-0.1-0.1l-0.1-0.1-0.1-0.1h0.1s-0.1-0.1-0.1-0.1v-0.1l0.1 0.1s0-0.1-0.1-0.1v-0.1s0 0 0 0.1l0.1 0.1 0.1 0.1 0.1 0.1v-0.1h0.1 0.1 0.1 0.1v-0.1h0.1 0.1 0.1 0.1l0.1 0.1 0.1 0.1v0.2 0.1l0.1 0.1v0.1s0 0 0-0.1v-0.2l0.1-0.1s-0.1 0-0.1-0.1l-0.1-0.1s0 0 0 0.1h0.1c0-0.1-0.1-0.1-0.1-0.1s0.1 0.1 0.1 0.1l-0.1-0.1v-0.1-0.1s0 0 0 0v0.1l0.1 0.1-0.1-0.1s0-0.1 0-0.1l0.1 0.1s0-0.1-0.1-0.1v-0.1s0.1 0.1 0 0v-0.1-0.1-0.1s0 0 0.1 0.1v0.1s0 0.1 0.1 0.1c0.3-0.1 0.3-0.1 0.3-0.1l0.1 0.1c0 0.1 0.1 0.1 0.1 0.1v0.1 0.1l-0.1 0.1s0 0 0.1 0h0.2c0.1 0 0.2 0.1 0.2 0.1s0-0.1 0.1-0.1h0.1 0.1s-0.1-0.1-0.1-0.2c-0.1-0.1-0.1-0.2-0.1-0.3s0.1-0.2 0.1-0.3-0.2-0.2-0.2-0.2c-0.1 0-0.2 0.1-0.2 0.1-0.1 0-0.3-0.1-0.4-0.1l-0.2-0.2v-0.1s0.1-0.1 0.1 0c0 0 0.2 0.1 0.3 0.1 0 0 0.2 0 0.4-0.1 0.1-0.1 0.4-0.1 0.5-0.1s0.3 0.2 0.3 0.2h0.1 0.1s0 0 0.1 0c0 0 0.2 0.1 0.2 0.2v0.1s0.1 0.1 0.2 0.1c0 0 0.6-0.1 0.8-0.1 0.1 0 0.5 0 0.6 0.1s0.4 0.3 0.4 0.4 0.2 0.5 0.2 0.6 0 0.4-0.1 0.4l-0.1 0.1s0.2 0.1 0.2 0.2c0.1 0 0.1 0.1 0.1 0.1v-0.1h0.1l-0.1-0.1s-0.1-0.1 0-0.1h0.2c0.1 0 0.1-0.1 0.2-0.1l0.1-0.1h-0.2-0.1c-0.1 0-0.1-0.1-0.1-0.1s0-0.1 0.1-0.1c0 0 0.1-0.1 0.2-0.1h0.2 0.1l0.2-0.1 0.2-0.1h0.1s-0.1 0-0.2 0-0.2 0-0.3 0.1c-0.1 0-0.2 0.1-0.3 0.1h-0.3l-0.1-0.1s0.1 0 0.1-0.1h0.3s0.1 0 0.1-0.1l0.2-0.1h0.2s0-0.1 0.1-0.1v-0.1l-0.1-0.1s-0.1-0.1-0.2-0.1v-0.2s0.1-0.1 0.1-0.2h-0.1l-0.1 0.1h-0.1v0.1c0 0.1 0.1 0.1 0.1 0.1h-0.1l-0.3-0.3c-0.1-0.1-0.2 0-0.2-0.1l-0.2-0.2 0.1-0.2s0-0.1 0-0.1v-0.1s-0.2-0.1-0.3-0.2v-0.3c0.1-0.1 0.2-0.4 0.2-0.5s0.1-0.2 0.1-0.2v-0.1s-0.1 0-0.1 0v-0.1s-0.1 0.1-0.2 0 0-0.1 0-0.1-0.2 0.1-0.2 0c0-0.2 0.1-0.1 0.1-0.1s-0.2-0.2 0-0.3 0.2 0 0.2 0 0-0.1 0.1-0.2 0.2 0 0.2 0h0.1l-0.1-0.3s0.2 0.1 0.3 0.1 0-0.1 0-0.1-0.3-0.1-0.3-0.1 0.3-0.1 0.3-0.1l0.3-0.2s-0.1 0.3-0.1 0.4 0.1 0.1 0.1 0.1l0.2-0.3 0.1 0.4h0.1s-0.1-0.2 0.1-0.2c0.1-0.1 0.2 0 0.2 0s-0.1-0.2 0.1-0.3c0.2 0 0.2 0.1 0.2 0.1s0.1-0.2 0.3-0.1c0.3 0.2 0.1 0.3 0.1 0.3s0.1 0 0.1 0.1-0.1 0.2-0.1 0.2 0.2-0.1 0.3 0.1c0.2 0.2 0.2 0.3 0.2 0.3s0.2-0.1 0.4 0 0.2 0.1 0.3 0c0.1 0 0.3-0.1 0.3-0.1v0.2l-0.2 0.1s0.4 0.2 0.5 0.1c0.1 0 0.2-0.1 0.2-0.1s0.1 0.2 0 0.3-0.4 0-0.4 0l0.1 0.1-0.1 0.1h-0.1s0.3 0 0.5 0.1c0.1 0.1 0.2 0.3 0.4 0.4s0.3 0.1 0.3 0.1-0.2 0.1-0.3 0c-0.2-0.1-0.4-0.2-0.5-0.2h-0.3s0.2 0.2 0.3 0.2 0.3 0.1 0.4 0.2 0.4 0.1 0.5 0.2 0.2 0.4 0.2 0.4-0.1 0-0.2-0.1c-0.1 0-0.1-0.1-0.2-0.1s-0.4-0.2-0.4-0.2 0.1 0.2 0.2 0.3 0.3 0.1 0.4 0.2 0.2 0.3 0.2 0.4v0.1s-0.2-0.2-0.3-0.3c-0.1 0-0.3-0.1-0.3-0.1s0.1 0.1 0.2 0.3c0.1 0.1 0.3 0.2 0.3 0.3s0.1 0.3 0.1 0.3 0.5-0.1 0.6-0.3c0.1-0.1 0.3-0.6 0.3-0.6s-0.1-0.4-0.2-0.5l-0.2-0.2s0.2-0.1 0.2-0.1h0.1s-0.2-0.3-0.3-0.4-0.1-0.2-0.1-0.2 0.2 0.1 0.3 0.1h0.2s-0.1-0.3-0.1-0.4v-0.2s0.2 0.1 0.2 0.1l0.1 0.1s0.1-0.3 0.2-0.4v-0.5s0 0.1 0.1 0.2 0.1 0.2 0.1 0.3c0.2 0.3 0.4 0.4 0.4 0.4l0.2-0.2s-0.1 0 0-0.1l0.1-0.1s-0.1 0-0.1-0.1l-0.1-0.1s-0.1 0.1-0.2 0 0-0.3 0-0.3-0.2 0.1-0.3-0.1c-0.1-0.1 0.1-0.2 0.1-0.2s-0.2 0-0.2-0.2c0-0.1 0.1-0.1 0.1-0.1s-0.1-0.1 0-0.2 0.2-0.1 0.2-0.1 0-0.1 0.1-0.2 0.2 0 0.2 0 0-0.1 0.2-0.1c0.1 0 0.2 0.1 0.2 0.1s0.1-0.2 0.2-0.1l0.2 0.4s0 0 0.1-0.1l0.1-0.1s0.1 0 0.2 0.1l0.2 0.1v-0.6h0.1l-0.1-0.2h0.2 0.8 0.2l-0.1 0.1h0.1v0.7l0.4-0.2 0.1 0.1 0.1 0.1s0-0.1 0.1-0.1h0.2s0.1-0.1 0.2-0.1 0.2 0.1 0.2 0.1 0.2-0.1 0.2 0l0.1 0.1s0.1-0.1 0.2 0 0.1 0.2 0.1 0.2 0.2 0 0.2 0.1c0 0.2-0.2 0.2-0.2 0.2s0.1 0.1 0.1 0.2c-0.1 0.1-0.3 0.1-0.3 0.1s0.1 0.1 0 0.2-0.3 0-0.3 0-0.1 0.1-0.1 0.1l-0.1 0.1s0.2 0.1 0.2 0.1h-0.1s0.1 0.1 0.2 0.1l0.2 0.2s0.2-0.2 0.2-0.4c0.1-0.2 0.2-0.5 0.2-0.5s0.1 0.2 0.1 0.3 0.1 0.5 0.1 0.5 0.1-0.1 0.1-0.2l0.2-0.1s0 0.1 0 0.2v0.3h0.2 0.2s0.2 0.2 0.1 0.3-0.2 0.2-0.2 0.3-0.1 0.2-0.1 0.2 0.2 0.1 0.2 0.1h0.2s-0.2 0.2-0.3 0.2c0 0.1-0.2 0.2-0.2 0.2s0.1 0.2 0.1 0.3 0.1 0.2 0.1 0.2 0.5 0.3 0.8 0.4 0.3 0.1 1.1 0.2l-0.1-0.2zm-0.2 2.3c-0.1 0-0.2 0.1-0.1 0.2 0 0.1 0.1 0.3 0.1 0.4 0.1 0.1 0.3 0.2 0.3 0s-0.1-0.4-0.1-0.5c-0.1-0.1-0.2-0.1-0.2-0.1zm0-0.1c0.2 0 0.4 0.2 0.4 0.4s0.1 0.5-0.2 0.5-0.4-0.2-0.5-0.3c0-0.1-0.1-0.3-0.1-0.3 0.1-0.1 0.2-0.3 0.4-0.3zm0.4 0.2c0 0.1 0.1 0.1 0.1 0.1l0.1 0.5c0 0.1-0.1 0.1-0.1 0.1v0.1l0.4 0.2v-0.1s-0.1-0.1-0.2-0.1v-0.3s0.6 0.6 0.6 0.6h0.2s-0.2-0.6-0.2-0.7 0-0.1 0.1-0.1h0.1v-0.1s-0.2 0-0.2-0.1c-0.1 0-0.2-0.1-0.2-0.1v0.1s0.1 0 0.2 0.1c0 0.1 0.1 0.4 0.1 0.4l-0.5-0.6h-0.5zm-2.1-0.2l-0.1 0.1h0.1s0.2 0.4 0.2 0.5v0.1h-0.1v0.1l0.3-0.1v-0.1h-0.1l-0.1-0.3 0.4 0.4h0.1l0.2-0.4 0.1 0.2v0.1 0.1h0.3 0.3v-0.1s-0.1 0-0.1-0.1l-0.1-0.4v-0.1h0.1v-0.1h-0.2-0.2l-0.2 0.4-0.4-0.4-0.5 0.1zm3.9 0.8l0.2 0.6s0.1 0.1 0.2 0 0-0.2 0-0.3-0.1-0.2-0.2-0.2c0-0.1-0.2-0.1-0.2-0.1zm-0.4-0.2c0 0.1 0.2 0.1 0.2 0.1s0.1 0.5 0.2 0.6h-0.1v0.1s0.4 0.1 0.5 0.1 0.4 0 0.4-0.2-0.1-0.4-0.2-0.5-0.3-0.2-0.4-0.2h-0.6zm1.5 0.4l0.1 0.2h0.2c0.1 0 0-0.2-0.1-0.2h-0.2zm-0.4-0.2c0 0.1 0.1 0.1 0.2 0.2 0 0.1 0.2 0.5 0.2 0.5 0 0.1-0.1 0.1-0.1 0.1v0.1l0.5 0.1v-0.1s-0.1 0-0.1-0.1l-0.1-0.2h0.2l0.2 0.2s0.2 0.2 0.3 0.2 0.2 0.1 0.2 0l-0.1-0.1-0.2-0.2-0.2-0.2s0.2-0.1 0.2-0.2-0.3-0.3-0.4-0.3c-0.3 0.1-0.8 0-0.8 0zm1.7 0.3c-0.1 0-0.1 0.1-0.1 0.1 0 0.1 0.1 0.4 0.1 0.4 0 0.1 0.1 0.1 0.2 0.1s0.1-0.1 0.1-0.2-0.1-0.4-0.2-0.4h-0.1zm-0.1-0.1c0.1 0 0.4 0 0.5 0.2 0.1 0.1 0.2 0.3 0.2 0.4s0 0.3-0.3 0.3-0.5-0.1-0.6-0.2-0.1-0.3-0.2-0.4c0-0.1 0-0.2 0.2-0.2l0.2-0.1zm-2.8-0.2l0.2 0.2-0.1 0.2-0.2-0.2 0.1-0.2zm-4.2 0.7l0.1-0.2v-0.2c0-0.1 0.1 0 0.1 0.1v0.1-0.1-0.1-0.1s0.1 0.1 0.1 0.1v0.1-0.2c0-0.1-0.1-0.1-0.1-0.1s0.1 0.1 0.1 0.1l0.1 0.1v-0.2-0.1s0.1 0.1 0.1 0.2v0.1-0.1-0.2l-0.1-0.2s0.1 0.1 0.1 0.2 0.1 0.2 0.1 0.2 0-0.2-0.1-0.3c0-0.1-0.1-0.2-0.1-0.2s0.1 0.1 0.1 0.2 0.1 0.3 0.1 0.3v-0.3l-0.1-0.3s0.1 0.1 0.1 0.2 0.1 0.3 0.1 0.3-0.1-0.3-0.1-0.4-0.1-0.2-0.1-0.2 0.1 0.1 0.1 0.2 0.1 0.3 0.1 0.3v-0.1l-0.1-0.3c0-0.1-0.1-0.2-0.1-0.2l0.2-0.3s0.6-0.1 0.9-0.1 1.9 0.4 2.7 0.7c0.8 0.2 2.2 0.4 2.5 0.4s0.7 0.1 0.7 0.1v0.1h-0.2l0.1 0.1s0.1 0 0.1 0.1 0.2 0.4 0.2 0.5l-0.1 0.1h-0.1v0.1h0.6v-0.1s-0.1 0-0.2-0.1-0.1-0.3-0.1-0.3 0.2 0.2 0.4 0.2h0.2v0.1h-0.1v0.1h0.5 0.2l-0.1-0.1s-0.1 0-0.2-0.1-0.1-0.2-0.1-0.2 0.1 0 0.1-0.1v-0.1s0.1 0 0.1 0 0.1-0.1 0.2 0l0.1 0.1h0.2l-0.2-0.3h-0.3v-0.1s0.4 0 0.5 0.1 0.4 0.3 0.4 0.3l-0.2 0.2 0.3 0.2 0.2-0.2-0.2-0.2v-0.1s0-0.1-0.1-0.2l-0.1-0.1s0.2 0 0.3 0 0.3 0.1 0.3 0.1v-0.1s-0.1 0-0.1-0.1c-0.1 0-0.2-0.2-0.2-0.2s0.2 0.1 0.3 0.1 0.4 0.1 0.4 0.1 0-0.1-0.1-0.2c-0.1 0-0.2-0.1-0.2-0.1s0.3 0.1 0.4 0.1 0.3 0.1 0.3 0.1-0.4 0.3-0.5 0.3-0.5 0.2-0.5 0.2v0.1s0.6 0.1 0.8 0.1 0.6 0.1 0.7 0.2c0.1 0 0.2 0.1 0.2 0.1s-1.3 0.2-2 0.3c-0.7 0-2.3 0.1-3.6-0.1s-2.6-0.6-2.9-0.6c-0.3-0.1-1.5-0.4-1.8-0.4-0.3-0.1-1.3 0.4-1.4 0.5zm8.5-1.7l-0.1 0.1h0.1l0.1-0.1h-0.1zm-0.1-0.2zm0.1 0h0.1v0.1l-0.1-0.1zm0.3 0.1v0.1h-0.1v-0.1h0.1zm0.1 0l0.1 0.1-0.1-0.1zm0-0.2l0.1 0.1-0.1-0.1zm-0.1 0l0.1 0.1v-0.1h-0.1zm-0.2 0h0.1-0.1zm-0.2 0l0.1 0.1-0.1-0.1zm-0.1-0.1l0.1 0.1v-0.1h-0.1zm0.5 0l0.2 0.1s-0.1-0.1-0.2-0.1zm-0.2-0.1zm-0.1 0zm-0.1 0l-0.1 0.1 0.1-0.1zm-0.3 0.2s0.3-0.3 0.6-0.2c0.4 0.1 0.4 0.4 0.4 0.4l-0.1-0.1v0.1h0.1-0.1l-0.1 0.2s-0.1 0-0.2-0.1h-0.1s0 0.1 0 0.1l-0.1 0.1v-0.1h-0.1-0.1v-0.1l0.1-0.2h-0.1v0.1-0.1h-0.1 0.1v-0.1h-0.1v0.2-0.1l-0.1-0.1h0.1v-0.1l-0.1 0.1zm0.4 1.2l0.1 0.1-0.1-0.1zm-0.1 0l0.1 0.1-0.1-0.1zm-0.1 0.1c0 0.1-0.2 0.1-0.2 0.2-0.1 0-0.1 0.1 0 0.2 0 0.1 0.2 0.3 0.4 0.4h0.3s-0.2-0.3-0.2-0.4v-0.1s0.1 0.1 0.1 0.2 0.1 0.2 0.1 0.2c0 0.1 0.1 0 0.1-0.1s-0.2-0.5-0.2-0.6c-0.1-0.1 0-0.2-0.1-0.2s-0.1 0-0.2-0.1c0-0.1-0.2-0.3-0.4-0.6s-0.3-0.9-0.3-1-0.1-0.1-0.1-0.1c-0.1 0-0.3-0.3-0.5-0.2-0.1 0-0.3 0.1-0.4 0.1-0.2 0.2-0.1 0.4-0.1 0.4s0.1-0.2 0.2-0.3 0.2-0.1 0.2-0.1-0.1 0.1-0.2 0.1c0 0.1-0.1 0.3-0.1 0.3s0-0.1 0.2-0.2l0.2-0.1s-0.1 0.1-0.2 0.2c0 0.1-0.1 0.2-0.1 0.2s0.1-0.1 0.2-0.2c0.1 0 0.1-0.1 0.1-0.1s-0.1 0-0.2 0.1l-0.1 0.1s0.1-0.1 0.2-0.1h0.2v0.1s-0.1 0-0.1 0.1l-0.2 0.1s0.2 0 0.2 0h0.2v0.1s-0.1 0-0.2 0.1l-0.2 0.1s0.2 0 0.3 0h0.1s-0.2 0-0.2 0.1c-0.1 0-0.1 0.1-0.1 0.1h0.2 0.1s-0.1 0.1-0.2 0.1l-0.1 0.1s0.1 0 0.2 0h0.2s-0.1 0-0.2 0.1h-0.1s0.2 0 0.2 0h0.1-0.1-0.2s0.1 0.1 0.2 0.1h0.2v0.1h-0.1-0.2s0.1 0.1 0.2 0.1h0.1v0.1h-0.2-0.1s0.1 0.1 0.2 0.1 0.2 0.1 0.2 0.1h-0.1-0.2s0.1 0.1 0.2 0.1 0.1 0 0.1 0.1c0 0-0.2-0.1-0.2 0 0 0 0 0.1 0.1 0.2 0.5-0.3 0.7-0.3 0.8-0.3zm1.7-0.6s-0.3 0.3-0.3 0.4c-0.1 0.1 0.1 0 0.2 0.1 0.1 0 0.4 0.2 0.4 0.2s-0.3-0.1-0.4-0.1h-0.2s0.2 0.1 0.2 0.2c0.1 0.1 0.2 0.3 0.2 0.3s-0.3-0.2-0.4-0.3l-0.3-0.3s0.1-0.1 0.2-0.1c0-0.1 0.4-0.4 0.4-0.4zm1.2 0.3l0.2 0.1 0.5-0.2s-0.1 0-0.2 0-0.5 0.1-0.5 0.1zm0.3-0.4s-0.5 0.3-0.5 0.4c0 0 0.1 0.1 0.3 0.2 0.1 0.1 0.3 0.2 0.3 0.2s-0.3-0.2-0.5-0.2-0.3-0.1-0.3-0.1 0.1-0.1 0.2-0.1c0.1-0.2 0.5-0.4 0.5-0.4zm-0.4-0.2s-0.3 0.4-0.4 0.5-0.3 0.2-0.3 0.2l0.1 0.1 0.3 0.2s-0.3-0.1-0.4-0.1-0.3-0.1-0.3-0.1 0.1-0.2 0.1-0.2c0.1-0.1 0.2-0.3 0.2-0.3s0 0.2 0 0.3v0.1s0.3-0.2 0.3-0.2c0-0.3 0.4-0.5 0.4-0.5zm-1-0.7c-0.1 0-0.6 0.3-0.6 0.3s0.3-0.2 0.4-0.3h0.2c0.1 0 0 0 0 0zm-0.1 0.3s-0.1 0.4-0.2 0.5v0.1l0.5 0.1-0.2-0.1s0.2-0.1 0.3-0.1c0.1-0.1 0.3-0.2 0.3-0.2s-0.2 0.1-0.4 0.1c-0.1 0-0.3 0.1-0.3 0.1v-0.2-0.3zm-0.6-0.2c0 0.1-0.1 0.6-0.2 0.7l-0.1 0.2s0.1 0 0.2-0.1c0.1 0 0.2-0.1 0.2-0.1s-0.3 0.2-0.4 0.3c-0.1 0-0.3 0.1-0.3 0.1l-0.1-0.1v-0.3-0.2l0.2 0.4h0.1s0.1-0.2 0.2-0.3c0-0.2 0.2-0.6 0.2-0.6zm-4.7-0.6v0.2c0 0.1 0 0.1-0.1 0.2l-0.1 0.2-0.1 0.2s-0.1-0.1 0-0.2c0.1-0.2 0-0.3 0-0.3l-0.2-0.1v0.3c0 0.1-0.1 0.1-0.1 0.1s0-0.1 0-0.2-0.1-0.2-0.1-0.2h-0.2s0 0.2 0.1 0.2c0 0.1 0 0.2-0.1 0.2s-0.2 0.1-0.2 0.1 0.1-0.1 0.1-0.2c-0.1-0.1-0.1-0.2-0.1-0.2h-0.1s0 0.2 0.1 0.2c0 0.1-0.1 0.2-0.1 0.2s0-0.1 0-0.2l-0.2-0.2s0.1 0.2 0.1 0.3c0 0 0 0.1-0.1 0.2l-0.2 0.1s0.2 0.1 0.2 0.1 0.3-0.1 0.4-0.1 1.3 0.5 1.6 0.5 0.4-0.1 0.5 0 0.3 0.3 0.2 0.4-0.2 0.1-0.3 0.1-0.5-0.1-0.4-0.1c0 0 0.3-0.1 0.3-0.1l-0.3-0.1s-0.3 0.1-0.4 0.1-1-0.2-1.3-0.3-0.8-0.2-0.8-0.2c-0.1 0 0.1-0.1 0.1-0.1h-0.1s-0.1 0.1-0.2 0.1h-0.1s0-0.1 0.1-0.1l0.2-0.1h-0.1s-0.3 0.1-0.3 0.2h-0.1l0.2-0.2s0.1 0 0.1-0.1h-0.1s-0.3 0.2-0.4 0.2c0 0.1-0.1 0-0.1 0l0.2-0.2c0.1 0 0.3-0.1 0.3-0.1s0-0.1-0.1-0.1-0.4 0.2-0.5 0.2-0.2 0.1-0.2 0.1v0.1h-0.2s-0.1-0.1 0-0.1 0.1-0.1 0.2-0.1 0.6-0.3 0.6-0.3 0-0.1 0.1-0.1h0.2 0.1s0.3-0.1 0.3-0.2c0.1-0.1 0.1-0.2 0.1-0.2s0.1 0.1 0.2 0l0.2-0.1h0.1l0.1-0.2s0.1 0 0 0l-0.1 0.2h0.1l0.1-0.2-0.1 0.2h0.1l0.1-0.2v0.1 0.1h0.1l0.1-0.2v0.2h0.1s0-0.1 0.1-0.1l0.1-0.1-0.1 0.2h0.1 0.3zm0.2 0.1l-0.3 0.6c0 0.1-0.1 0-0.1 0 0-0.1 0.4-0.6 0.4-0.6zm0.1 0.2s-0.2 0.5-0.3 0.6c0 0.1-0.1 0-0.1-0.1 0.1-0.1 0.4-0.5 0.4-0.5zm0.2 0.2s-0.2 0.4-0.3 0.5c0 0-0.1 0 0-0.1 0 0 0.3-0.4 0.3-0.4zm0 0.4s-0.1 0.2-0.1 0.3c0 0-0.1 0 0 0-0.1-0.2 0.1-0.3 0.1-0.3zm1.4 0.8s-0.1 0-0.1 0.1 0.1 0.1 0.1 0.1-0.2 0-0.2 0c0-0.1-0.1-0.2 0-0.2h0.2zm0.3 0.2c-0.1 0 0 0.1 0.1 0.1s0-0.2-0.1-0.1zm-0.4-0.5h0.2l0.1 0.3-0.1 0.1s0.1 0 0.2 0 0-0.1 0-0.2-0.1-0.3-0.2-0.3c-0.2 0-0.2 0.1-0.2 0.1zm0-0.7s0.1 0.3 0.2 0.3h0.1l-0.1 0.2s0.1 0 0.1 0.1c0 0 0.1 0.3 0.1 0.4s0.1 0.2 0.1 0.2l0.1 0.2 0.4-0.2s0-0.1-0.1-0.1-0.3-0.1-0.3-0.2v-0.4c0-0.1-0.1-0.4-0.3-0.4-0.1 0-0.1-0.1-0.1-0.1 0-0.1-0.2 0-0.2 0zm-0.3 0.1c0.1 0 0.2 0 0.2 0.1s0.1 0.2 0.1 0.2 0 0.1-0.1 0.1v0.1s0.1 0 0.2-0.1v-0.2c0-0.1-0.2-0.2-0.3-0.3-0.1 0-0.2 0.2-0.1 0.1zm0.1 0.3l-0.1 0.1c0 0.1 0.1 0.3 0.1 0.4s0.1 0 0.1 0c0.1 0 0.2-0.1 0.2-0.1h-0.1-0.1s0 0 0 0-0.1-0.3-0.1-0.4c0.1 0 0 0 0 0zm-0.6-0.4c0 0.1 0.1 0.2 0.3 0.2h0.2s-0.2 0.1-0.3 0c-0.1 0-0.2-0.2-0.2-0.2zm-0.1-0.2c-0.1 0-0.2 0.2-0.1 0.2l0.1 0.1s-0.5 0-0.2-0.4c0.2-0.2 0.4 0 0.4 0 0.1 0.1 0.1 0.2 0 0.2 0 0 0-0.1-0.1-0.1h-0.1zm-3.2-0.4s0 0.1 0.1 0.1 0.2 0 0.3-0.1 0.3-0.1 0.2-0.2c0-0.1-0.1-0.1-0.1-0.1h-0.1s0 0.1 0.1 0.1c0 0-0.2 0.1-0.2 0.2 0-0.1-0.2 0-0.3 0 0.1 0 0.1-0.1 0 0 0.1-0.1 0-0.1 0 0zm-0.4 0s-0.1-0.2 0.1-0.2c0.1 0 0.3-0.1 0.4-0.1h0.1l0.1 0.1s0 0.1-0.1 0v-0.1l-0.6 0.3c0.1 0 0 0.1 0 0zm-0.4 0.2s0 0.3 0.2 0.2 0.5-0.2 0.5-0.2v-0.2h-0.1v0.1c-0.1 0-0.4 0.1-0.5 0.1h-0.1c0.1-0.1 0 0 0 0zm-0.1 0c0 0.1 0 0.1-0.1 0.1h-0.3l-0.1 0.2s0.3 0 0.5-0.1c0.1 0.1 0.1-0.1 0-0.2zm-0.3 0c0-0.1 0.5-0.2 0.5-0.2s0.1 0 0.1 0.1h0.1s-0.1-0.2-0.2-0.2-0.4 0-0.5 0.1v0.2 0zm2-0.8c-0.1 0-0.1-0.1-0.3 0-0.1 0.1-0.3 0.2-0.3 0.3 0 0 0 0.1 0.1 0.2 0 0.1 0.1 0 0 0v-0.1s0.4-0.4 0.5-0.4v0c0.1 0 0 0 0 0zm0.4-0.2l0.1 0.2c-0.1 0.1-0.3 0.2-0.3 0.3h-0.2l-0.1-0.1h0.1s0.1 0.1 0.1 0c0 0 0.3-0.2 0.3-0.3v-0.1c-0.1 0-0.1 0 0 0-0.1-0.1 0 0 0 0zm-1.6 0.1s-0.3 0.4-0.3 0.4v0.1l-0.1-0.1 0.2-0.3c0.1 0 0.2-0.1 0.2-0.1zm-0.3-0.1s-0.3 0.4-0.3 0.4c0 0.1-0.1 0.2-0.1 0.2h-0.1l0.1-0.2c0.1-0.2 0.4-0.4 0.4-0.4zm-0.3-0.1s-0.2 0.3-0.2 0.4c-0.1 0.1-0.1 0.3-0.1 0.3s0-0.2 0-0.2c0-0.1 0.3-0.5 0.3-0.5zm-0.2-0.2l-0.1 0.1v-0.1h0.1zm4.6 0.1l-0.1 0.2 0.1-0.2zm0-0.3s-0.2 0.4-0.3 0.5c0 0.1-0.1 0 0 0 0.1-0.1 0.3-0.5 0.3-0.5zm0-0.3s-0.4 0.7-0.4 0.8-0.1 0 0 0c0-0.1 0.4-0.8 0.4-0.8zm0-0.5s-0.4 0.9-0.5 1v-0.2c0.1-0.1 0.5-0.8 0.5-0.8zm-0.4 1.9l-0.1 0.2h-0.1l0.2-0.2zm-2.5-1.6l0.3 0.5h0.1l0.4-0.3h0.1v0.5h0.1l0.5-0.3 0.1 0.1v0.5h0.1l0.5-0.2 0.1 0.1-0.1 0.5h0.1l0.5-0.2 0.2 0.1-0.2 0.4 0.1 0.1 0.4-0.1 0.1 0.1s-0.2 0.2-0.3 0.2c0 0.1-0.1 0.1-0.1 0.1s0.2-0.2 0.2-0.2l0.1-0.1-0.2 0.1c-0.1 0-0.3 0.2-0.3 0.2s0.2-0.2 0.2-0.2l-0.2 0.1-0.2 0.2h-0.1l0.2-0.2v-0.1l-0.2 0.2-0.6-0.4c-0.1-0.1-0.5-0.3-0.5-0.3v-0.2h-0.1v0.1c-0.1 0-0.2 0.1-0.2 0.1s0.2-0.2 0-0.3-0.3 0-0.3 0.1v0.2s-0.2-0.1-0.2-0.2c0.1-0.1 0.1-0.2 0.2-0.2h0.2s0-0.1-0.1-0.1h-0.2v-0.1h-0.1v0.1l-0.1 0.1s0.1-0.1 0-0.2c0-0.1-0.1-0.1-0.1-0.1v0.1l-0.1 0.1v-0.3l-0.1-0.1v0.4l-0.2-0.9zm-0.7-0.5s0 0.4-0.2 0.4h-0.4c-0.1 0-0.3 0.1-0.2 0.2 0 0.1-0.1-0.1 0.1-0.2 0.1-0.1 0.4-0.1 0.5-0.1s0.2-0.3 0.2-0.3zm-0.4-0.5c0 0.1 0.1 0.2 0.2 0.2s0.3-0.1 0.4-0.1 0.1 0.1 0.1 0.1-0.2 0-0.3 0-0.2 0.1-0.3 0c-0.1 0-0.2-0.1-0.2-0.2 0.1 0.1 0.1 0 0.1 0zm2.6 0c0 0.1-0.1 0.3-0.4 0.3s-0.5-0.1-0.5-0.2v-0.1s0.1 0.2 0.4 0.2c0.3-0.1 0.4-0.2 0.5-0.2-0.1 0 0 0 0 0zm0.1-0.8s-0.1 0.3 0.2 0.4c0.2 0.1 0.3 0 0.4 0l0.1-0.1s0.2 0.1 0.2 0.2 0 0.3-0.2 0.6c-0.1 0.3-0.1 0.5-0.1 0.5s0.2-0.3 0.2-0.4 0.2-0.3 0.2-0.3v0.2c0 0.1-0.2 0.4-0.3 0.5v0.3s0.1-0.2 0.2-0.3 0.2-0.4 0.3-0.4v0.1c0 0.1-0.3 0.6-0.3 0.7s-0.1 0.2-0.1 0.3 0.1-0.2 0.2-0.3 0.3-0.6 0.3-0.6 0 0.1 0 0.1-0.4 0.7-0.4 0.8v0.2l-0.2-0.1-0.4 0.2v-0.4l-0.2-0.1-0.3 0.2v-0.3s0.1 0 0.1 0h0.5l0.2-0.1v-0.3l-0.2 0.2h-0.4s0.3-0.1 0.4-0.2 0.3-0.5 0.3-0.5-0.2 0.3-0.3 0.3c-0.2 0.2-0.3 0.1-0.3 0.1s0.2-0.1 0.4-0.3l0.1-0.2s-0.2 0.4-0.5 0.4c-0.2 0-0.8-0.1-0.9-0.3s0-0.4 0-0.4l-0.1-0.1s-0.1 0.2-0.1 0.3-0.1 0.1-0.1 0.1v-0.2c0-0.1-0.1-0.2-0.1-0.2h-0.1v0.3c0 0.1-0.1 0.3-0.1 0.3h-0.2s0.2 0.1 0.2-0.1 0-0.4-0.1-0.4-0.1 0.1-0.1 0.1v0.2l-0.1 0.1s0.1-0.1 0.1-0.2 0-0.1-0.1-0.1c0 0-0.1 0-0.1 0.1 0 0 0.1 0.1 0 0-0.3-0.1-0.5-0.2-0.5-0.2s-0.3 0.1-0.3 0.1-0.2-0.2-0.2-0.2 0-0.1 0.1-0.1h0.4s0-0.3 0.3-0.3c0.2 0 0.4 0.2 0.4 0.2l0.6-0.1v-0.2h0.4 0.5l0.1-0.1zm-2.5 1.3c0 0.1 0 0.2-0.2 0.3-0.1 0-0.3 0.1-0.4 0.1s-0.1 0.1-0.1 0.1 0-0.2 0.2-0.2 0.3-0.1 0.3-0.1c0.2-0.1 0.2-0.2 0.2-0.2zm0.4-1c-0.1 0-0.1 0.2-0.1 0.2s0.3-0.1 0.3-0.1 0-0.2-0.2-0.1zm1.1 0c0.1-0.1 0.3-0.1 0.3-0.1l0.1-0.1h0.3c0.1 0 0.2 0.1 0.2 0.1s-0.1 0.2 0.2 0.3 0.4 0 0.4 0-0.1 0.1-0.3 0.1-0.3-0.1-0.3-0.1 0 0.1-0.3 0.1c-0.3-0.1-0.2-0.3-0.2-0.3s-0.3 0-0.4 0c-0.1 0.1 0 0 0 0zm0.5 0c0 0.1 0 0.1 0.1 0.1s0-0.1 0-0.1 0.2 0 0.1 0.1c0 0.1 0 0.1-0.2 0.1-0.1 0-0.1-0.1 0-0.2-0.1 0 0 0 0 0zm1.1-0.8c0 0.2 0.2 0.4 0.1 0.5-0.1 0.2-0.2 0.3-0.3 0.3s-0.1-0.1 0-0.2 0.3-0.2 0.3-0.4c-0.1-0.1-0.1-0.2-0.1-0.2zm-0.1-0.4c-0.1 0.2-0.2 0.3-0.1 0.5 0.1 0.1 0 0.4-0.2 0.5-0.1 0.1-0.1 0 0-0.1 0-0.1 0.2-0.2 0.1-0.3 0-0.1-0.1-0.2 0-0.3 0.1-0.2 0.2-0.3 0.2-0.3zm-2 0.8s0.1 0.1 0.5 0.1c0.4-0.1 0.7-0.1 0.8-0.1s-0.4-0.2-0.6-0.1-0.3 0.1-0.4 0.1h-0.3zm0.4-0.2s0 0.1 0.4 0.1 0.4-0.1 0.6 0-0.2-0.2-0.4-0.1h-0.3-0.3zm0.8-0.3c0.1 0 0.1 0.2 0.1 0.2s-0.2-0.2-0.1-0.2zm-0.2-0.1c0.1 0 0.1 0.2 0.1 0.2s-0.2-0.2-0.1-0.2zm-0.3-0.2c0.1-0.1 0.2 0.5 0.2 0.4s-0.3-0.3-0.2-0.4zm-0.4-0.2c0.1-0.1 0.2 0.5 0.2 0.5s-0.3-0.4-0.2-0.5zm-0.3-0.2c-0.1 0 0.2 0.4 0.2 0.4s-0.1-0.4-0.2-0.4zm-0.3-0.2c0.1 0 0.2 0.4 0.2 0.4s-0.3-0.3-0.2-0.4zm-0.2-0.1c-0.1 0 0.2 0.4 0.2 0.4s-0.2-0.4-0.2-0.4zm-0.2-0.2c-0.1 0 0.1 0.3 0.1 0.3l-0.1-0.3zm-0.2-0.1c-0.1 0 0 0.2 0 0.2v-0.2zm6.1 4.9s0.2 0.3 0.2 0.5v0.3s0.1-0.1 0.2-0.2 0.1 0 0 0.1l-0.3 0.3s-0.3-0.1-0.4-0.2l-0.2-0.2s0.2 0.1 0.3 0.1c0.1 0.1 0.2 0.1 0.2 0.1s0-0.3-0.1-0.5c0.1 0 0.1-0.3 0.1-0.3zm-2.1-1.4s0.4-0.1 0.6 0c0.2 0 0.4 0 0.6-0.1 0.1-0.1 0.3-0.2 0.4-0.3h0.4v0.1s-0.3-0.1-0.4 0-0.3 0.3-0.5 0.3c-0.2 0.1-0.5 0-0.6 0-0.2 0-0.2 0.1-0.2 0.1s0.2 0.1 0.3 0.1h0.5c0.1 0 0.5-0.2 0.6-0.2h0.3v0.1s-0.3-0.1-0.4 0c-0.2 0-0.3 0.1-0.4 0.2l-0.3 0.1h0.4c0.2 0 0.4 0.1 0.4 0.1l0.1 0.2s-0.4 0-0.6 0.1c-0.2 0-0.4 0.1-0.6 0.2 0 0.1-0.5 0-0.5 0v0.1s0.4 0.1 0.5 0.1 0.3-0.1 0.4-0.1h0.4v0.1h-0.2c-0.1 0-0.4 0.2-0.5 0.2s-0.2-0.1-0.4-0.1c-0.1 0-0.4-0.1-0.4-0.1-0.1 0 0 0.1 0.1 0.1s0.4 0.1 0.4 0.1l-0.2 0.1s-0.3-0.1-0.4-0.1 0-0.2 0.1-0.3c0-0.1 0.1-0.3 0.1-0.3s0.5 0.1 0.7 0.1 0.3-0.1 0.5-0.1h0.3 0.2s-0.3-0.1-0.5-0.1-0.3 0.1-0.4 0.1-0.4-0.1-0.6-0.1h-0.3l0.1-0.7zm-0.2-0.7l0.1 0.3h0.4c0.2 0 0.1 0.1 0.3 0.1 0.1 0.1 0.3 0.1 0.4 0.1 0.2 0 0.3-0.1 0.4-0.2s0.4-0.1 0.4-0.1v-0.1s-0.2-0.1-0.4 0c-0.1 0-0.3 0.3-0.4 0.3-0.2 0-0.1-0.1-0.2-0.1s-0.5-0.2-0.5-0.2 0.6 0.1 0.7-0.1c0.1-0.1 0.1-0.3 0.3-0.3h0.5l-0.1-0.1h-0.3c-0.1 0-0.3 0-0.4 0.2-0.1 0.1-0.1 0.2-0.2 0.2h-0.6c-0.2-0.1-0.4 0-0.4 0zm4.1 2.9l-0.4 0.4s0.4-0.3 0.4-0.4c0.1 0 0 0 0 0zm-0.2-0.1c-0.1 0.1-0.3 0.4-0.3 0.4s0.3-0.3 0.3-0.4c0.1-0.1 0 0 0 0zm-0.1-0.1l-0.5 0.5 0.4-0.6 0.1 0.1zm-0.3-0.2c-0.1 0.1-0.3 0.6-0.3 0.6s0.3-0.4 0.3-0.6c0.1-0.1 0 0 0 0zm-0.2-0.1c0 0.1-0.3 0.6-0.3 0.6s0.3-0.4 0.4-0.6c0.1-0.1-0.1 0-0.1 0zm-0.1-0.1c0 0.1-0.2 0.7-0.3 0.7-0.1 0.2 0.2-0.5 0.3-0.7-0.1-0.1 0 0 0 0zm0.4-0.4l-0.2 0.2c-0.1 0.1-0.1 0-0.1-0.1 0.1 0 0.3-0.1 0.3-0.1zm-0.7-0.1s0.1 0.4 0 0.6c0 0.2-0.1 0-0.1 0 0-0.2 0.1-0.6 0.1-0.6zm1.9 0.9v0.1 0.1s0.3-0.1 0.4-0.2c0.1 0 0.5-0.1 0.5-0.1s-0.6 0.3-0.7 0.3h-0.1s0.2 0 0.3 0.1c0.1 0 0.2 0 0.3 0.1l0.1 0.1s-0.4-0.1-0.6-0.1h-0.3s0.1-0.1 0.1-0.1c-0.2-0.1 0-0.3 0-0.3zm0.2-0.8s-0.1 0.3-0.2 0.4c0 0.1-0.1 0.3-0.1 0.3s0.1-0.1 0.3-0.1h0.2s-0.3 0.1-0.4 0.1c-0.1 0.1-0.3 0.2-0.3 0.2h-0.1s-0.1-0.1-0.1-0.2-0.1-0.3-0.1-0.3 0.1 0.1 0.2 0.1v0.1s0.1-0.3 0.2-0.3 0.4-0.3 0.4-0.3zm-11.6 2c0 0.1 0 0.1 0.1 0.1l0.3 0.2 0.1-0.1 0.1 0.1-0.3 0.4-0.1-0.1v-0.1s0.1 0 0.2-0.1c0-0.1-0.1-0.1-0.1-0.1s-0.1 0-0.1 0.1v0.1l-0.3-0.1h0.1l0.1-0.1s-0.1-0.1-0.1-0.1-0.1 0.1-0.1 0.1v0.2l-0.1-0.1 0.2-0.2v-0.2zm0.3-0.3c0 0.1-0.1 0.2-0.2 0.2 0 0.1 0 0.2 0.1 0.2h0.3s0.1 0 0 0.1h-0.2-0.1l0.2 0.1 0.1-0.1s0.1 0 0.2-0.1c0-0.1-0.1-0.2-0.2-0.2s-0.2 0-0.3 0.1c-0.1 0-0.2-0.1-0.1-0.1h0.2v-0.1-0.1zm0.2-0.5l0.5 0.2v-0.1h0.1v0.1 0.1s-0.4 0.1-0.5 0.1l0.2 0.1v-0.1h0.1l-0.1 0.3h-0.1v-0.1l-0.4-0.2h-0.1v-0.1h0.1l0.4-0.1-0.3-0.1v0.1h-0.1c0.1 0 0.1-0.2 0.2-0.2zm0.6-0.4c0.1 0 0.1 0.2 0.1 0.3v0.2l-0.3-0.1v-0.1h0.1v-0.2h-0.1-0.1s-0.1 0.1 0 0.1h0.1-0.3 0.1v-0.1h-0.1s-0.1 0 0 0.1 0.2 0.1 0.2 0.1l-0.3-0.1s0.1-0.1 0.1-0.2v-0.2h0.1s0 0.1 0.1 0.1c-0.1 0.1 0.2 0.1 0.3 0.1zm-0.2-0.3h0.2s0 0.2-0.1 0.2c-0.2-0.1-0.1-0.2-0.1-0.2zm-0.4-0.2v0.2h0.1v-0.1h0.1s0 0.3 0.2 0.3 0.3-0.1 0.3-0.2v-0.3h-0.1v0.1h-0.3v-0.1l-0.3 0.1zm0-0.5v0.3h0.1v-0.1h0.2l0.2 0.1h0.1v-0.2h-0.1v0.1l-0.1-0.1 0.1-0.1v0.1h0.1l-0.1-0.3h-0.1v0.1l-0.2 0.3h-0.2c0.1-0.1 0.1-0.2 0-0.2zm-1.7 0.8h-0.3v0.1h0.1-0.2l-0.1-0.1h-0.1v0.1 0.1 0.1s-0.1 0.1 0 0.1 0.1 0 0.1-0.1c0 0 0.1 0 0 0 0 0-0.1 0 0 0 0 0 0.1-0.1 0.2-0.1l0.1-0.1v0.1s-0.2 0-0.2 0.1c0 0 0 0.1 0.1 0l0.1-0.1s0 0.1 0 0.1h0.1v-0.1-0.1s0 0 0-0.1c0.2 0.2 0.2 0.1 0.1 0-0.1 0.1-0.1 0.1-0.2 0.1h0.1c0.1 0 0.1 0 0.1-0.1 0.1 0.1 0.1 0 0 0zm-0.4 0.2c0.1 0 0.1 0.1 0 0v0zm0.1 0s0.1 0.1 0 0v0zc0.1 0 0.1 0 0 0 0.1 0 0 0 0 0zm-0.1 0.4c0 0.1 0.1 0.1 0 0v0zc0.1 0 0.1 0 0 0 0.1 0.1 0 0 0 0zm0.2-0.1h-0.2s-0.1 0.1 0 0.1 0.2 0 0.1 0.1h-0.1v0.1s0.1 0.1 0 0.1l-0.1 0.1v0s0-0.1 0.1-0.1c0 0 0.1 0 0 0 0 0-0.1 0.1 0 0.1l0.1-0.1v0 0.1 0.1s0.1 0 0.1-0.1v-0.5c0 0.1-0.2 0.1-0.2 0h0.2s0.1 0 0 0zm0.2 0.4l0.2 0.2 0.2-0.2 0.3 0.3v0.1l-0.1 0.1h-0.1s-0.1-0.1-0.1-0.1h-0.1s0.2 0 0.2 0v-0.1h-0.2c-0.1 0 0-0.1 0.1-0.1h0.1 0.1l-0.1-0.1h-0.1s-0.1 0-0.1 0.1v0.1s-0.2 0-0.3 0.1h-0.1s0.1 0 0-0.1v-0.1l0.1-0.1v-0.1l-0.1 0.1h-0.1-0.1c0.1 0 0.2 0.1 0.1 0.1h-0.1-0.1-0.1s0 0 0.1 0h0.1 0.1s-0.1 0-0.1 0-0.1 0-0.1 0.1v0.1s0.1-0.1 0.2-0.1h0.2c0.1 0 0.1-0.1 0.1-0.1h0.2s-0.1 0-0.2 0.1-0.1 0.2-0.2 0.2h-0.5v-0.1-0.2s0.1 0 0.1-0.1c0 0.1 0.5-0.1 0.5-0.1zm0.1-0.3v0.2 0.1l0.1 0.1h0.1l0.1-0.1v-0.2c-0.1-0.1-0.3-0.1-0.3-0.1zm-0.1-0.1v0.3s0.1 0.2 0.2 0.2h0.1s0.1-0.1 0.2-0.1v-0.1-0.2c-0.2-0.1-0.5-0.1-0.5-0.1zm0.3-0.1v0l0.1-0.1 0.1-0.1-0.1-0.1v-0.1-0.1h0.1s0 0 0 0.1l0.1 0.1c0.1 0 0.1 0.1 0.1 0.1s0.1 0 0.1-0.1h-0.1v-0.1-0.1h0.3s0 0.2-0.1 0.2c0 0.1-0.1 0.1-0.1 0.1v0.1 0.1 0.1h0.1v-0.3c0-0.1 0.1-0.2 0.1-0.3s0.1-0.1 0.1-0.1v0.2c-0.1 0-0.1 0.1-0.1 0.1v0.2 0.1s0 0.1-0.1 0.1 0 0.1 0 0.1l-0.1 0.1s-0.1 0-0.1-0.1h0.1s-0.1-0.1 0-0.1 0.1-0.1 0-0.1h-0.1v0.1c-0.1 0-0.2-0.1-0.2-0.1h0.1s0-0.1 0-0.1-0.1 0-0.1-0.1c0.1 0 0.2 0 0.2-0.1l-0.1-0.1v-0.1 0.1s0-0.1 0.1-0.1v0.1s0-0.1 0.1-0.1c0 0 0.1 0 0.1-0.1 0 0 0.1-0.1 0-0.1l-0.1 0.1h-0.1v0.1s0 0 0 0l-0.1 0.1c-0.2 0.4-0.2 0.4-0.3 0.4l0.1 0.1h0.1v0.3s-0.1 0.1 0 0.1l0.3 0.2h0.1s0.4-0.5 0.4-0.9 0-0.3-0.1-0.3h-0.8s-0.1 0-0.1 0.1c-0.1 0-0.1 0.4 0 0.4-0.1 0 0 0 0 0zm-0.8-0.5c-0.1 0-0.1 0 0 0l-0.1 1.2v0l0.5-0.3v-0.4h0.2v-0.5h-0.6zm0.8 1.5h-0.2s-0.6 0.9-0.7 1l-0.1 0.1s0.3-0.6 0.4-0.7 0.3-0.5 0.4-0.5c0.2 0 0.2 0.1 0.2 0.1zm0.4 0.5l0.6 0.7 0.1-0.1-0.7-0.6zm-0.9 0.6l0.3 0.3s-0.1-0.1-0.1-0.2c-0.1 0-0.2-0.1-0.2-0.1zm0-0.3s0.1 0.2 0.2 0.3 0.3 0.2 0.3 0.2-0.4-0.5-0.5-0.5zm0.2 1.2h0.1c0 0.1-0.1 0-0.1 0zm0-0.1h0.2-0.1-0.1zm-0.3 0.2h0.3-0.1-0.2zm-0.4 0l0.9-0.4h0.1l-1 0.4zm-0.3-0.1l0.9-0.3h0.2l-1.1 0.3zm-0.2 0l0.8-0.4h0.1l-0.9 0.4zm-0.2-0.1l0.4-0.2 0.4-0.1h0.1l-0.9 0.3zm0-0.2l-0.2 0.1 0.2-0.1zm0.1-0.1h0.1-0.1zm0.4-0.2h0.1l-0.2 0.1v-0.1h0.1zm-0.6 0.2l-0.3 0.1h-0.1l0.4-0.1zm0.3-0.4c0.1 0-0.3 0.2-0.4 0.2s-0.3 0.1-0.3 0.1h-0.1s0.3-0.1 0.4-0.1 0.4-0.2 0.4-0.2zm-0.2 0.3h0.2l0.1 0.1s0-0.2-0.1-0.2c-0.1 0.1-0.2 0.1-0.2 0.1zm0.4-0.2l-0.1 0.1h-0.1l0.2-0.1zm-0.3-0.2c0.1 0.1-0.3 0.2-0.3 0.2-0.1 0-0.5 0.1-0.5 0.1h-0.1s0.3-0.1 0.4-0.1 0.5-0.2 0.5-0.2zm-0.2-0.1c0.1 0.1-0.3 0.2-0.4 0.2s-0.4 0.1-0.4 0.1v-0.1s0.3-0.1 0.4-0.1 0.4-0.1 0.4-0.1zm-0.2-0.2l0.1 0.1-0.9 0.3-0.1-0.1 0.2-0.1h0.1s0.3-0.1 0.3-0.1c0.1 0.1 0.2 0 0.3-0.1-0.1 0.1 0 0 0 0zm2.4 1s-0.3 0.1-0.4 0.1l0.1-0.1h0.3zm-1.6-0.9h0.2-0.2zm-0.3-0.2h0.6-0.6zm-0.1-0.1h0.8-0.8zm0-0.2h0.8v0.1l-0.8-0.1zm0.2-0.1l0.8 0.1v-0.1h-0.8zm0.2-0.1l0.7 0.1v-0.1h-0.7zm-0.1-0.1s-0.2 0.1-0.2 0.2l-0.2 0.2s0-0.2 0.1-0.2c0-0.1 0.2-0.2 0.3-0.2zm-0.8 0.2c-0.1 0-0.2 0 0 0 0 0.2 0.5 0.8 1.3 1 0.8 0.3 1.6 0.3 1.8 0.3s0.1-0.1 0.1-0.1h-0.4c-0.1 0-0.8-0.1-1.1-0.2s-0.8-0.3-1.1-0.5c-0.4-0.1-0.6-0.5-0.6-0.5zm-0.2 0.5h0.3l-0.1-0.1-0.2 0.1zm-0.6 0.2h0.3v-0.1c-0.2 0.1-0.3 0.1-0.3 0.1zm0.4-0.3l0.2-0.1v0.1h-0.2c0.1 0 0 0 0 0zm-0.3 0.1l-0.2 0.1 0.2-0.1zm0.4-0.3l-0.8 0.3 0.8-0.3zm-0.2 0.4l0.1 0.1v-0.1h-0.1zm-0.1-0.1s0.2-0.1 0.2 0c0.1 0 0.1 0.1 0.1 0.1h-0.1s0-0.1-0.1-0.1h-0.1zm-0.6 0.1c0 0.1 0.7 0.8 1.5 1.1s1.3 0.4 1.6 0.3h0.1c-0.2 0.1-0.8 0.1-1.8-0.3s-1.4-1.1-1.4-1.1zm1.7 1.3v0c0 0.1-0.1 0.1-0.1 0.1-0.1 0-0.1-0.1 0.1-0.1-0.1 0.1-0.1 0.1 0 0-0.1 0.1 0 0 0 0zm-0.4 0.3l0.1 0.1s-0.2-0.1-0.1-0.1zm-0.7-0.7c-0.1 0-0.1 0 0 0v0.6h0.3c0.1 0 0.4 0 0.4 0.1l0.1-0.1s-0.2-0.2-0.3-0.2-0.1 0-0.2 0.1-0.1 0.1-0.2 0.1c0 0-0.1-0.1 0-0.1 0 0 0.1-0.1 0.2-0.1 0 0 0-0.1-0.1-0.1-0.1-0.2-0.2-0.3-0.2-0.3zm1.7-3.3c0.1 0.1 0.1 1.4 0.1 1.4v0.1 0.1h-0.1s-0.1-0.1-0.2-0.1-0.1 0.1-0.1 0.1h-0.1l-0.4 0.3-0.1-0.1-0.1-0.2c0-0.1-0.2-0.3-0.2-0.3 0-0.1-0.2-0.2-0.2-0.2 0-0.1 0-0.4-0.1-0.4 0-0.1-0.1-0.2-0.1-0.2v-0.3l1.6-0.2zm-0.3 0.2s-0.1 0 0 0c-0.1 0-0.3 0.1-0.4 0.1h-0.3c-0.1 0-0.2-0.1-0.3-0.1h-0.3c-0.1 0-0.1 0.1 0 0.1 0 0.1 0.1 0.1 0.1 0.1l0.1 0.1s0.4 0.8 0.4 0.8l-0.1 0.1s0 0.1 0.1 0.1l0.2-0.1h0.1 0.1v0.1h0.1l0.3-1.3h-0.1zm-0.4 1.1h0.2v-0.1l-0.2 0.1zm0-0.2h0.2v-0.1l-0.2 0.1zm0.3-0.1l-0.2 0.1 0.2-0.1zm0-0.1l-0.1 0.1 0.1-0.1zm0-0.2l-0.1 0.1 0.1-0.1zm0.1-0.1l-0.1 0.1 0.1-0.1zm-0.1-0.2l-0.1-0.1 0.1 0.1c-0.1 0 0 0 0 0zm-0.1 0.1l-0.1-0.2 0.1 0.2zm0 0.1l-0.2-0.2 0.2 0.2c-0.1 0 0 0 0 0zm-0.1 0l-0.1-0.2 0.1 0.2v0 0zm0 0.1l-0.2-0.3 0.2 0.3c-0.1 0.1-0.1 0.1 0 0zm-0.1 0.1l-0.2-0.4 0.2 0.4v0zm0 0.1l-0.4-0.5 0.4 0.5c-0.1 0 0 0 0 0zm-0.1 0.1l-0.4-0.6 0.4 0.6zl-0.5-0.6 0.5 0.6c-0.1 0.1-0.1 0.1 0 0v0zm-0.6-0.8s0 0.1 0.1 0.1h0.2s-0.1-0.1-0.2-0.1h-0.1zm1.5-2.1v1.8h0.1 1.7c0.1 0 0.1 0 0.1-0.1s-0.1-0.9-0.5-1.2c-0.3-0.3-0.5-0.4-0.9-0.5h-0.5v0zm-0.1-0.1c-0.1 0-0.7 0.1-1 0.3-0.3 0.3-0.5 0.6-0.6 0.8s-0.1 0.6-0.1 0.7 0 0.1 0.1 0.1h1.7s0.1 0 0.1-0.1c-0.2 0-0.2-1.7-0.2-1.8v0zm-1.5 1.5c-0.1 0-0.1 0 0 0-0.1 0-0.1 0 0 0-0.1 0.1-0.1 0.1 0 0.1l0.1 0.1h-0.1-0.1s0.1 0 0.1-0.1h-0.1 0.1 0.2 0.1-0.1-0.1 0.2s0.1 0 0.1-0.1 0.1 0 0.1 0.1v-0.1s0-0.1-0.1-0.1 0 0 0 0 0.1 0 0.1-0.1-0.1-0.1-0.1-0.1h-0.2c-0.1 0-0.1 0 0 0h0.3v0h-0.3c-0.1 0-0.1 0.1 0 0.1h0.3-0.3-0.1s0-0.1-0.1-0.1c0.1 0.2 0.1 0.2 0 0.3 0.1-0.1 0.1-0.1 0 0zm0.1 0.1c0.1 0.1 0 0.1 0 0v0zc0.1 0 0.1 0.1 0 0zm0-0.1s0.1 0.1 0 0c0.2 0.1 0.2 0.2 0 0 0.1 0.1 0 0 0 0zm-0.1 0zm0.1 0zm0.9-0.1s0 0.1 0.1 0.1h0.1l-0.1 0.1s0-0.1-0.1 0h-0.2v-0.1-0.1h0.1s0.1 0.1 0.1 0zm-0.2-0.4v0.6s0.1 0 0-0.1l-0.1-0.1v-0.1h0.1l0.1 0.1v-0.1-0.1c0-0.2 0-0.3-0.1-0.2 0.1 0 0.1 0 0 0l0.1 0.1-0.1-0.1c0.1 0 0.1 0 0 0 0.1 0 0.1 0 0 0zm0.4-0.5v0.1 0.2-0.1 0.2-0.1s0 0 0 0.1v0.1-0.1s0 0 0 0v-0.3 0.1 0.1s0 0 0 0 0-0.1 0.1-0.1c-0.2-0.1-0.1-0.2-0.1-0.2zm-0.1 0.7v0.1 0.1l-0.1-0.1c0.1 0 0.1-0.1 0.1-0.1zm0.2-1c0.1 0 0 0.1 0 0v1.5h-0.1s0.1-0.1 0.1-0.2v-0.1l-0.1-0.1v-0.1-0.3-0.4c0-0.1 0.1-0.1 0.1-0.2v-0.1s-0.1 0.1-0.1 0.1v0.2 0.5 0.1-0.2-0.2s0.1 0 0-0.1v-0.2-0.1-0.1c0 0.1 0 0.1 0.1 0v0c-0.1 0.1-0.1 0-0.1 0h-0.1-0.1s0 0 0 0h-0.1v0.1h0.1v0 0.1c-0.1 0-0.1 0.1-0.1 0.1s0 0 0 0h0.1v-0.1h-0.1v-0.1c0 0.1 0.4-0.1 0.4-0.1zm-0.4 0.1l0.4-0.1h0.1s0.1 0 0.1 0.1v0.1 1.3 0.1 0.1s0 0.1-0.1 0.1h-0.1-0.4-0.1c-0.1 0-0.1 0-0.1-0.1v-0.1-1.2h-0.1c0.1-0.3 0.2-0.3 0.3-0.3-0.1 0 0 0 0 0zm-0.7 0.9c0.1 0.1 0 0.1 0 0zm0-0.1s0.1 0.1 0 0c0.1 0.1 0.1 0.1 0 0 0.1 0.1 0 0 0 0zm0.1 0c0.1 0.1 0 0.1 0 0v0zm-0.2-0.1c0.1 0 0.1 0 0 0 0.1 0 0.1 0 0 0h0.1v0.1h0.2-0.2s-0.1 0-0.1-0.1 0.1-0.1 0.2-0.1h0.2c0.1 0 0 0 0 0h-0.2s-0.1 0 0 0h0.2s0.1 0.1 0 0.1c0 0-0.1 0-0.1 0.1l0.1 0.1-0.1-0.1s0.1 0.3 0.1 0.3h-0.1 0.1 0.1-0.1l-0.2 0.1h-0.1 0.1s-0.2 0-0.2 0.1h-0.1v-0.1s0.2 0 0.2-0.1v-0.1c-0.1-0.2-0.1-0.2-0.1-0.3v0zm0.1 0.1s0.1 0 0 0v0zm-0.1 0c0.1-0.1 0 0 0 0zm0.6-0.3s0.1-0.1 0 0c0.1-0.1 0-0.1 0-0.1h0.1v-0.1c0-0.1-0.2-0.1-0.2-0.1-0.1 0 0 0 0 0h0.2-0.1c-0.1 0-0.1 0-0.1 0.1s0 0.1 0.1 0.2v0 0c-0.1-0.1-0.2-0.1-0.2-0.1s0-0.1-0.1-0.1h-0.1s-0.1 0-0.1 0.1v0.1s-0.1 0-0.1 0-0.1 0.1 0 0.1h0.1 0.1s0 0-0.1 0h-0.1 0.2c0.1 0 0.1-0.1 0.1-0.1s-0.1 0-0.1 0.1h0.1c0.2 0 0.2 0 0.3-0.1-0.1 0.1 0 0.1 0 0.1v-0.1zm-0.3-0.2c0.1 0 0 0.1 0 0v0zm0 0.1s0.1 0 0 0zl0.1 0.1-0.1-0.1zm0.1 0zm3.1 1.3c-0.1-1.4-0.8-2.2-2-2.1-0.6 0-1 0.2-1.4 0.5-0.7 0.7-0.6 1.7-0.6 1.7v0.1s0-1.1 0.6-1.7c0.3-0.3 0.8-0.5 1.3-0.5 1.3-0.1 2 0.6 2.1 2 0 0.9-0.6 1.5-1 1.8 0 0-0.3 0.2-0.3 0.3 0 0-0.1 0.1 0 0s0.3-0.2 0.3-0.2c0.4-0.3 1-1 1-1.9zm-0.4-2.7s0.1 0 0.1 0.1l0.1 0.1-0.1 0.4 0.5-0.1 0.1 0.1 0.1 0.1h-0.1s-0.1-0.1-0.1 0l-0.3 0.2v0.1h-0.1l-0.1-0.1 0.1-0.1h0.1l0.3-0.2-0.4 0.1h-0.1l0.1-0.5-0.2 0.2v0.1l-0.1 0.1-0.2-0.1v-0.1s0.1 0.1 0.1 0l0.3-0.3-0.1-0.1zm-0.2 0.2v0.1h-0.1v-0.1h0.1zm-0.1-0.4s0.1 0 0.1 0.1l0.1 0.1-0.1 0.1h-0.1l-0.2 0.4v0.1 0.1l-0.2-0.1v-0.1s0.1 0.1 0.1 0 0.2-0.4 0.2-0.4c0.1-0.2 0-0.2 0.1-0.3zm-0.8-0.2h0.2 0.1v0.1h-0.1c0 0.1-0.2 0.4 0 0.5s0.3-0.4 0.3-0.4l-0.1-0.1v-0.1h0.1s0.1 0.1 0.1 0.1v0.1h-0.1s-0.2 0.6-0.4 0.4c-0.2-0.1-0.2-0.3-0.1-0.4s0.1-0.2 0.1-0.2c0 0.1-0.1 0.1-0.1 0zm-0.3 0c-0.1 0-0.3 0.2-0.3 0.3s0.1 0.3 0.2 0.3c0.2 0 0.2-0.1 0.2-0.1s0.1 0.1 0.1 0.1h0.1s-0.1 0-0.1-0.1v-0.1s0.1-0.1 0.1-0.2-0.1-0.2-0.3-0.2zm0.1 0.1c-0.1 0-0.2 0.1-0.2 0.2s0 0.2 0.1 0.2c0.2 0 0.2-0.1 0.2-0.2s-0.1-0.2-0.1-0.2zm-0.5 0.2l-0.1 0.1 0.1 0.1 0.1-0.1-0.1-0.1zm-0.4-0.2c-0.2 0-0.3 0.1-0.3 0.1l0.1 0.2v-0.2h0.1l0.1 0.4h-0.1v0.1l0.3-0.1v-0.1h-0.1l-0.1-0.4c0 0.1 0.1 0 0.2 0.1l0.1 0.1h0.1v-0.2c-0.1-0.1-0.3-0.1-0.4 0zm-0.6 0.1l0.1 0.1 0.2 0.4h-0.1v0.1l0.2-0.1v-0.1h-0.1l-0.2-0.4v-0.1l-0.1 0.1zm-0.3 0.2c-0.1 0-0.1 0.2 0 0.3s0.2 0.1 0.2 0.1c0.1-0.1 0.1-0.2 0-0.2 0-0.2-0.1-0.2-0.2-0.2zm-0.1 0c-0.1 0.1-0.1 0.2 0 0.4 0.1 0.1 0.3 0.2 0.4 0.1s0.2-0.3 0-0.5c-0.1-0.1-0.3-0.1-0.4 0zm2 2.4h0.2 0.1s-0.1 0-0.2 0h-0.1zm0-0.1s0-0.3-0.1-0.3-0.1 0.1-0.1 0.1l0.1 0.1s0-0.2 0.1-0.2v0.3zm0.4 0.1s0.1-0.3 0-0.3c0 0-0.1 0-0.1 0.1v0.1s0-0.1 0.1-0.1v0.2zm-0.3-0.6s0.1 0.2 0.1 0.3-0.1 0.2-0.1 0.2-0.1-0.2-0.1-0.3l0.1-0.2zm0-0.1c0.1 0.1 0.1 0.3 0.1 0.3s0.1 0 0.1 0c0.1 0 0.2 0.3 0.1 0.3 0 0.1-0.1 0.1-0.1 0.1s0-0.1 0 0c0 0-0.1 0 0 0.1s0 0 0 0v0.1h-0.1v-0.1 0.1h-0.1-0.1v-0.1l-0.1 0.1h-0.1v-0.1-0.1h-0.1s-0.1-0.1-0.1-0.3c0-0.1 0.2-0.2 0.2-0.1v-0.1c0.2-0.1 0.3-0.2 0.3-0.2zm-0.1-0.2h0.2 0.1s-0.1 0-0.2 0c0 0.1-0.1 0-0.1 0zs0-0.3-0.1-0.3-0.1 0.1-0.1 0.1l0.1 0.1v-0.2c0.1 0.1 0.1 0.3 0.1 0.3zm0.4 0s0.1-0.3 0-0.3c0 0-0.1 0-0.1 0.1v0.1s0-0.1 0.1-0.1v0.2zm-0.3-0.5s0.1 0.2 0.1 0.3-0.1 0.2-0.1 0.2-0.1-0.2-0.1-0.3 0.1-0.2 0.1-0.2zm0-0.1c0.1 0.1 0.1 0.3 0.1 0.3s0.1 0 0.1 0c0.1 0 0.2 0.3 0.1 0.3 0 0.1-0.1 0.1-0.1 0.1s0-0.1 0 0c0 0-0.1 0 0 0.1s0 0 0 0v0.1h-0.1v-0.1 0.1h-0.1-0.1v-0.1l-0.1 0.1h-0.1v-0.1-0.1h-0.1s-0.1-0.1-0.1-0.3c0-0.1 0.2-0.2 0.2-0.1v-0.1c0.2-0.2 0.3-0.2 0.3-0.2zm0.5 1.1h0.2 0.1s-0.1 0-0.2 0c0 0.1-0.1 0-0.1 0zs0-0.3-0.1-0.3-0.1 0.1-0.1 0.1l0.1 0.1v-0.2c0.1 0.1 0.1 0.3 0.1 0.3zm0.4 0s0.1-0.3 0-0.3c0 0-0.1 0-0.1 0.1v0.1s0-0.1 0.1-0.1v0.2zm-0.2-0.5s0.1 0.2 0.1 0.3-0.1 0.2-0.1 0.2-0.1-0.2-0.1-0.3 0.1-0.2 0.1-0.2zm0-0.1c0.1 0.1 0.1 0.3 0.1 0.3s0.1 0 0.1 0c0.1 0 0.2 0.3 0.1 0.3 0 0.1-0.1 0.1-0.1 0.1s0-0.1 0 0c0 0-0.1 0 0 0.1s0 0 0 0v0.1h-0.1v-0.1 0.1h-0.1-0.1v-0.1l-0.1 0.1h-0.1v-0.1-0.1h-0.1s-0.1-0.1-0.1-0.3c0-0.1 0.2-0.2 0.2-0.1v-0.1c0.2-0.1 0.3-0.2 0.3-0.2zm1.5-0.1l0.1 0.2h-0.1l-0.4 0.1v0.1h0.2v0.1l-0.2 0.1-0.2-0.4h0.1l0.5-0.2zm0 1v0.2l-0.1-0.1 0.1-0.1zm-0.1-0.5v0.1l-0.1-0.1h0.1zm-0.5-0.7h0.2-0.2zm-0.3 0l0.1 0.2h0.1v-0.1h0.1l0.1 0.1v0.1l-0.1-0.1h-0.1l0.1 0.2h0.1l0.4-0.4v-0.1l-0.8 0.1zm1.3-0.6l0.1-0.1-0.1 0.1zm-0.2 0.1l0.5 0.1-0.5-0.1zm0.1 0.1l0.3 0.1-0.3-0.1zm0.1 0.1h0.2-0.2zm-5-0.6l0.2 0.1s0-0.1-0.2 0c-0.1 0-0.1 0.1 0 0.1s0.3 0 0.4 0.1c0 0.1 0.1 0.2 0 0.3s-0.2 0-0.2 0l0.1 0.1-0.1 0.1-0.2-0.2v-0.1s0.1 0.1 0.2 0.1 0.2-0.2 0-0.2c-0.1 0-0.4 0.1-0.4 0s0-0.2 0.1-0.2c0-0.2 0.1-0.2 0.1-0.2zm-0.5 0.5v0.1l0.4 0.2v-0.1h0.1l-0.1 0.2h-0.1v-0.1l-0.4-0.2v0.1h-0.1l0.2-0.2zm0.1 0l0.1 0.2h0.2l-0.1-0.2h-0.2zm0.2 0.8l-0.1 0.2h-0.1v-0.1l-0.5-0.1v0.1h-0.1l0.1-0.2 0.5-0.1-0.3-0.2v0.1h-0.1l0.1-0.2h0.1v0.1l0.5 0.2-0.5 0.2 0.3 0.1v-0.1h0.1zm-0.4 0.1c0.2 0.1 0.3 0.2 0.3 0.3s0 0.3-0.4 0.2c-0.3-0.1-0.3-0.2-0.3-0.3s0.3-0.2 0.4-0.2zm-0.1 0.1c0.2 0 0.3 0.3-0.1 0.3-0.3-0.1-0.1-0.3 0.1-0.3zm-0.4 1.1v-0.3h0.1v0.1h0.2v-0.3h-0.1v0.1h-0.1v-0.3h0.1v0.1h0.5v-0.1h0.1v0.2h-0.1v-0.1h-0.2l-0.1 0.3h0.2v-0.1h0.1v0.3h-0.1v-0.1h-0.4v0.1l-0.2 0.1zm4.9-3.1c0.7 0.6 1.4 1.4 1.4 2.9 0 1.4-0.5 2.4-1.4 2.9 1-0.5 1.5-1.6 1.5-3 0.1-1.4-0.8-2.3-1.5-2.8zm1.4 0.6c-0.1 0.1-0.4 0.2-0.4 0.2v-0.1l0.4-0.1zm0.2-0.2c-0.1 0.1-0.5 0.3-0.5 0.3v-0.1l0.5-0.2zm-0.3-0.6v0.3 0.2l0.1-0.1v-0.3l-0.1-0.1zm-0.1 0.1c0 0.1-0.1 0.4-0.1 0.5s0.1-0.1 0.1-0.1v-0.4zm-0.4-0.5v0.5c0.1 0.2 0.1 0.3 0.1 0.4v0.3l0.1 0.1s0.1-0.3 0-0.5c0-0.1-0.1-0.3-0.1-0.4s-0.1-0.4-0.1-0.4zm-0.1 0.5c0 0.1 0.1 0.3 0.1 0.4v0.3l0.1 0.1v-0.3c-0.1-0.2-0.2-0.5-0.2-0.5zm-0.1 0.1v0.2 0.2h0.1v-0.2l-0.1-0.2zm-0.9-0.3c-0.2-0.1-0.7-0.3-1.6-0.4-0.8 0-1.6 0.3-1.9 0.5-0.1 0.1 0 0.2 0.1 0.2 0.2-0.1 1-0.5 1.8-0.4 0.8 0 1.3 0.3 1.5 0.3 0.1 0 0.2-0.1 0.1-0.2zm-0.2-0.2s0.2-0.3 0.3-0.2c0.2 0.1-0.1 0.3-0.1 0.3l0.1-0.2c-0.1 0-0.3 0.1-0.3 0.1zm0.3-0.7s-0.3 0-0.3 0.2c-0.1 0.1-0.2 0.5-0.1 0.5 0 0 0.3-0.2 0.3-0.3s0.1-0.3 0.1-0.4zm-1.2 0.5c0-0.1 0.3-0.3 0.4-0.3 0.3 0.1 0 0.4 0 0.4s0.1-0.2-0.1-0.3c-0.1 0-0.3 0.2-0.3 0.2zm0.2-0.4c0.1-0.1 0.6-0.4 1.1-0.3s0.3 0.4 0.3 0.5-0.3 0.3-0.3 0.3 0.3-0.4 0.1-0.6-0.6-0.1-0.8 0c-0.1 0-0.4 0.1-0.4 0.1zm1.6 0.2c-0.1 0.1 0 0.2 0.1 0.1s-0.1-0.2-0.1-0.1zm0-0.3c0 0.1 0.1 0.2 0.2 0 0-0.2-0.2-0.1-0.2 0zm-0.1-0.3c-0.1 0.1 0 0.2 0.1 0.2 0.1-0.1 0-0.3-0.1-0.2zm-0.4-0.2c-0.1 0.1 0.1 0.2 0.2 0.1 0.1 0-0.1-0.2-0.2-0.1zm-0.3 0c0 0.1 0.2 0.1 0.2 0s-0.2-0.1-0.2 0zm-0.3 0.1c0 0.1 0.2 0.1 0.2 0 0-0.2-0.2-0.1-0.2 0zm-0.1 0.2c0-0.1 0-0.3-0.1-0.3s-0.3 0.2-0.3 0.3c-0.1 0.1-0.2 0.4-0.3 0.5v0.2s0.1-0.3 0.2-0.5c0.1-0.1 0.4-0.3 0.4-0.3l0.1 0.1zm-0.9 0.7c0-0.1 0.1-0.3-0.2-0.3-0.4 0-0.2 0.3-0.2 0.3s-0.1-0.2 0.2-0.2c0.2 0 0.2 0.2 0.2 0.2zm-1.4-0.8l0.1-0.2h0.2c0.1 0 0.3 0.2 0.4 0.4l0.2 0.6s-0.1-0.3-0.2-0.5c-0.2-0.3-0.4-0.4-0.5-0.4-0.2 0-0.2 0.1-0.2 0.1zm0.8 0h0.2 0.2-0.2-0.2zm0.1-0.1h0.3-0.3zh0.2-0.2zm-0.3-0.6l0.2 0.3v0.1l-0.2 0.2v-0.3-0.3zm1 0.1l-0.3 0.2 0.3 0.2v-0.4zm-0.9-0.2h0.5 0.4l-0.2 0.3s-0.1-0.1-0.1 0c-0.1 0-0.2 0.1-0.2 0.1l-0.4-0.4zm0.4 0.4v0c0 0.1 0.1 0.1 0.1 0h-0.1zm-0.1 0c0 0.1 0.3 0.1 0.3 0s-0.3-0.1-0.3 0zm-2.2 1c0 0.1 0 0.2-0.1 0.1-0.2-0.1 0.1-0.2 0.1-0.1zm-0.1-0.2c0 0.1-0.2 0.1-0.2 0s0.2-0.1 0.2 0zm0-0.4c0.1 0 0.2 0.2 0 0.2-0.1 0-0.1-0.2 0-0.2zm0.4-0.1c0.1 0.1-0.1 0.2-0.2 0.1s0.1-0.2 0.2-0.1zm0.3-0.1c0 0.1-0.2 0.1-0.2 0s0.2-0.1 0.2 0zm0.3 0.1c-0.1 0.1-0.2 0-0.2 0 0.1-0.2 0.3-0.1 0.2 0zm-0.4 1.1s-0.6-0.5 0-0.7c0.4-0.2 0.5-0.1 0.7 0 0.1 0 0.5 0.2 0.5 0.2s-0.3-0.4-0.8-0.4-0.9 0.2-0.8 0.5 0.4 0.4 0.4 0.4zm0.1-0.7c0.1 0 0.2 0 0.4 0.2 0.1 0.1 0.2 0.4 0.2 0.4s-0.2 0-0.4-0.2-0.2-0.4-0.2-0.4zm0.7 0.6s-0.1-0.2 0.1-0.2 0.4 0.1 0.4 0.1-0.2-0.3-0.4-0.3c-0.2 0.1-0.3 0.3-0.1 0.4v0zm-0.6 0.3c-0.1-0.1-0.1-0.2 0-0.2s0.2 0.1 0.2 0.1-0.1-0.3-0.3-0.2c-0.2 0 0.1 0.3 0.1 0.3zm-1.6 1.6l0.1-0.1-0.1 0.1zm-0.1-0.1l0.3-0.1-0.3 0.1zs0.2 0 0.2-0.1c0.1 0 0.2-0.1 0.2-0.1v0.1h-0.1c-0.1 0-0.3 0.1-0.3 0.1zm0-0.4s0.2 0 0.2 0.1h0.1v0.1s-0.1 0-0.1-0.1l-0.2-0.1zm-0.2-0.2s0.2 0.1 0.3 0.1c0.2 0 0.3 0.1 0.3 0.1v0.1s-0.2-0.1-0.3-0.1-0.2 0-0.3-0.1v-0.1zm0.3-0.4s0.2 0.4 0.3 0.5l0.1 0.1-0.2-0.1-0.2-0.5zm0.1 0.1l0.2 0.3h-0.1l-0.1-0.3zm0.4-0.8v0.6c0 0.2-0.1 0.3 0 0.4 0 0.1 0.1 0.1 0.1 0.1l-0.1 0.1s-0.1-0.2-0.1-0.4c0-0.1 0.1-0.3 0.1-0.4v-0.4zm0.1 0.4s-0.1 0.2-0.1 0.4v0.2l-0.1 0.1s-0.1-0.2 0-0.3l0.2-0.4zm0.1 0.1v0.2 0.1h-0.1v-0.2c0.1 0.1 0.1-0.1 0.1-0.1zm0.5 0.1c-0.1 0.1-0.8 0.8-1.1 1.5-0.4 1.1-0.3 1.6-0.2 1.8 0-0.2-0.1-0.8 0.3-1.8 0.2-0.7 0.9-1.4 1-1.5 0.1 0 0.1-0.1 0 0zm-0.6 4.8s0.3-0.1 0.4-0.1 0.4-0.2 0.4-0.2h0.1s-0.4 0.1-0.5 0.2c0 0.1-0.3 0.2-0.4 0.1zm0-0.1s0.3-0.1 0.4-0.1 0.4-0.2 0.4-0.2h0.1s-0.4 0.1-0.5 0.2-0.4 0.2-0.4 0.1zm-0.2-0.1s0.3-0.1 0.4-0.1 0.4-0.2 0.4-0.2l0.1 0.1s-0.4 0.1-0.5 0.2c0 0-0.3 0.1-0.4 0zm-0.1-0.1s0.3-0.1 0.4-0.1 0.4-0.2 0.4-0.2v0.1s-0.4 0.1-0.5 0.2c0.1 0-0.2 0.1-0.3 0zm-0.1-0.1s0.2-0.1 0.5-0.2 0.4-0.2 0.4-0.2v0.1s-0.5 0.2-0.6 0.2c0 0.1-0.2 0.2-0.3 0.1zl0.3-0.1-0.3 0.1zm0-0.2l0.2-0.1-0.2 0.1zm0-0.1l0.2-0.1-0.2 0.1zm0.7-0.1l0.2-0.1v0.1h-0.2zm0.1 0.1l0.2-0.1v0.1h-0.2zm-0.1-0.3l0.2-0.1v0.1h-0.2zm-0.6 0.1l0.2-0.1v0.1h-0.2zm0.6-0.2l0.2-0.1v0.1h-0.2zm-0.4 0.3s0 0.1 0.2 0.1c0.1-0.1 0.1-0.2 0.1-0.2s0.2 0.1-0.1 0.2c-0.2 0.1-0.2-0.1-0.2-0.1zm0.8-0.5v0.4c0 0.1 0.1 0.3 0.2 0.4s0.2 0.2 0.2 0.3c0 0-0.3-0.2-0.3-0.3-0.1-0.1-0.2-0.3-0.2-0.5s0.1-0.3 0.1-0.3zm-1.3 0.4s0 0.4 0.1 0.6 0.4 0.4 0.4 0.4-0.3-0.1-0.4-0.2c0-0.1-0.1-0.3-0.1-0.4v-0.4zm0.4 1s0.1 0.1 0.2 0.1h0.3c0.1 0 0.8-0.3 0.9-0.4s-0.1-0.4-0.2-0.5-0.2-0.4-0.2-0.5-0.1-0.2-0.2-0.2-0.3 0.1-0.5 0.1c-0.1 0-0.1-0.1 0-0.1 0 0 0.4-0.1 0.5-0.1s0.2 0.1 0.2 0.2 0.1 0.3 0.1 0.3c0 0.1 0.1 0.3 0.2 0.4s0.2 0.2 0.2 0.3 0 0.3-0.5 0.4c-0.4 0.2-0.7 0.3-0.9 0.2-0.1 0-0.1-0.2-0.1-0.2zm-0.1-1.4s0.1 0 0 0c0.1 0.1 0 0.1 0 0.1s-0.3 0.1-0.3 0.1c-0.1 0-0.1 0.1-0.1 0.2 0 0-0.1-0.2 0-0.2l0.4-0.2zm0.2-0.1l0.1 0.5c0 0.1 0.1 0 0.1 0 0-0.1-0.2-0.5-0.2-0.5zm-0.8-0.2v0.5c0 0.1 0.1 0.4 0.1 0.4s-0.2 0-0.2-0.1-0.1-0.2-0.2-0.3c-0.1 0-0.3-0.2-0.3-0.2s0.1-0.2 0.2-0.2c0.3 0 0.4-0.1 0.4-0.1zm-1.1 1.5s-0.1 0.2-0.1 0.3v0.1s0.1-0.1 0.1-0.2c0 0 0.1-0.1 0-0.2 0.1 0 0.1 0.1 0.1 0.2v0.2s0.1-0.2 0.1-0.2l0.1-0.1s0 0.1 0 0.2v0.1s0.1-0.1 0.1-0.2 0.1-0.1 0.1-0.1 0 0 0 0.1v0.1s0.1-0.1 0.1-0.2l0.1-0.1s0 0 0 0.1v0.2s0.1-0.1 0.1-0.1l0.1-0.2s0 0.1 0 0.2-0.1 0.2-0.1 0.2 0.1-0.1 0.1-0.2l0.1-0.2s0 0.1 0 0.1c0 0.1-0.1 0.2-0.1 0.2s0.1-0.1 0.1-0.2l0.1-0.2s0 0.1 0 0.2-0.1 0.1-0.1 0.1 0.1-0.1 0.2-0.2c0-0.1 0.1-0.2 0.1-0.2s0 0.2 0 0.2v0.1s0.1-0.2 0.1-0.2c0-0.1 0.1-0.2 0.1-0.2s0 0.2 0 0.3-0.1 0.2-0.1 0.2 0.1-0.1 0.1-0.2l0.1-0.2s0 0.2 0 0.3-0.1 0.2-0.1 0.2 0.1-0.1 0.1-0.2v-0.2 0.2 0.2s0.1-0.1 0.1-0.2v-0.1s0 0.1 0 0.2v0.1s0.1-0.1 0.1-0.1l0.1-0.1s0 0.1 0 0.2v0.1h0.1l0.1-0.2v0.2h0.1l0.1-0.2v0.2l0.1 0.1v-0.2 0.2l0.1-0.1v0.2l0.1 0.2s-0.5-0.5-0.7-0.6c-0.3-0.2-0.8-0.3-1.1-0.2-0.4 0.1-2.9 0.8-3.1 0.8s-1.2 0.3-2 0.4h-2.5s-1.4-0.1-2-0.1c-0.3 0-0.7-0.1-0.7-0.1s0.8-0.1 1-0.2 0.7-0.2 0.7-0.2h-1.5c-0.3-0.1-0.7-0.4-0.7-0.4s0.2 0 0.3 0 0.2 0.1 0.2 0.1h-0.1s0.1 0.1 0.2 0.1h0.1l-0.1 0.1h0.2 0.2s0 0.1 0 0.1l0.1-0.1h0.2 0.1s0.1-0.1 0.2-0.1 0 0.2 0 0.2l0.1-0.1v0.2-0.1c0-0.1 0.1-0.1 0.1-0.1l-0.1 0.1s0 0.1-0.1 0.1v0.2s0.1-0.1 0.1-0.1l0.2-0.2s0 0.3 0.2 0.3h0.3l0.1 0.1-0.5 0.1 0.1 0.3s0.1-0.1 0.2-0.1 0.3-0.1 0.3-0.1l-0.1-0.2s0.2 0.1 0.3 0c0.2-0.2 0.2-0.3 0.2-0.3s1.5 0.1 2 0 3.1-0.8 3.3-0.9 0.9-0.2 0.9-0.2l0.1 0.1-0.8 0.2-0.1 0.4h0.1s0.1-0.3 0.2-0.3 0.2-0.1 0.2 0-0.1 0.5-0.1 0.6l-0.2 0.1v0.1s0.3-0.1 0.4-0.1 0.4-0.1 0.4-0.1v-0.1h-0.2v-0.1s0.1-0.3 0.1-0.4c0 0 0.1-0.1 0.2-0.1v0.1h0.1s-0.1 0.1 0 0.1h0.2c0.1-0.1 0.2-0.1 0.2-0.1zm-1.4-1.7l0.2 0.2c0 0.1 0.1 0.2 0.1 0.2s1.3 0.1 1.4 0.2c0.1 0 0.4 0.1 0.4 0.2 0.1 0 0.2 0.1 0.3 0.2s0.2 0.3 0.2 0.4-0.1-0.1-0.1-0.1-0.1 0.1-0.1 0.1c-0.1 0 0.1-0.1 0.1-0.2s-0.1 0-0.1 0c-0.1 0 0.1 0 0.1-0.1v-0.1s0 0.1-0.1 0.1 0-0.1 0-0.1-0.2 0-0.2-0.1c-0.1 0-0.2-0.1-0.2-0.1s0.2 0.1 0.3 0.2c0 0.1 0.1 0.3 0.1 0.3 0 0.1 0 0.1-0.1 0.1h-0.1s0.1 0 0.2-0.1v-0.1s0 0.1-0.1 0.1h-0.1s0.1-0.1 0.1-0.2v-0.1l-0.2 0.1c-0.1 0 0.1-0.2 0.1-0.2s-0.1 0.1-0.2 0.1 0.1-0.1 0.1-0.1-0.1 0-0.1 0l-0.3-0.1s0.1 0.2 0.2 0.2c0 0.1 0.1 0.2 0.1 0.3s0 0.2-0.1 0.2h-0.2s0.2 0 0.2-0.1v-0.1s0 0.1-0.1 0.1h-0.1s0.1 0 0.2-0.1c0-0.1 0.1-0.1 0.1-0.1s-0.1 0.1-0.2 0.1h-0.1s0.2-0.1 0.2-0.1h-0.1-0.1s0.1 0 0.2-0.1h-0.1-0.1s0.1 0 0.1 0 0-0.1-0.1 0h-0.2s0-0.1 0.1-0.1h0.1s-0.2 0-0.2 0h-0.2s0.3-0.1 0.3-0.2h-0.3c-0.1 0-0.4 0.1-0.4 0.1s0.2-0.1 0.3-0.2c0.1 0 0.4-0.1 0.4-0.1s-0.5 0.2-0.6 0.2l-0.4 0.2s0.4-0.3 0.5-0.4c0.1 0 0.4-0.2 0.4-0.2s-0.6 0.2-0.6 0.2c-0.1 0-0.6 0.4-0.6 0.4s0.4-0.3 0.4-0.4l0.1-0.1s-0.4 0.2-0.5 0.2l-0.4 0.2s0.3-0.3 0.4-0.3 0.2-0.1 0.2-0.1-0.5 0.3-0.6 0.3c-0.1 0.1-0.4 0.3-0.4 0.3s0.3-0.3 0.4-0.3l0.1-0.1s-0.3 0.2-0.4 0.2c-0.1 0.1-0.4 0.2-0.4 0.2s0.3-0.4 0.5-0.4l0.1-0.1s-0.3 0.1-0.3 0.1c-0.1 0-0.3 0.2-0.3 0.2s0.2-0.3 0.3-0.3 0.3-0.2 0.3-0.2-0.3 0.1-0.5 0.2l-0.2 0.1s0.4-0.3 0.5-0.4 0.2-0.4 0.2-0.4 0 0.3 0 0.4 0.1 0.2 0.1 0.2h0.1s0-0.1 0.1-0.2c0 0 0.3-0.4 0.3-0.4-0.5 0.3-0.4 0.1-0.4 0.1zm-0.4-0.7c0 0.1 0.1 0.5 0.1 0.6v0.2l0.1-0.1-0.2 0.4-0.2 0.4s0-0.4 0-0.5c0-0.2 0.1-0.5 0.1-0.6 0-0.2 0.1-0.4 0.1-0.4zm-0.4 0.1s0 0.6-0.1 0.8-0.3 0.3-0.4 0.4-0.4 0.1-0.4 0.1 0.4-0.4 0.5-0.5l0.4-0.8zm0.8 0.1l0.3 0.3c0.1 0.1 0.1 0.4 0.1 0.4s-0.1-0.1-0.2-0.3-0.2-0.3-0.2-0.4zm0.5-0.3c0 0.1 0.1 0.4 0.2 0.5s0.1 0.3 0.1 0.4v0.1s0.1-0.4 0.1-0.4 0-0.1-0.1-0.1c0-0.2-0.3-0.5-0.3-0.5zm-0.5-0.1v0.2s0.2 0.1 0.2 0.3c0.1 0.1 0.2 0.3 0.2 0.3s-0.1-0.4-0.2-0.6c0-0.1-0.2-0.2-0.2-0.2zm1.1 0.3s0 0.1 0.1 0.2 0.1 0.5 0.1 0.5 0.1-0.2 0.1-0.4v-0.2c-0.1 0-0.3-0.1-0.3-0.1zm0.7 0.3c0 0.1 0 0.4-0.1 0.5v-0.3-0.2h0.1zm-0.3-0.8l0.2 0.4 0.4 0.2s-0.1-0.1-0.2-0.2-0.2-0.1-0.3-0.2c0-0.1-0.1-0.2-0.1-0.2zm-0.8-0.5s0.4 0.1 0.4 0.2c0.1 0.1 0.1 0.3 0.1 0.4 0.1 0.1 0.2 0.3 0.2 0.3s-0.3-0.1-0.4-0.3-0.1-0.3-0.2-0.4c0-0.1-0.1-0.2-0.1-0.2zm-0.7-0.2s0.4 0.1 0.5 0.3 0.2 0.4 0.2 0.6l0.2 0.2s-0.3-0.1-0.4-0.3-0.2-0.4-0.3-0.5c0-0.2-0.2-0.3-0.2-0.3zm-0.8 0s0.3 0 0.3 0.2c0.1 0.2 0 0.3 0 0.4s0.1 0.2 0.1 0.3c0.1 0 0.2 0.1 0.2 0.1s-0.2 0-0.3 0-0.3-0.2-0.2-0.3c0-0.1 0.1-0.2 0.1-0.3 0-0.2-0.3-0.3-0.2-0.4zm0-0.3s0.4 0 0.5 0.1c0.1 0.2 0.2 0.4 0.3 0.4s0.2 0.2 0.2 0.2l0.1 0.2s-0.1-0.1-0.2-0.2c-0.1 0-0.3-0.2-0.4-0.3s-0.2-0.3-0.3-0.3-0.2-0.1-0.2-0.1zm-2.1 0.3c0.1 0 0.2 0 0.3 0.1s0.2 0.1 0.1 0.2c0 0-0.3 0.1-0.3 0.1-0.1 0-0.1-0.1-0.1-0.2-0.1-0.2 0-0.2 0-0.2zm0.6-0.7h-0.2v0.1s0.1 0 0.2 0h0.2-0.1-0.4c-0.1 0-0.4 0.2-0.4 0.2s0-0.1 0-0.2c0.1-0.1 0.1-0.2 0.1-0.2s-0.1 0-0.2 0.1c-0.1 0-0.2 0.1-0.2 0.1s0-0.1 0.1-0.2 0.2-0.4 0.2-0.4 0.3-0.1 0.4-0.3v-0.3s0.1 0 0.2 0.1 0 0.2 0 0.2 0.1-0.1 0.1-0.3v-0.4s0.1 0.1 0.1 0.3c0 0.1-0.1 0.3-0.1 0.3s0.2-0.1 0.2-0.2v-0.4-0.1s0.2 0.2 0.2 0.3-0.1 0.3-0.1 0.3 0.2-0.1 0.3-0.2 0.2-0.4 0.2-0.4 0.1 0.1 0.1 0.3c0 0.1-0.1 0.2-0.2 0.3l-0.2 0.2h0.1s0.2-0.2 0.3-0.2 0.4-0.1 0.4-0.1l0.2-0.2s0 0.2-0.1 0.3-0.3 0.3-0.4 0.3-0.2 0.1-0.2 0.1h0.1s0.3-0.2 0.5-0.2 0.4 0 0.5-0.1c0-0.1 0.1-0.1 0.1-0.1s0.1 0.2-0.1 0.3c-0.1 0.1-0.4 0.1-0.5 0.1s-0.3 0.2-0.3 0.2h0.1s0.1-0.2 0.5-0.2c0.2 0 0.3 0 0.4 0.1 0.1 0 0.2 0.1 0.2 0.1s-0.2 0-0.4 0c-0.3 0-0.5 0.2-0.5 0.2h0.1s0.3-0.1 0.5-0.1 0.4 0.1 0.5 0.2 0.1 0.3 0.2 0.3 0.2 0.1 0.2 0.1-0.2 0.1-0.6-0.2-0.8-0.1-0.8-0.1l0.1 0.1s0.2 0 0.4 0.1 0.3 0.2 0.4 0.3l0.3 0.3c0.1 0-0.2 0-0.3-0.1-0.1 0-0.3-0.2-0.5-0.3-0.1-0.1-0.2-0.1-0.3-0.1h-0.2s-0.2-0.3-0.3-0.4l-0.2-0.2-0.1 0.1 0.3 0.3c0.1 0.1 0.2 0.6 0 0.8-0.1 0.1-0.2 0.1-0.2 0.1l0.2 0.1-0.2-0.1-0.1 0.1h0.1 0.1-0.1-0.2-0.1s0 0-0.1 0h-0.1s0.1 0 0.1 0.1h0.1s-0.1 0-0.2-0.1c-0.1 0-0.1-0.1-0.1-0.1s-0.1 0-0.2 0h-0.1s0-0.1 0-0.1 0-0.1 0.1-0.1 0.2-0.1 0.2-0.1 0.1-0.1 0-0.1-0.1-0.1-0.1-0.1 0.1-0.1 0.1-0.1l0.1-0.1s0 0.1 0 0.2v0.2l0.3-0.3v-0.2c0-0.1-0.1-0.3-0.2-0.3s-0.2 0-0.2 0.1c0 0 0.1 0.1 0.1 0.2l-0.2 0.3c0.1 0.3-0.2 0.3-0.2 0.3s-0.2-0.2-0.1-0.4c0.1-0.1 0.3-0.2 0.3-0.3l0.1-0.1s-0.2 0-0.3 0zm0.5 0.4c0.1 0 0 0.1 0 0-0.1 0.1-0.1 0 0 0zm0-0.2c-0.1 0 0 0.2 0.1 0.1l-0.1-0.1zm-0.2 0s0.1 0.2-0.1 0.1l0.1-0.1zm0.2 0c-0.1 0-0.1-0.1 0-0.1 0.1-0.1 0.1 0.1 0 0.1zm-0.1 0c0.1 0 0.1-0.1 0-0.1s-0.1 0.1 0 0.1zm0.1-0.3c0.1 0 0.2 0.1 0 0 0 0.1-0.1 0.1 0 0zm-0.5-0.2c0 0.1 0.1 0.1 0.2 0.1l0.2 0.1 0.1-0.2 0.2-0.2-0.1-0.1-0.4 0.2-0.2 0.1zm0.1-0.3c0.1 0.1 0 0.1 0 0.1h-0.1s0 0.1 0 0.2v0.1s0.1 0 0.2 0 0.2 0.1 0.2 0.1v0.1h-0.2-0.3s0-0.1 0-0.2v-0.2s0.1 0 0.1 0c0-0.1 0.1-0.2 0.1-0.2zm2.9 1h0.2c0 0.1 0.2 0.1 0.2 0.2 0.1 0 0.1 0.1 0.2 0.1 0.1 0.1 0.1 0.2 0.1 0.2s-0.2-0.1-0.3-0.2c-0.1 0-0.2-0.1-0.3-0.2-0.1 0-0.1-0.1-0.1-0.1zm-0.5-0.8s0.2 0.1 0.6 0.4c0.2 0.1 0.5 0.1 0.5 0.1s-0.1 0.1-0.3 0.1c-0.1 0-0.3 0-0.4-0.2-0.1-0.1-0.3-0.4-0.3-0.4 0 0.1-0.1 0-0.1 0zm-1.3-1.1s0.4-0.3 0.5-0.1c0.2 0.2 0.1 0.4 0.1 0.4s0-0.3-0.1-0.4-0.3 0-0.3 0 0 0.2-0.1 0.3-0.2 0-0.2 0 0.1 0 0.2-0.1l0.1-0.1h-0.1c-0.1 0-0.1 0.1-0.1 0.1s0.1-0.1 0.1-0.2c0.1 0 0.1-0.1 0.1-0.1l-0.2 0.2zm-0.1-0.5l-0.1 0.1c0 0.1 0.1 0.1 0.1 0.1s-0.1 0-0.1 0.1l-0.1 0.1-0.1-0.1-0.1 0.1s-0.1-0.1 0-0.2c0.2-0.1 0.3-0.2 0.4-0.2zm1.1 1.1s0.2-0.1 0.3-0.1h0.3s-0.2-0.1-0.3-0.1c-0.3 0-0.3 0.2-0.3 0.2zm-1-0.9l0.2-0.1s0-0.1-0.1-0.1-0.1 0.2-0.1 0.2zm-0.6 0c-0.1 0-0.1 0.1 0 0.1s-0.1 0-0.1-0.1h0.1zm0-0.3c-0.1 0.1-0.1 0.2 0 0 0.2 0.1 0 0 0 0zm0.8-0.2c0 0.1-0.3 0.2-0.2 0 0-0.1 0.2 0 0.2 0zm-0.5 0.1c0.1 0 0.1-0.2 0-0.1-0.1 0-0.1 0.2 0 0.1zm-0.8 0.4h0.3l-0.1 0.1-0.2-0.1zm-0.2 0.1l-0.2 0.2s-0.1 0-0.1-0.1c0.1 0 0.3-0.1 0.3-0.1zm-0.5 0.3s-0.1 0-0.1-0.1 0.2 0 0.2 0-0.1 0-0.1 0v0.1zm-0.5 0.3c0 0.1 0.1 0.1 0.1 0s-0.1 0-0.1 0zm0.1-0.3c0.1 0 0.2 0.1 0.1 0.1-0.2 0-0.1-0.1-0.1-0.1zm0.7 0.2l-0.2 0.2s-0.4-0.1-0.3-0.2c0.1-0.2 0.5 0 0.5 0zm1.5 3.2c-0.1 0.1-0.2 0.4-0.2 0.5-0.1 0.2-0.2 0.3-0.4 0.4s-0.3 0.1-0.3 0.1 0.2-0.3 0.3-0.4 0.2-0.1 0.3-0.2 0.2-0.2 0.2-0.3l0.1-0.1zm-1.8 0.8s0.2 0 0.3-0.1c0.2-0.1 0.5-0.2 0.6-0.2 0.1-0.1 0.2-0.1 0.3-0.2s0.2-0.3 0.2-0.3-0.1 0.5-0.5 0.6c-0.3 0.1-0.5 0.2-0.7 0.2 0 0.1-0.2 0-0.2 0zm0.1-0.4s0.2-0.1 0.5-0.1c0.3-0.1 0.4-0.1 0.5-0.2l0.2-0.2s-0.2 0.3-0.3 0.4-0.3 0.1-0.5 0.1h-0.4zm-4 2.1c0 0.1-0.1 0.1-0.1 0.2-0.1 0 0-0.1 0.1-0.2-0.1 0 0 0 0 0zm-0.2-0.1l-0.1 0.1h-0.1l0.2-0.1zm1 0.4s-0.1 0.1-0.2 0.1h-0.1s0.1-0.1 0.2-0.1h0.1zm0.1-0.2c0 0.1-0.2 0.1-0.3 0.1s-0.1 0.1-0.1 0.1 0-0.1 0.1-0.1c0 0 0.2 0 0.3-0.1v0zm0.2-0.2c-0.1 0.1-0.3 0.6-0.5 0.6s-0.3-0.1-0.2-0.2 0.3-0.2 0.3-0.2c0.1 0 0.2 0 0.2-0.1 0.1 0 0.2-0.1 0.2-0.1zm-0.8 0.1h0.1s0.3-0.1 0.3-0.1h-0.1l-0.2 0.1h-0.1zm0.1-0.1c0.1-0.1 0.1-0.1 0 0 0.1 0-0.1 0.1-0.1 0.1h-0.1l0.2-0.1zm-0.2 0c0.2 0 0.2 0 0.2-0.1h0.1s-0.1 0-0.1 0c-0.1 0-0.2 0.1-0.2 0.1zm0-0.1s0.1 0 0.2-0.1h0.1l-0.3 0.1zm0.8 0.1c-0.1 0-0.2-0.1-0.3-0.1s-0.2-0.1-0.2-0.1l-0.1-0.1c-0.1 0-0.2 0.1-0.2 0.1s0.1-0.1 0.1-0.1-0.1 0.1-0.2 0.1v0.1s0 0.1 0.1 0.1h0.2c0.1 0 0.3-0.1 0.4-0.1 0.1 0.1 0.2 0.1 0.2 0.1zm5.3-0.1l-0.4 0.1v0.1h0.1s0.1 0 0.1 0.1-0.2 0.5-0.2 0.5 0 0.1-0.1 0.1h-0.1v0.1s0.5-0.1 0.6-0.2c0.1 0 0.4-0.1 0.4-0.1v-0.3h-0.1l-0.1 0.2s-0.2 0.1-0.3 0.1v-0.2h0.1l0.1 0.1 0.1-0.4-0.2 0.1h-0.1s0-0.2 0.1-0.2l0.2-0.1c0.1 0 0.1 0.1 0.1 0.1h0.1l0.1-0.3-0.5 0.2zm-0.6 0.4l0.1 0.1-0.2 0.3-0.1-0.2 0.2-0.2zm-1.3 0.1s0.2-0.1 0.3-0.1 0.3-0.1 0.3-0.1v0.1 0.1c0 0.1-0.1 0.4-0.1 0.4 0 0.1 0.2 0.2 0.3 0s0.2-0.5 0.2-0.5h-0.1v-0.1l0.5-0.1v0.1s-0.1 0-0.1 0.1c0 0 0 0.1-0.1 0.1 0 0-0.1 0.4-0.2 0.5 0 0.1-0.2 0.3-0.5 0.3-0.2 0-0.3-0.1-0.3-0.3s0.1-0.3 0.1-0.3c-0.1-0.1-0.2-0.1-0.3-0.2 0.1 0.1 0 0.1 0 0zm-1 0.2s0.4 0 0.5-0.1c0.1 0 0.4-0.1 0.4-0.1s-0.1 0.3-0.1 0.3l-0.1-0.1h-0.2l-0.1 0.1h0.1l0.1-0.1-0.1 0.3-0.1-0.1h-0.1l-0.1 0.2h0.1c0.1 0 0.2 0 0.2-0.1 0.1 0 0.2-0.1 0.2-0.1h0.1l-0.1 0.3c-0.3 0-0.3 0-0.6 0.1h-0.4v-0.1h0.1l0.1-0.1s0.2-0.3 0.2-0.4c0 0.1 0 0.1-0.1 0v0zm-0.7 0h0.6v0.1h-0.1s-0.1 0-0.1 0.1-0.2 0.4-0.2 0.4v0.1h0.1v0.1h-0.6v-0.1h0.1s0.1 0 0.1-0.1l0.2-0.4c0-0.1 0-0.1-0.1-0.2v0zm-0.8 0.1s-0.2 0.4-0.3 0.5h0.1s0.3 0 0.4-0.1 0.1-0.2 0.1-0.2 0-0.1-0.1-0.1c-0.1-0.1-0.2-0.1-0.2-0.1zm-0.4-0.2c0.1 0.1 0.1 0.1 0.1 0.2l-0.2 0.4h-0.1-0.2l-0.1 0.1h0.9c0.1 0 0.5-0.2 0.5-0.4s0-0.3-0.3-0.3c-0.2 0.1-0.6 0-0.6 0zm-0.4-0.4s-0.1 0.2-0.1 0.3c-0.1 0.1-0.1 0.2-0.1 0.2s0.1 0.2 0.2 0.1c0.1 0 0.3-0.1 0.3-0.3s-0.1-0.2-0.3-0.3c0.1 0.1 0 0 0 0zm0.1 0s0.1 0 0.2 0.1 0.2 0.1 0.2 0.1l-0.1-0.1c-0.1-0.1-0.2-0.1-0.3-0.1zm3.8-1v0.3 0.2s-0.1-0.2-0.1-0.3c0-0.2 0.1-0.2 0.1-0.2zm-0.3-0.2v0.4c0 0.1 0.1 0.4 0.1 0.4s-0.2-0.3-0.2-0.4c0-0.2 0.1-0.4 0.1-0.4zm-0.3-0.1v0.9s-0.1-0.5-0.1-0.6 0.1-0.3 0.1-0.3zm-0.3-0.1s-0.1 0.2-0.1 0.3v0.4s0-0.3 0-0.5c0-0.1 0.1-0.2 0.1-0.2zm-2.6 1.2l0.2 0.1h-0.1c-0.1 0-0.2-0.1-0.1-0.1zm0.1-0.1h0.2c-0.1 0.1-0.3 0.1-0.2 0zm0.1-0.1c-0.1 0.1 0.1 0.1 0.1 0.1s0.1 0 0 0c0-0.1-0.1-0.1-0.1-0.1zm-0.5 0.3s0.2-0.1 0.3-0.2l0.2-0.2s0.2 0 0.2 0.1-0.1 0.4-0.3 0.3-0.3-0.1-0.3-0.1c0 0.1-0.1 0.1-0.1 0.1zm0.4-0.6v0.2s0-0.1 0-0.2zm-0.1-0.1c0.1 0 0 0.3 0 0.3h-0.1v-0.3c0 0.1 0 0 0.1 0zm-0.2 0.1s-0.1 0 0 0v0.4-0.1-0.2c0.1-0.2 0-0.1 0-0.1zm-0.1 0s-0.1 0 0 0.1c0 0.1 0.1 0.3 0.1 0.3v-0.3c-0.1 0-0.1-0.1-0.1-0.1zm0.5 0v0.1-0.1zm0.3-0.4c0.1 0 0.5-0.4 0.7-0.4 0.2-0.1 0.3-0.1 0.3-0.1s-0.3 0.2-0.3 0.2l-0.7 0.4v-0.1zm2.5 1c-0.1 0-0.5-0.1-0.7-0.7-0.3-0.6-0.4-1.2-0.8-1.1-0.3 0.1-1.1 0.7-1.1 0.7v0.3s0.7-0.4 0.9-0.5 0.3-0.1 0.3-0.1l-0.5 0.3c0 0.1-0.6 0.5-0.6 0.5s0.7-0.4 0.8-0.5c0.3-0.1 0.5-0.1 0.5-0.1s-0.4 0.2-0.5 0.3-0.6 0.4-0.7 0.4h-0.1s0.2-0.1 0.3-0.1c0.1-0.1 0.5-0.3 0.6-0.3 0.2-0.1 0.4-0.1 0.4-0.1s-0.3 0.1-0.4 0.2-0.4 0.3-0.5 0.3-0.3 0.1-0.3 0.1 0.2-0.1 0.4-0.2 0.4-0.3 0.6-0.3h0.2s-0.2 0.1-0.3 0.1c-0.2 0.1-0.4 0.2-0.5 0.3-0.1 0-0.2 0.1-0.2 0.1s0.4-0.2 0.5-0.2 0.3-0.1 0.4-0.1h0.2s0 0.1-0.1 0.1-0.5 0.3-0.5 0.3 0.1 0 0.2-0.1c0.1 0 0.3-0.1 0.5-0.2h0.3s-0.1 0-0.2 0.1c-0.1 0-0.4 0.2-0.5 0.2l0.4-0.1h0.4s-0.1 0-0.2 0.1c-0.1 0-0.4 0.2-0.4 0.2s0.3-0.1 0.4-0.1h0.3s-0.2 0.1-0.3 0.1-0.2 0.1-0.2 0.1 0.2-0.1 0.3-0.1h0.3s-0.2 0.1-0.3 0.1-0.2 0.1-0.2 0.1 0.2-0.1 0.3-0.1h0.4s-0.1 0-0.2 0.1l-0.2 0.1c0.1-0.1 0.6-0.2 0.6-0.2zm-2.1-1.6c0.1 0 0.2-0.1 0.1 0 0 0-0.4 0.3-0.5 0.4-0.1 0-0.4 0.3-0.4 0.3-0.1 0-0.3-0.3 0-0.6 0.2-0.2 0.6-0.1 0.6 0 0.1-0.1 0.2-0.1 0.2-0.1zm-1.5 1.2c0 0.1-0.1 0.1-0.1 0.2v0.1 0.1-0.1c0.2-0.1 0.2-0.3 0.1-0.3zm-0.1-0.2v0.2 0.2s0 0 0 0v-0.1s0.1-0.3 0-0.3c0.1 0 0 0 0 0zm-0.1 0c-0.1 0-0.1 0.2-0.1 0.2v0.2-0.2c0.1 0 0.1-0.2 0.1-0.2zm-0.2 0v0.3c0.1 0 0.1-0.3 0-0.3 0.1 0 0 0 0 0zm-0.1 0.2c0.1 0 0.1 0 0 0 0.1 0 0.1 0.1 0 0 0.1 0.1 0 0.1 0 0zm0.4-0.5v0.1h0.1 0.2v-0.1h-0.1-0.2zm-1.1 0l-0.1 0.1s-0.1 0-0.1 0.1c0 0-0.1 0-0.1 0.1l-0.1 0.1v0.1s0.3-0.1 0.3-0.1 0.2-0.1 0.2 0h0.1l0.2-0.1s0.2-0.1 0.3-0.1v-0.1l-0.1-0.1-0.1-0.1s0-0.1-0.1-0.1h-0.1s0 0 0 0.1v0.1h0.1s-0.1 0-0.1 0l-0.1 0.1v0.1l-0.1 0.1h-0.1s0.1-0.2 0-0.3c0.1 0 0 0 0 0zm0.8-0.6c0-0.1 0.1-0.1 0 0l0.1-0.1s0.1 0 0.1-0.1h0.1 0.1l0.1-0.1h0.1v0.1 0.1s-0.1 0.2-0.2 0.3c-0.1 0-0.1 0.2-0.1 0.2h-0.1-0.1l-0.2-0.1h-0.1s0 0 0-0.1v-0.1s-0.1 0 0 0h0.1s0.1 0 0.1-0.1v0h0.2l0.2-0.1 0.1-0.1s-0.1 0.1-0.2 0.1c0 0-0.2 0.1-0.3 0.1zm0.1 0.3s-0.1 0 0 0c-0.1 0 0 0 0 0 0.1 0 0.1 0 0.1 0.1h0.1-0.1c0-0.1-0.1-0.1-0.1-0.1zm0.3-0.1h-0.2-0.1s-0.1 0.1-0.1 0h0.2 0.2zm0-0.2v0h-0.2-0.1-0.1 0.2 0.2zm0.1-0.1l-0.1 0.1s-0.2 0-0.2 0.1h-0.1s0.2-0.1 0.3-0.1c0-0.1 0.1-0.1 0.1-0.1zm-0.5 0.1v0 0l-0.1 0.1 0.1-0.1c-0.1 0 0 0 0 0zm-0.1-0.1c-0.1 0-0.1 0 0 0-0.1 0.1-0.1 0.1 0 0-0.1 0.1 0 0.1 0 0zm0.1-0.1c0 0.1-0.1 0.1 0 0-0.1 0.1-0.1 0.1 0 0l-0.1 0.1c0-0.1 0-0.1 0.1-0.1-0.1 0 0 0 0 0zm0.4-0.4c-0.1 0.1-0.1 0.1-0.1 0.2l-0.1 0.1s0.1-0.1 0.1-0.2l0.1-0.1zm-0.2-0.2v0c0 0.1 0 0.2-0.1 0.2l-0.1 0.2v0.1s0 0 0 0h-0.1-0.1l-0.1 0.1h0.1s0-0.1 0-0.1l-0.1-0.1v-0.1-0.2l0.2-0.1 0.2-0.1h0.1l0.1 0.1 0.1 0.1h0.1v0.1 0.1l-0.3 0.2h-0.2v-0.1s0-0.2 0.1-0.2 0.1-0.1 0.1-0.2zm-0.3 0v0 0.3 0.1 0-0.2-0.2 0zm-0.3 1.4c0 0.1 0.1 0.1 0 0zm0.2-0.1v0.1-0.1zm-0.3 0.1v0 0.2s0-0.1 0-0.2v0zm-0.2-0.1v0 0.1h0.1v-0.1h-0.1c0.1 0 0.1 0 0 0zm0.3-0.2v0c0 0.1-0.1 0.1-0.1 0.1v-0.1c0 0.1 0 0.1 0.1 0zm0.2-0.1s-0.1 0 0 0c-0.1 0-0.1 0.1 0 0v0zm-0.2-0.1v0c0 0.1-0.1 0.1 0 0.1s0 0 0-0.1c0.1 0.1 0.1 0 0.1 0h-0.1v0s0.1 0 0 0zm0-0.1s-0.1 0 0 0c0.1 0.1 0.1 0 0.1 0s0-0.1-0.1 0zm-0.3 0.3c0 0.1 0.1 0.1 0.1 0.1v-0.1s0-0.1-0.1 0c0.1-0.1 0 0 0 0zm-0.1 0.1c0 0.1 0.1 0.1 0 0.1 0 0-0.1 0 0-0.1-0.1 0 0 0 0 0zm0.1 0.3v0c0 0.1-0.1 0.2-0.1 0.2 0-0.1 0-0.1 0.1-0.2v0zm0-0.6s-0.1 0 0 0v0h0.1v-0.1s0 0-0.1 0.1v0zm-0.2 0v0c-0.1 0.1 0 0.1 0 0.1h0.1l-0.1-0.1c0.1 0 0.1 0 0 0 0.1 0 0 0 0 0zm0.5-0.2h0.1c0-0.1 0-0.1-0.1 0v0zm0.1-0.3v0 0.1c0 0.1 0.1 0.1 0-0.1 0.1 0 0 0 0 0zm-0.5 0.3s0.1 0 0 0c0.1 0 0.1 0.1 0 0 0.1 0.1 0.1 0.1 0 0v0.1h-0.1c0.1 0 0.1 0 0.1-0.1v0zm0.3-0.1v0c0 0.1 0 0.1-0.1 0.1 0 0.1 0 0 0.1-0.1-0.1 0.1-0.1 0.1 0 0-0.1 0.1 0 0 0 0zm-0.1 0c-0.1 0-0.1 0 0 0-0.1 0.1-0.1 0.1 0 0.1v-0.1zm0.2 0s-0.1-0.1 0-0.1l0.1-0.1s0-0.1 0-0.2l-0.1-0.1h-0.1l-0.1 0.1-0.2 0.1h-0.1s0 0.1-0.1 0.1v0.1s0 0.1 0.1 0.1h0.1v-0.1-0.1l-0.1-0.1s0.1 0.1 0.1 0.1c0 0.1 0.1 0.1 0.1 0.1s0-0.1 0-0.1 0-0.1-0.1-0.1v-0.1s0 0.1 0.1 0.1l0.1 0.1v-0.2 0.1 0.1s0.1 0 0.1 0c0 0.2 0 0.2 0.1 0.2-0.1 0-0.1-0.1-0.1-0.2v-0.1 0.1c0.1 0 0 0.1 0.1 0.2zm-1 0.7l0.2-0.1h0.2s-0.1 0.1-0.2 0.1h-0.2zm0.2-0.2h0.1 0.1s0 0-0.1 0h-0.1zm0.1-0.1h0.1-0.1zm0.2-0.2v0c-0.1 0.1-0.1 0.2-0.1 0.2h0.2s0 0-0.1 0h-0.1v0.1s-0.1 0-0.1 0.1v0.1s0 0.1 0.1 0h0.1s0 0 0 0.1l-0.1 0.1c-0.1 0-0.3 0.1-0.3 0.1-0.1 0-0.2 0.1-0.2 0v-0.1s0-0.1 0.1-0.1l0.1-0.1v-0.2l0.1-0.1c0.1-0.1 0.3-0.2 0.3-0.2zm-0.7 0.5l0.2-0.1s-0.1 0-0.1 0.1h-0.1zm-0.1 0s0.1-0.1 0.2-0.1h0.2s-0.1 0-0.1 0-0.1 0.1-0.2 0.1h-0.1zm-0.2-0.1s0.1-0.1 0.2-0.1h0.2s0 0-0.1 0h-0.1c-0.1 0.1-0.2 0.1-0.2 0.1zm0.8-1.1h-0.1s0.1 0 0.1 0 0.1 0 0 0c0 0.1-0.1 0.1-0.1 0.1h0.1 0.1-0.1 0.1s0 0 0-0.1c0 0.1 0 0-0.1 0 0.1-0.1 0-0.4 0-0.4v0.1 0.1h-0.1s0.1 0 0.1 0.1c0.1-0.1 0.1 0 0 0.1v0zm-0.4 0.5c0.1 0 0 0 0 0-0.1 0.1-0.2 0.1-0.2 0.1h-0.1s0.1-0.1 0.1-0.1h0.1 0.1zm-0.8-0.3h0.2 0.2 0.1 0.2l0.1 0.1 0.1 0.1s-0.1 0-0.2 0-0.2 0.1-0.2 0.1h-0.2-0.1s0.1 0 0.2 0c0 0 0.1-0.1 0.2-0.1h0.1s-0.1 0-0.2 0-0.2 0.1-0.2 0.1h-0.2s0.2 0 0.2-0.1h0.1s-0.2 0-0.2 0h-0.2s0 0 0.1 0h0.1-0.2v-0.2zm-0.1-0.2l0.1 0.1 0.1 0.1s-0.1 0-0.1 0c0-0.1-0.1-0.2-0.1-0.2zm3-0.1s0.3 0 0.4-0.1 0.2-0.3 0.4-0.4c0.2 0 0.7-0.1 0.8-0.1s0.4 0.1 0.4 0.2c0.1 0.1 0.2 0.5 0.1 0.6s-0.2 0.2-0.4 0.2c-0.3 0-0.7-0.2-0.8-0.2s-0.4 0-0.5 0.1-0.2 0.1-0.2 0.1l-0.1-0.1 0.1-0.1s-0.1 0-0.2-0.2v0zm0.1-1.2s0.1 0 0.1 0.1v0.2l0.1 0.1s-0.1 0-0.1-0.1c0 0 0-0.2-0.1-0.3 0.1 0.1 0 0 0 0zm-1.7-0.1c0 0.1 0.1 0.1 0.3 0.1s0.4-0.1 0.5-0.1 0.3 0 0.3 0.2c0 0.1 0.1 0.1 0 0.3 0 0.1-0.1 0.3 0.1 0.4s0.4 0.2 0.7-0.2c0.2-0.2 0.3-0.1 0.5-0.2h0.9c0.2 0 0.2 0.2 0.4 0.4 0.1 0.2 0.1 0.4 0.1 0.4 0 0.1-0.1 0.2-0.1 0.2s0.2-0.1 0.2-0.2-0.3-0.8-0.4-0.9-0.4-0.1-0.7-0.1c-0.2 0-0.7 0-0.9 0.1s-0.4 0.2-0.5 0.1v-0.4c0-0.2-0.3-0.2-0.3-0.2s0.2 0.1 0.2 0.2-0.1 0.3 0 0.4 0.2 0.1 0.2 0l0.2-0.1s-0.1 0.2-0.3 0.3c-0.1 0-0.4 0-0.4-0.2-0.1-0.2 0-0.3 0-0.4s-0.1-0.3-0.2-0.4c-0.1 0-0.2-0.1-0.3 0-0.2 0-0.3 0.1-0.4 0.1 0.1 0.3-0.1 0.2-0.1 0.2zm13 1.8l-0.2 1.1v0.1h-0.1v-0.1h-0.3v-0.1l0.6-1zm2.3 2.6c0.5-0.3 1.4-1.3 1.3-2.9 0-1.3-0.6-2.1-1.2-2.5-0.1-0.1-0.2-0.2-0.3-0.2 0 0 0 0.1-0.1 0.1-0.5-0.3-1.1-0.5-1.8-0.5-0.5 0-1 0.1-1.7 0.5l-0.1-0.1c-0.3 0.3-1.2 1.2-1.3 2.3-0.1 1.2 0 1 0 1l1-0.3s0-1 0.3-1.5c0.4-0.5 1.1-1 1.8-1 1.1 0 1.8 0.7 2.1 1.6s-0.1 1.8-0.5 2.2-1 0.7-1 0.7l0.7 0.7-0.4-0.7 0.1-0.1 0.7 0.8-0.6-0.8 0.7 0.8-0.6-0.8 0.7 0.7-0.6-0.8 0.8 0.8zm-2.3-7.1s0.1-0.1 0.3-0.1h0.3v0.1h-0.1s0 0.2 0 0.2v-0.2h-0.1v0.2l-0.1-0.2s-0.2 0-0.3 0c0.1 0 0 0.1 0 0zm0-0.1h0.4 0.4s-0.1-0.3-0.4-0.3c-0.4 0-0.4 0.3-0.4 0.3zm-7.2 1.7s0.4 0.3 0.4 0.6 0 0.4-0.2 0.5c-0.1 0.1-0.1 0-0.1 0 0.1-0.1 0.2-0.2 0.1-0.5-0.1-0.4-0.3-0.5-0.2-0.6zm1.8-0.6c-0.2 0-0.4 0.2-0.4 0.2s0.3 0 0.4 0 0.3-0.1 0.4-0.1h0.1l-0.5-0.1z"/>
			<path class="st4" d="m15.2 21.7h-4.3v-0.1l1.2-0.5v-6.4s-0.4 0-0.7 0.1c-0.2 0-0.3 0.1-0.6 0.3-0.2 0.2-1.5 1.4-1.5 1.4h-0.1l0.2-2.1h7.2l0.2 2.1h-0.1s-1.3-1.2-1.5-1.4-0.4-0.3-0.6-0.3c-0.3-0.1-0.6-0.1-0.6-0.1v6.3l1.2 0.5v0.2z"/>
			<path class="st4" d="m70.7 21.7h-4.3v-0.1l1.2-0.5v-6.4s-0.4 0-0.7 0.1c-0.2 0-0.3 0.1-0.6 0.3-0.2 0.2-1.5 1.4-1.5 1.4h-0.1l0.2-2.1h7.1l0.2 2.1h-0.1s-1.3-1.2-1.5-1.4-0.4-0.3-0.6-0.3c-0.3-0.1-0.6-0.1-0.6-0.1v6.3l1.2 0.5 0.1 0.2z"/>
			<polygon class="st4" points="25.5 15 26.4 14.5 26.4 14.4 22.6 14.4 22.6 14.5 23.6 15 23.6 17.8 19.9 17.8 19.9 15 20.9 14.5 20.9 14.4 17.1 14.4 17.1 14.5 18.1 15 18.1 21.1 17.1 21.6 17.1 21.7 20.9 21.7 20.9 21.6 19.9 21.1 19.9 18.2 23.6 18.2 23.6 21.1 22.6 21.6 22.6 21.7 26.4 21.7 26.4 21.6 25.5 21.1"/>
			<polygon class="st4" points="73.6 21.1 72.6 21.6 72.6 21.7 76.4 21.7 76.4 21.6 75.4 21.1 75.4 15 76.4 14.5 76.4 14.4 72.6 14.4 72.6 14.5 73.6 15"/>
			<path class="st4" d="m33.6 21.7h-6.8v-0.1l1-0.5v-6.1l-1-0.5v-0.1h6.6l0.1 1.9h-0.1s-1.1-1-1.3-1.2-0.4-0.3-0.6-0.3c-0.3-0.1-0.7-0.1-0.7-0.1h-1.2v3.1h1.4c0.2 0 0.3 0 0.5-0.3l0.6-0.6h0.1v2.4h-0.1s-0.7-0.9-0.7-0.9c-0.1 0-0.2-0.2-0.5-0.2h-1.3v3.2h1.3c0.6 0 0.9-0.1 1.3-0.3 0.4-0.3 1.4-1.4 1.4-1.4h0.2l-0.2 2z"/>
			<path class="st4" d="m94.8 19.7h-0.2s-1 1.1-1.4 1.4-0.7 0.3-1.3 0.3h-1.3v-3.2h1.3c0.3 0 0.5 0.1 0.5 0.2 0.1 0 0.7 0.9 0.7 0.9h0.1v-2.4h-0.1s-0.3 0.4-0.6 0.6c-0.3 0.3-0.3 0.3-0.5 0.3h-1.4v-3.1h1.2s0.4 0 0.7 0.1c0.2 0 0.3 0.1 0.6 0.3 0.2 0.2 1.3 1.2 1.3 1.2h0.1l-0.1-1.9h-6.6v0.1l1 0.5v6.1l-1 0.5v0.1h6.8"/>
			<polygon class="st4" points="82.3 19.4 84.8 14.4 87.5 14.4 87.5 14.5 86.5 15 86.5 21.1 87.5 21.6 87.5 21.7 83.7 21.7 83.7 21.6 84.7 21.1 84.7 15.9 81.8 21.6 81.4 21.6 78.3 15.8 78.3 21.1 79.3 21.6 79.3 21.7 76.7 21.7 76.7 21.6 77.7 21.1 77.7 15 76.7 14.5 76.7 14.4 79.7 14.4"/>
			<path class="st4" d="m100.2 14.5l0.2 1.8h-0.1l-1.5-1.5c-0.1-0.1-0.7-0.5-1.4 0 0 0-0.7 0.4-0.2 1.2 0.4 0.8 1.7 1.3 2 1.5s2 0.9 1.8 2.4c-0.2 1.4-1.6 1.8-2.1 1.9-1.2 0.2-3.1-0.3-3.1-0.3l-0.1-1.9h0.2s1.4 1.5 1.9 1.7 1.3 0.2 1.7-0.3 0.1-1.2-0.4-1.5c-0.6-0.4-1.5-0.8-2.2-1.2s-1.2-1-1.3-1.7c-0.1-1 0.5-1.8 1.3-2.1s1.4-0.2 1.9-0.2c0.6 0.1 1.4 0.2 1.4 0.2z"/>
			<path class="st1" d="m15 26.2c-0.3-1.1-1-1.6-1.7-1.6v3.1c0 2.7 0 2.8 0.2 3 0.1 0.1 0.3 0.2 0.7 0.2v0.2h-3.6v-0.2c0.3 0 0.5-0.1 0.7-0.2 0.2-0.2 0.2-0.3 0.2-3v-3.1c-0.7 0-1.5 0.4-1.7 1.6h-0.5v-1.9h5.9v1.9h-0.2z"/>
			<path class="st1" d="m19.4 31.1v-0.2c0.3 0 0.4-0.1 0.5-0.2 0.2-0.2 0.2-0.3 0.2-2.9h-2.1c0 2.6 0 2.7 0.2 2.9 0.1 0.1 0.2 0.1 0.5 0.2v0.2h-3.3v-0.2c0.3 0 0.4-0.1 0.5-0.2 0.2-0.2 0.2-0.3 0.2-3s0-2.9-0.2-3c-0.1-0.1-0.2-0.1-0.5-0.2v-0.2h3.3v0.2c-0.3 0-0.4 0.1-0.5 0.2-0.2 0.2-0.2 0.3-0.2 2.8h2.1c0-2.5 0-2.6-0.2-2.8-0.1-0.1-0.2-0.1-0.5-0.2v-0.2h3.3v0.2c-0.3 0-0.4 0.1-0.5 0.2-0.2 0.2-0.2 0.3-0.2 3s0 2.9 0.2 3c0.1 0.1 0.2 0.1 0.5 0.2v0.2h-3.3z"/>
			<path class="st1" d="m28.6 31.1h-5.4v-0.2c0.3 0 0.4-0.1 0.5-0.2 0.2-0.2 0.2-0.3 0.2-3s0-2.9-0.2-3c-0.1-0.1-0.2-0.1-0.5-0.2v-0.2h5.3v1.9h-0.2c-0.2-0.9-0.7-1.5-1.7-1.5h-0.8v2.7h0.4c0.9 0 1.3-0.2 1.4-0.9h0.2v2.4h-0.2c-0.1-0.7-0.5-1-1.4-1h-0.4v1.7c0 0.8 0.2 1.2 1 1.2 0.9 0 1.4-0.6 1.6-1.6h0.2v1.9z"/>
			<path class="st1" d="m33.3 31.2c-0.7 0-1.4-0.2-1.7-0.2-0.1 0-0.3 0-0.4 0.1h-0.2v-1.9h0.2c0.1 1 0.8 1.7 1.9 1.7 0.9 0 1.2-0.5 1.2-1 0-1.6-3.4-1.4-3.4-3.5 0-1 0.7-2.1 2.4-2.1 0.6 0 1.2 0.2 1.5 0.2 0.2 0 0.3 0 0.4-0.1h0.2v1.9h-0.2c-0.2-0.7-0.7-1.6-1.8-1.6-0.8 0-1.1 0.4-1.1 0.8 0 1.4 3.6 1.3 3.6 3.7-0.1 1.1-1.1 2-2.6 2z"/>
			<path class="st1" d="m42.1 25.5v2.9c0 1.6-0.6 2.8-2.7 2.8-1.9 0-2.7-1-2.7-2.1v-2.4c0-1.4-0.1-1.9-0.2-2s-0.2-0.1-0.5-0.2v-0.2h3.3v0.2c-0.3 0-0.4 0.1-0.5 0.2s-0.2 0.6-0.2 2v2.6c0 0.9 0.5 1.3 1.4 1.3 1 0 1.6-0.7 1.6-2.2v-2.9c0-0.7-0.1-0.9-0.8-1v-0.2h2.1v0.2c-0.7 0.1-0.8 0.3-0.8 1z"/>
			<path class="st1" d="m49.2 25.5v5.6h-1l-3.8-4.8v3.6c0 0.7 0.1 0.9 0.8 1v0.2h-2.2v-0.2c0.7-0.1 0.8-0.3 0.8-1v-2.2c0-2.7 0-2.9-0.2-3-0.1-0.1-0.2-0.1-0.5-0.2v-0.2h2.4l3.1 4v-2.8c0-0.7-0.1-0.9-0.8-1v-0.2h2.2v0.2c-0.7 0.1-0.8 0.3-0.8 1z"/>
			<path class="st1" d="m53.9 31.1h-3.5v-0.2c0.3 0 0.4-0.1 0.5-0.2 0.2-0.2 0.2-0.3 0.2-3s0-2.9-0.2-3c-0.1-0.1-0.2-0.1-0.5-0.2v-0.2h3.3c2.3 0 3.6 1.2 3.6 3.4 0 1.9-0.7 3.4-3.4 3.4zm-0.4-6.4h-0.4v5c0 0.7 0.1 1.1 1 1.1 1 0 1.3-1.1 1.3-3-0.1-1.8-0.5-3.1-1.9-3.1z"/>
			<path class="st1" d="m60.4 31.1v-0.2c0.6-0.1 0.9-0.2 0.9-0.5 0-0.1-0.1-0.5-0.5-1.5h-1.9c-0.3 0.8-0.4 1.3-0.4 1.4 0 0.4 0.2 0.6 0.7 0.6v0.2h-2.4v-0.2c0.7-0.1 0.9-0.3 1.3-1.3l1.9-5.3h1.3l2.1 5.6c0.2 0.6 0.4 0.9 0.9 1v0.2h-3.9zm-0.6-4.8l-0.8 2.2h1.6l-0.8-2.2z"/>
			<path class="st1" d="m68.7 25.6l-1.3 2.5c0 2.4 0 2.5 0.2 2.7 0.1 0.1 0.2 0.1 0.6 0.2v0.2h-3.6v-0.2c0.4 0 0.6-0.1 0.6-0.2 0.2-0.2 0.2-0.3 0.2-2.7l-1.3-2.3c-0.6-1.1-0.7-1.2-1.3-1.2v-0.2h3.5v0.2c-0.4 0-0.6 0.1-0.6 0.4 0 0.1 0 0.2 0.4 0.8l1 1.8 0.8-1.6c0.3-0.5 0.4-0.8 0.4-1s-0.1-0.3-0.6-0.4v-0.2h2v0.2c-0.4 0-0.5 0.1-1 1z"/>
			<path class="st1" d="m77.1 26.2c-0.3-1.1-1-1.6-1.7-1.6v3.1c0 2.7 0 2.8 0.2 3 0.1 0.1 0.3 0.2 0.7 0.2v0.2h-3.6v-0.2c0.3 0 0.5-0.1 0.7-0.2 0.2-0.2 0.2-0.3 0.2-3v-3.1c-0.7 0-1.5 0.4-1.7 1.6h-0.2v-1.9h5.9v1.9h-0.5z"/>
			<path class="st1" d="m77.6 31.1v-0.2c0.3 0 0.4-0.1 0.5-0.2 0.2-0.2 0.2-0.3 0.2-3s0-2.9-0.2-3c-0.1-0.1-0.2-0.1-0.5-0.2v-0.2h3.3v0.2c-0.3 0-0.4 0.1-0.5 0.2-0.2 0.2-0.2 0.3-0.2 3s0 2.9 0.2 3c0.1 0.1 0.2 0.1 0.5 0.2v0.2h-3.3z"/>
			<path class="st1" d="m86.4 31.1v-0.2c0.3 0 0.4-0.1 0.5-0.2 0.2-0.2 0.2-0.3 0.2-3v-1.8l-2 5.2h-0.6l-2-5.2v4c0 0.7 0.1 0.9 0.8 1v0.2h-2v-0.2c0.6-0.1 0.7-0.3 0.7-1v-2.2c0-2.7 0-2.9-0.2-3-0.1-0.1-0.2-0.1-0.5-0.2v-0.2h2.8l1.5 4.1 1.6-4.1h2.5v0.2c-0.3 0-0.4 0.1-0.5 0.2-0.2 0.1-0.2 0.3-0.2 3s0 2.9 0.2 3c0.1 0.1 0.2 0.1 0.5 0.2v0.2h-3.3z"/>
			<path class="st1" d="m95.5 31.1h-5.4v-0.2c0.3 0 0.4-0.1 0.5-0.2 0.2-0.2 0.2-0.3 0.2-3s0-2.9-0.2-3c-0.1-0.1-0.2-0.1-0.5-0.2v-0.2h5.3v1.9h-0.2c-0.2-0.9-0.7-1.5-1.7-1.5h-0.8v2.7h0.4c0.9 0 1.3-0.2 1.4-0.9h0.2v2.4h-0.2c-0.1-0.7-0.5-1-1.4-1h-0.4v1.7c0 0.8 0.2 1.2 1 1.2 0.9 0 1.4-0.6 1.6-1.6h0.2v1.9z"/>
			<path class="st1" d="m98.4 31.2c-0.7 0-1.4-0.2-1.7-0.2-0.1 0-0.3 0-0.4 0.1h-0.2l0.1-1.9h0.2c0.1 1 0.7 1.7 1.8 1.7 0.9 0 1.2-0.5 1.2-1 0-1.6-3.4-1.4-3.4-3.5 0-1 0.7-2.1 2.4-2.1 0.6 0 1.2 0.2 1.5 0.2 0.2 0 0.3 0 0.4-0.1h0.2v1.9h-0.2c-0.2-0.7-0.7-1.6-1.8-1.6-0.7 0-1.1 0.4-1.1 0.8 0 1.4 3.6 1.3 3.6 3.7-0.1 1.1-1.1 2-2.6 2z"/>
	<line class="st5" x1="-8923.2" x2="9098.1" y1="-19" y2="-19"/>
</svg>
