HTTP/1.1 200 OK
Date: Sat, 24 Nov 2018 08:02:31 GMT
Server: Apache
Last-Modified: Fri, 30 Jun 2017 13:03:40 GMT
ETag: "6b3a5d2f-3489-5532d0bca6300"
Accept-Ranges: bytes
Content-Length: 13449
Vary: User-Agent
Content-Type: image/svg+xml

<?xml version="1.0" encoding="utf-8"?>
<!-- Generator: Adobe Illustrator 21.0.2, SVG Export Plug-In . SVG Version: 6.00 Build 0)  -->
<svg version="1.1" id="Layer_1" xmlns="http://www.w3.org/2000/svg" xmlns:xlink="http://www.w3.org/1999/xlink" x="0px" y="0px"
	 viewBox="0 0 180 39.8" style="enable-background:new 0 0 180 39.8;" xml:space="preserve">
<style type="text/css">
	.st0{fill:#FFFFFF;}
	.st1{fill:url(#SVGID_1_);}
	.st2{fill:url(#SVGID_2_);}
</style>
<path class="st0" d="M102.6,39.8H5.1c-2.9,0-5.1-2.3-5.1-5.1V5.1C0,2.3,2.3,0,5.1,0h97.5c2.9,0,5.1,2.3,5.1,5.1v29.6
	C107.8,37.5,105.5,39.8,102.6,39.8z"/>
<path class="st0" d="M102.6,39.8H5.1c-2.9,0-5.1-2.3-5.1-5.1V5.1C0,2.3,2.3,0,5.1,0h97.5c2.9,0,5.1,2.3,5.1,5.1v29.6
	C107.8,37.5,105.5,39.8,102.6,39.8z"/>
<g>
	
		<linearGradient id="SVGID_1_" gradientUnits="userSpaceOnUse" x1="8.5418" y1="40.477" x2="47.0408" y2="1.978" gradientTransform="matrix(1 0 0 -1 0 41.139)">
		<stop  offset="0" style="stop-color:#D49000"/>
		<stop  offset="0.4377" style="stop-color:#F7D39F"/>
		<stop  offset="0.4507" style="stop-color:#F4CE95"/>
		<stop  offset="0.507" style="stop-color:#ECBE6D"/>
		<stop  offset="0.5673" style="stop-color:#E5B04C"/>
		<stop  offset="0.6312" style="stop-color:#DFA430"/>
		<stop  offset="0.7" style="stop-color:#DA9B1B"/>
		<stop  offset="0.7762" style="stop-color:#D7950C"/>
		<stop  offset="0.8655" style="stop-color:#D59103"/>
		<stop  offset="1" style="stop-color:#D49000"/>
	</linearGradient>
	<path class="st1" d="M48.9,36.1H6.6c-1.6,0-2.8-1.3-2.8-2.8V6.6c0-1.6,1.3-2.8,2.8-2.8H49c1.6,0,2.8,1.3,2.8,2.8v26.7
		C51.8,34.8,50.5,36.1,48.9,36.1z"/>
	<g>
		<path class="st0" d="M21.1,13.1H17v14.5c0,0.3-0.2,0.5-0.5,0.5h-2.4c-0.3,0-0.5-0.2-0.5-0.5V13.1H9.5c-0.3,0-0.5-0.2-0.5-0.4v-1.9
			c0-0.3,0.2-0.4,0.5-0.4h11.7c0.3,0,0.5,0.2,0.5,0.4v1.9C21.6,12.9,21.4,13.1,21.1,13.1z"/>
		<path class="st0" d="M32.6,28c-0.8,0.1-1.7,0.3-4.5,0.3c-3.1,0-5.5-0.8-5.5-4.9V15c0-4.1,2.4-4.9,5.5-4.9c2.9,0,3.8,0.2,4.5,0.3
			c0.4,0,0.5,0.2,0.5,0.5v1.5c0,0.3-0.2,0.5-0.5,0.5h-4.9c-1.4,0-1.9,0.5-1.9,2.1v2.6h6.5c0.3,0,0.5,0.2,0.5,0.5v1.7
			c0,0.3-0.2,0.5-0.5,0.5h-6.5v3.1c0,1.6,0.5,2.1,1.9,2.1h4.9c0.3,0,0.5,0.2,0.5,0.5v1.5C33.1,27.8,32.9,27.9,32.6,28z"/>
		<path class="st0" d="M45.5,13h-4.9c-1.4,0-1.9,0.5-1.9,2.1v2.6h6.5c0.3,0,0.5,0.2,0.5,0.5v1.7c0,0.3-0.2,0.5-0.5,0.5h-6.5v7.3
			c0,0.3-0.2,0.5-0.5,0.5h-2.3c-0.3,0-0.5-0.2-0.5-0.5V15c0-4.1,2.4-4.9,5.5-4.9c2.9,0,3.8,0.2,4.5,0.3c0.4,0,0.5,0.2,0.5,0.5v1.5
			C46,12.8,45.7,13,45.5,13z"/>
	</g>
	
		<linearGradient id="SVGID_2_" gradientUnits="userSpaceOnUse" x1="68.1015" y1="33.603" x2="91.8421" y2="9.8624" gradientTransform="matrix(1 0 0 -1 0 41.139)">
		<stop  offset="0" style="stop-color:#D49000"/>
		<stop  offset="0.4377" style="stop-color:#F7D39F"/>
		<stop  offset="0.4507" style="stop-color:#F4CE95"/>
		<stop  offset="0.507" style="stop-color:#ECBE6D"/>
		<stop  offset="0.5673" style="stop-color:#E5B04C"/>
		<stop  offset="0.6312" style="stop-color:#DFA430"/>
		<stop  offset="0.7" style="stop-color:#DA9B1B"/>
		<stop  offset="0.7762" style="stop-color:#D7950C"/>
		<stop  offset="0.8655" style="stop-color:#D59103"/>
		<stop  offset="1" style="stop-color:#D49000"/>
	</linearGradient>
	<path class="st2" d="M69.5,26.5c-1,0.2-2.2,0.3-4.1,0.3c-2.1,0-5.1-1.4-5.1-5.8v-2.7c0-4.5,2.9-5.9,5.1-5.9c1.8,0,3.4,0.2,4.1,0.3
		c0.3,0.1,0.4,0.1,0.4,0.4v1.3c0,0.3-0.1,0.4-0.4,0.4c0,0,0,0-0.1,0c-0.9-0.1-2.2-0.1-4-0.1c-1.3,0-2.5,0.9-2.5,3.6V21
		c0,2.7,1.3,3.6,2.4,3.6c0.7,0,1.3,0,1.9-0.1v-4.8c0-0.2,0.1-0.4,0.4-0.4h1.9c0.2,0,0.4,0.2,0.4,0.4V26
		C69.9,26.3,69.8,26.4,69.5,26.5z M76.7,26.8c-3,0-4.5-2-4.5-4.7v-1.5c0-2.7,1.5-4.7,4.5-4.7c3,0,4.5,2,4.5,4.7v1.5
		C81.3,24.8,79.7,26.8,76.7,26.8z M78.8,20.6c0-1.5-0.7-2.6-2-2.6s-2,1-2,2.6v1.5c0,1.5,0.7,2.6,2,2.6s2-1,2-2.6V20.6z M85.7,26.6
		h-1.8c-0.2,0-0.4-0.2-0.4-0.4V12.6c0-0.2,0.2-0.4,0.4-0.4h1.8c0.2,0,0.4,0.2,0.4,0.4v13.7C86,26.5,85.9,26.6,85.7,26.6z M96.6,26.3
		c-1.2,0.3-2.6,0.5-3.8,0.5c-3,0-4.5-1.8-4.5-4.8v-1.5c0-3,1.5-4.8,4.5-4.8c0.4,0,1.1,0,1.8,0.1v-3.4c0-0.2,0.2-0.4,0.4-0.4h1.8
		c0.2,0,0.4,0.2,0.4,0.4v13.2C97.1,26.1,97,26.2,96.6,26.3z M94.6,18c-0.5-0.1-1.4-0.1-1.8-0.1c-1.6,0-2,1.2-2,2.7V22
		c0,1.5,0.4,2.7,2,2.7c0.7,0,1.5-0.1,1.8-0.1V18z"/>
</g>
<g>
	<path class="st0" d="M119.5,2.2h-2.2v7.6c0,0.1-0.1,0.3-0.3,0.3h-1.2c-0.1,0-0.3-0.1-0.3-0.3V2.2h-2.2c-0.1,0-0.3-0.1-0.3-0.2V1
		c0-0.1,0.1-0.2,0.3-0.2h6.1c0.1,0,0.3,0.1,0.3,0.2v1C119.8,2.1,119.7,2.2,119.5,2.2z"/>
	<path class="st0" d="M125.9,7.1h-4.1v0c0,0.7,0.3,1.6,1.5,1.6c0.9,0,1.8-0.1,2.3-0.1h0c0.1,0,0.2,0.1,0.2,0.2v0.8
		c0,0.2,0,0.3-0.3,0.3c-0.8,0.1-1.3,0.2-2.4,0.2c-1.2,0-3-0.7-3-3.2V6.1c0-1.9,1.1-3.2,3-3.2c1.9,0,3,1.3,3,3.2v0.7
		C126.1,7,126,7.1,125.9,7.1z M124.5,5.8c0-1-0.5-1.5-1.3-1.5s-1.4,0.5-1.4,1.5v0L124.5,5.8L124.5,5.8L124.5,5.8z"/>
	<path class="st0" d="M132.8,10h-1.1c-0.1,0-0.3-0.1-0.3-0.3V9.6c-0.6,0.4-1.2,0.5-1.8,0.5c-1,0-2.2-0.4-2.2-2.1v0
		c0-1.4,0.9-2.2,3-2.2h0.8V5.3c0-0.8-0.4-1-1.1-1c-0.8,0-1.6,0-2.1,0.1c0,0,0,0-0.1,0c-0.1,0-0.2,0-0.2-0.2V3.3
		c0-0.1,0.1-0.2,0.2-0.3c0.5-0.1,1.2-0.2,2.1-0.2c1.8,0,2.7,0.8,2.7,2.4v4.5C133.1,9.9,133,10,132.8,10z M131.4,6.9h-0.8
		c-1.1,0-1.4,0.4-1.4,1.1v0c0,0.6,0.3,0.8,0.9,0.8c0.4,0,0.9-0.1,1.3-0.4V6.9z"/>
	<path class="st0" d="M139.2,10c-0.3,0.1-0.8,0.1-1.6,0.1c-1.6,0-2.9-1-2.9-3V5.9c0-2.1,1.2-3,2.9-3c0.8,0,1.3,0.1,1.6,0.1
		c0.2,0,0.3,0.1,0.3,0.3v0.8c0,0.1-0.1,0.2-0.2,0.2h0c-0.5-0.1-0.8-0.1-1.6-0.1c-0.6,0-1.2,0.3-1.2,1.6v1.2c0,1.3,0.6,1.6,1.2,1.6
		c0.8,0,1.1,0,1.6-0.1h0c0.1,0,0.2,0.1,0.2,0.2v0.8C139.5,9.8,139.5,9.9,139.2,10z"/>
	<path class="st0" d="M146.7,10h-1.1c-0.1,0-0.3-0.1-0.3-0.3V5.6c0-1.1-0.2-1.4-1-1.4c-0.4,0-0.9,0.1-1.5,0.4v5.1
		c0,0.1-0.1,0.3-0.3,0.3h-1.1c-0.1,0-0.3-0.1-0.3-0.3V0.7c0-0.1,0.1-0.3,0.3-0.3h1.1c0.1,0,0.3,0.1,0.3,0.3v2.6
		c0.5-0.3,1-0.5,1.9-0.5c1.7,0,2.2,1.2,2.2,2.7v4.1C147,9.9,146.9,10,146.7,10z"/>
	<path class="st0" d="M150.4,2h-1.2c-0.1,0-0.3-0.1-0.3-0.3V0.7c0-0.1,0.1-0.3,0.3-0.3h1.2c0.1,0,0.3,0.1,0.3,0.3v1.1
		C150.6,1.9,150.5,2,150.4,2z M150.3,10h-1.1c-0.1,0-0.3-0.1-0.3-0.3V3.2c0-0.1,0.1-0.3,0.3-0.3h1.1c0.1,0,0.3,0.1,0.3,0.3v6.6
		C150.6,9.9,150.5,10,150.3,10z"/>
	<path class="st0" d="M158.1,10H157c-0.1,0-0.3-0.1-0.3-0.3V5.7c0-1.1-0.1-1.4-1.1-1.4c-0.4,0-0.9,0.2-1.4,0.4v5
		c0,0.1-0.1,0.3-0.3,0.3h-1.1c-0.1,0-0.3-0.1-0.3-0.3V3.2c0-0.1,0.1-0.3,0.3-0.3h1.1c0.1,0,0.3,0.1,0.3,0.3v0.3
		c0.7-0.5,1.2-0.6,2-0.6c1.8,0,2.2,1.2,2.2,2.8v4.1C158.4,9.9,158.3,10,158.1,10z"/>
	<path class="st0" d="M166.2,4.1l-0.4,0.1c0.2,0.3,0.3,0.5,0.3,1v0.1c0,1.6-1.1,2.3-3,2.3c-0.7,0-1.1-0.1-1.4-0.2
		c-0.1,0.1-0.2,0.2-0.2,0.3c0,0.3,0.1,0.4,0.4,0.4l1.5,0.4c1.7,0.4,2.8,0.7,2.8,2v0.1c0,1.3-1,2-3.1,2c-2,0-3.1-0.8-3.1-2.1v-0.1
		c0-0.5,0.2-1,0.6-1.4c-0.4-0.3-0.5-0.7-0.5-1.1l0,0c0-0.4,0.1-0.8,0.5-1c-0.4-0.4-0.5-0.8-0.5-1.5V5.2c0-1.2,0.8-2.3,3-2.3h2.9
		c0.2,0,0.3,0.1,0.3,0.3v0.5C166.4,4,166.4,4,166.2,4.1z M164.6,10.5c0-0.3-0.1-0.4-1.5-0.7l-1.1-0.3c-0.2,0.3-0.3,0.4-0.3,0.9v0.1
		c0,0.5,0.3,0.8,1.5,0.8c1.2,0,1.4-0.3,1.4-0.7L164.6,10.5L164.6,10.5z M164.5,5.3c0-0.6-0.3-1.1-1.4-1.1c-1.1,0-1.4,0.5-1.4,1.1
		v0.1c0,0.5,0.2,1,1.4,1c1,0,1.4-0.4,1.4-1V5.3z"/>
	<path class="st0" d="M119,24.6c-0.4,0.1-0.9,0.2-2.4,0.2c-1.6,0-2.9-0.4-2.9-2.6v-4.4c0-2.1,1.2-2.6,2.9-2.6c1.5,0,2,0.1,2.4,0.2
		c0.2,0,0.3,0.1,0.3,0.3v0.8c0,0.1-0.1,0.3-0.3,0.3h-2.6c-0.7,0-1,0.3-1,1.1v1.4h3.4c0.1,0,0.3,0.1,0.3,0.3v0.9
		c0,0.1-0.1,0.3-0.3,0.3h-3.4v1.6c0,0.8,0.3,1.1,1,1.1h2.6c0.1,0,0.3,0.1,0.3,0.3v0.8C119.3,24.5,119.3,24.6,119,24.6z"/>
	<path class="st0" d="M126.9,24.7h-1.4c-0.1,0-0.2,0-0.3-0.3l-1.4-2.2l-1.4,2.2c-0.1,0.2-0.2,0.3-0.3,0.3h-1.3
		c-0.1,0-0.1-0.1-0.1-0.1c0,0,0-0.1,0-0.1l2.2-3.4l-2.1-3.2c0,0,0,0,0-0.1c0-0.1,0.1-0.2,0.2-0.2h1.4c0.1,0,0.2,0.1,0.3,0.3l1.2,1.9
		l1.2-1.9c0.1-0.2,0.2-0.3,0.3-0.3h1.3c0.1,0,0.1,0.1,0.1,0.1c0,0,0,0.1,0,0.1l-2.1,3.2l2.3,3.4c0,0,0,0,0,0.1
		C127.1,24.6,127,24.7,126.9,24.7z"/>
	<path class="st0" d="M132.3,24.6c-0.3,0.1-0.8,0.1-1.6,0.1c-1.6,0-2.9-1-2.9-3v-1.2c0-2.1,1.2-3,2.9-3c0.8,0,1.3,0.1,1.6,0.1
		c0.2,0,0.3,0.1,0.3,0.3v0.8c0,0.1-0.1,0.2-0.2,0.2h0c-0.5-0.1-0.8-0.1-1.6-0.1c-0.6,0-1.2,0.3-1.2,1.6v1.2c0,1.3,0.6,1.6,1.2,1.6
		c0.8,0,1.1,0,1.6-0.1h0c0.1,0,0.2,0.1,0.2,0.2v0.8C132.6,24.5,132.5,24.6,132.3,24.6z"/>
	<path class="st0" d="M139.6,21.7h-4.1v0c0,0.7,0.3,1.6,1.5,1.6c0.9,0,1.8-0.1,2.3-0.1h0c0.1,0,0.2,0.1,0.2,0.2v0.8
		c0,0.2,0,0.3-0.3,0.3c-0.8,0.1-1.3,0.2-2.4,0.2c-1.2,0-3-0.7-3-3.2v-0.9c0-1.9,1.1-3.2,3-3.2c1.9,0,3,1.3,3,3.2v0.7
		C139.9,21.6,139.8,21.7,139.6,21.7z M138.2,20.5c0-1-0.5-1.5-1.3-1.5c-0.8,0-1.3,0.5-1.3,1.5v0L138.2,20.5L138.2,20.5z"/>
	<path class="st0" d="M143,24.7h-1.2c-0.1,0-0.3-0.1-0.3-0.3v-9c0-0.1,0.1-0.3,0.3-0.3h1.2c0.1,0,0.2,0.1,0.2,0.3v9
		C143.3,24.6,143.2,24.7,143,24.7z"/>
	<path class="st0" d="M146.7,24.7h-1.2c-0.1,0-0.3-0.1-0.3-0.3v-9c0-0.1,0.1-0.3,0.3-0.3h1.2c0.1,0,0.2,0.1,0.2,0.3v9
		C147,24.6,146.9,24.7,146.7,24.7z"/>
	<path class="st0" d="M154.5,21.7h-4.1v0c0,0.7,0.3,1.6,1.5,1.6c0.9,0,1.8-0.1,2.3-0.1h0c0.1,0,0.2,0.1,0.2,0.2v0.8
		c0,0.2,0,0.3-0.3,0.3c-0.8,0.1-1.3,0.2-2.4,0.2c-1.2,0-3-0.7-3-3.2v-0.9c0-1.9,1.1-3.2,3-3.2c1.9,0,3,1.3,3,3.2v0.7
		C154.8,21.6,154.7,21.7,154.5,21.7z M153.1,20.5c0-1-0.5-1.5-1.3-1.5c-0.8,0-1.4,0.5-1.4,1.5v0L153.1,20.5L153.1,20.5L153.1,20.5z"
		/>
	<path class="st0" d="M162,24.7h-1.1c-0.1,0-0.3-0.1-0.3-0.3v-4.1c0-1.1-0.1-1.4-1.1-1.4c-0.4,0-0.9,0.2-1.4,0.4v5
		c0,0.1-0.1,0.3-0.3,0.3h-1.1c-0.1,0-0.3-0.1-0.3-0.3v-6.5c0-0.1,0.1-0.3,0.3-0.3h1.1c0.1,0,0.3,0.1,0.3,0.3v0.3
		c0.7-0.5,1.2-0.6,2-0.6c1.8,0,2.2,1.2,2.2,2.8v4.1C162.3,24.6,162.2,24.7,162,24.7z"/>
	<path class="st0" d="M168.4,24.6c-0.3,0.1-0.8,0.1-1.6,0.1c-1.6,0-2.9-1-2.9-3v-1.2c0-2.1,1.2-3,2.9-3c0.8,0,1.3,0.1,1.6,0.1
		c0.2,0,0.3,0.1,0.3,0.3v0.8c0,0.1-0.1,0.2-0.2,0.2h0c-0.5-0.1-0.8-0.1-1.6-0.1c-0.6,0-1.2,0.3-1.2,1.6v1.2c0,1.3,0.6,1.6,1.2,1.6
		c0.8,0,1.1,0,1.6-0.1h0c0.1,0,0.2,0.1,0.2,0.2v0.8C168.7,24.5,168.7,24.6,168.4,24.6z"/>
	<path class="st0" d="M175.7,21.7h-4.1v0c0,0.7,0.3,1.6,1.5,1.6c0.9,0,1.8-0.1,2.3-0.1h0c0.1,0,0.2,0.1,0.2,0.2v0.8
		c0,0.2,0,0.3-0.3,0.3c-0.8,0.1-1.3,0.2-2.4,0.2c-1.2,0-3-0.7-3-3.2v-0.9c0-1.9,1.1-3.2,3-3.2c1.9,0,3,1.3,3,3.2v0.7
		C176,21.6,175.9,21.7,175.7,21.7z M174.3,20.5c0-1-0.5-1.5-1.3-1.5c-0.8,0-1.4,0.5-1.4,1.5v0L174.3,20.5L174.3,20.5L174.3,20.5z"/>
	<path class="st0" d="M119,31.4h-2.6c-0.7,0-1,0.3-1,1.1v1.4h3.4c0.1,0,0.3,0.1,0.3,0.3V35c0,0.1-0.1,0.3-0.3,0.3h-3.4v3.8
		c0,0.1-0.1,0.3-0.3,0.3H114c-0.1,0-0.3-0.1-0.3-0.3v-6.6c0-2.1,1.2-2.6,2.9-2.6c1.5,0,2,0.1,2.4,0.2c0.2,0,0.3,0.1,0.3,0.3v0.8
		C119.3,31.3,119.2,31.4,119,31.4z"/>
	<path class="st0" d="M124.6,33.6c-0.7,0-1.2,0.2-1.7,0.4v5c0,0.1-0.1,0.3-0.3,0.3h-1.1c-0.1,0-0.3-0.1-0.3-0.3v-6.5
		c0-0.1,0.1-0.3,0.3-0.3h1.1c0.1,0,0.3,0.1,0.3,0.3v0.3c0.6-0.5,1.3-0.6,1.8-0.6c0.1,0,0.3,0.1,0.3,0.3v0.9
		C124.8,33.5,124.7,33.6,124.6,33.6z"/>
	<path class="st0" d="M130.9,39.3h-1.1c-0.1,0-0.3-0.1-0.3-0.3v-0.2c-0.6,0.4-1.2,0.5-1.8,0.5c-1,0-2.2-0.4-2.2-2.1v0
		c0-1.4,0.9-2.2,3-2.2h0.8v-0.5c0-0.8-0.4-1-1.1-1c-0.8,0-1.6,0-2.1,0.1c0,0,0,0-0.1,0c-0.1,0-0.2,0-0.2-0.2v-0.8
		c0-0.1,0.1-0.2,0.2-0.3c0.5-0.1,1.2-0.2,2.1-0.2c1.8,0,2.7,0.8,2.7,2.4v4.5C131.1,39.2,131,39.3,130.9,39.3z M129.5,36.2h-0.8
		c-1.1,0-1.4,0.4-1.4,1.1v0c0,0.6,0.3,0.8,0.9,0.8c0.4,0,0.9-0.1,1.3-0.4V36.2z"/>
	<path class="st0" d="M141.8,39.3h-1.1c-0.1,0-0.3-0.1-0.3-0.3v-4.3c0-1-0.2-1.2-0.9-1.2c-0.2,0-0.7,0.1-1.2,0.3c0,0.3,0,0.6,0,0.9
		v4.3c0,0.1-0.1,0.3-0.3,0.3H137c-0.1,0-0.3-0.1-0.3-0.3v-4.3c0-1-0.1-1.2-0.9-1.2c-0.3,0-0.6,0.1-1.1,0.4v5.1
		c0,0.1-0.1,0.3-0.3,0.3h-1.1c-0.1,0-0.3-0.1-0.3-0.3v-6.6c0-0.1,0.1-0.3,0.3-0.3h1.1c0.1,0,0.3,0.1,0.3,0.3v0.3
		c0.5-0.3,1.1-0.6,1.8-0.6c0.7,0,1.2,0.2,1.5,0.5c0.6-0.4,1.2-0.5,2.1-0.5c1.7,0,2.1,1.2,2.1,2.6v4.3
		C142.1,39.2,141.9,39.3,141.8,39.3z"/>
	<path class="st0" d="M149.5,36.4h-4.1v0c0,0.7,0.3,1.6,1.5,1.6c0.9,0,1.8-0.1,2.3-0.1h0c0.1,0,0.2,0.1,0.2,0.2v0.8
		c0,0.2,0,0.3-0.3,0.3c-0.8,0.1-1.3,0.2-2.4,0.2c-1.2,0-3-0.7-3-3.2v-0.9c0-1.9,1.1-3.2,3-3.2c1.9,0,3,1.3,3,3.2v0.7
		C149.8,36.3,149.7,36.4,149.5,36.4z M148.1,35.1c0-1-0.5-1.5-1.3-1.5c-0.8,0-1.4,0.5-1.4,1.5v0L148.1,35.1L148.1,35.1L148.1,35.1z"
		/>
	<path class="st0" d="M160.6,32.6l-1.1,5.8c-0.1,0.7-0.4,1.1-1.1,1.1H158c-0.7,0-1-0.3-1.2-1l-1-3.8c0,0,0-0.1,0-0.1s0,0,0,0.1
		l-1,3.8c-0.1,0.7-0.5,1-1.2,1h-0.3c-0.8,0-1-0.3-1.1-1.1l-1.1-5.8v0c0-0.1,0.1-0.3,0.3-0.3h1.2c0.1,0,0.2,0.1,0.2,0.2l0.8,5.3
		c0,0.1,0,0.2,0.1,0.2c0,0,0.1,0,0.1-0.2l1-4.2c0.1-0.5,0.3-0.5,0.7-0.5h0.9c0.4,0,0.6,0,0.7,0.5l1,4.2c0,0.1,0.1,0.2,0.1,0.2
		c0,0,0-0.1,0.1-0.2l0.8-5.3c0-0.1,0.1-0.2,0.2-0.2h1.2C160.6,32.3,160.7,32.4,160.6,32.6C160.6,32.5,160.6,32.5,160.6,32.6z"/>
	<path class="st0" d="M164.6,39.4c-2,0-3-1.3-3-3.1v-1c0-1.8,1-3.1,3-3.1s3,1.3,3,3.1v1C167.6,38.1,166.6,39.4,164.6,39.4z
		 M166,35.3c0-1-0.5-1.7-1.4-1.7c-0.9,0-1.4,0.7-1.4,1.7v1c0,1,0.5,1.7,1.4,1.7c0.9,0,1.4-0.7,1.4-1.7V35.3z"/>
	<path class="st0" d="M172.7,33.6c-0.7,0-1.2,0.2-1.7,0.4v5c0,0.1-0.1,0.3-0.3,0.3h-1.1c-0.1,0-0.3-0.1-0.3-0.3v-6.5
		c0-0.1,0.1-0.3,0.3-0.3h1.1c0.1,0,0.3,0.1,0.3,0.3v0.3c0.6-0.5,1.3-0.6,1.8-0.6c0.1,0,0.3,0.1,0.3,0.3v0.9
		C173,33.5,172.9,33.6,172.7,33.6z"/>
	<path class="st0" d="M179.9,39.3h-1.5c-0.1,0-0.3-0.1-0.4-0.3l-2-2.9v2.9c0,0.1-0.1,0.3-0.3,0.3h-1.1c-0.1,0-0.3-0.1-0.3-0.3v-9
		c0-0.1,0.1-0.3,0.3-0.3h1.1c0.1,0,0.3,0.1,0.3,0.3v5.2l2.1-2.9c0.1-0.1,0.2-0.1,0.3-0.1h1.4c0.1,0,0.2,0,0.2,0.1c0,0,0,0.1,0,0.1
		l-2.5,3.1L180,39c0,0,0,0.1,0,0.1C180,39.3,180,39.3,179.9,39.3z"/>
</g>
</svg>
